<svg width="564" height="428" viewBox="0 0 564 428" fill="none" xmlns="http://www.w3.org/2000/svg">
<path opacity="0.4" d="M80.6742 428H483.326C487.617 423.676 491.748 419.215 495.715 414.623C533.434 370.934 556 315.427 556 255.013C556 114.173 433.326 0 282 0C130.674 0 8 114.173 8 255.013C8 315.421 30.5664 370.928 68.2855 414.623C72.2517 419.215 76.3832 423.676 80.6742 428Z" fill="#C3D1D1"/>
<g clip-path="url(#clip0_769_18118)">
<path d="M194.225 196.489H188.976V385.147H194.225V196.489Z" fill="#D6D1BD"/>
<path d="M235.224 407.637C234.952 407.637 234.681 407.592 234.409 407.456L191.6 387.409L148.792 407.456C147.796 407.909 146.619 407.456 146.167 406.506C145.714 405.51 146.167 404.334 147.117 403.881L190.786 383.427C191.329 383.156 191.917 383.156 192.46 383.427L236.129 403.881C237.124 404.334 237.532 405.51 237.079 406.506C236.762 407.23 236.038 407.637 235.314 407.637H235.224Z" fill="#D6D1BD"/>
<path d="M148.158 424.472C152.481 424.472 155.986 420.967 155.986 416.643C155.986 412.319 152.481 408.814 148.158 408.814C143.834 408.814 140.329 412.319 140.329 416.643C140.329 420.967 143.834 424.472 148.158 424.472Z" fill="#D6D1BD"/>
<path d="M235 424.472C239.323 424.472 242.828 420.967 242.828 416.643C242.828 412.319 239.323 408.814 235 408.814C230.676 408.814 227.171 412.319 227.171 416.643C227.171 420.967 230.676 424.472 235 424.472Z" fill="#D6D1BD"/>
<path d="M213.684 75.167H168.387L170.152 67.8361L174.27 50.6402L174.586 49.2373L175.763 44.4406C176.758 40.3678 180.379 37.4717 184.587 37.4717H197.484C201.693 37.4717 205.313 40.3226 206.308 44.4406L207.756 50.5044L208.028 51.7262L211.829 67.5646L213.639 75.167H213.684Z" fill="#998B79"/>
<path d="M243.324 112.319C243.324 112.862 243.324 113.405 243.324 113.993C243.324 114.31 243.324 114.582 243.324 114.853C242.962 128.746 239.568 141.643 234.047 152.322C231.966 156.305 229.658 159.97 227.033 163.273C224.68 166.305 223.322 169.88 223.006 173.546C223.006 173.817 223.006 174.134 222.96 174.406C222.825 177.573 223.458 180.786 224.906 183.773C227.983 190.199 229.884 198.299 230.065 207.123C230.065 207.349 230.065 207.53 230.065 207.757C230.065 207.983 230.065 208.254 230.065 208.481C230.065 217.486 228.255 225.812 225.223 232.51C215.629 236.537 205.176 238.89 194.225 239.298C193.184 239.298 192.143 239.343 191.103 239.343C190.424 239.343 189.7 239.343 189.021 239.343C178.206 239.117 167.843 236.899 158.294 233.053C155.127 226.31 153.226 217.757 153.226 208.526C153.226 208.3 153.226 208.119 153.226 207.938C153.226 207.621 153.226 207.349 153.226 207.078C153.407 198.254 155.308 190.199 158.43 183.773C161.598 177.211 160.557 169.428 155.987 163.726C153.271 160.332 150.783 156.486 148.656 152.368C143.135 141.688 139.741 128.791 139.379 114.899C139.379 114.627 139.379 114.31 139.379 114.039C139.379 113.496 139.379 112.953 139.379 112.364C139.379 105.214 140.193 98.3361 141.642 91.865C142.773 86.9777 144.221 82.3167 146.076 77.9725C149.742 75.7551 153.588 73.8092 157.57 72.1349C161.643 70.4153 165.897 69.0125 170.286 67.9264C176.984 66.2521 184.043 65.347 191.238 65.3018C191.374 65.3018 191.555 65.3018 191.691 65.3018H192.143C198.976 65.3018 205.629 66.1616 212.009 67.6549C216.308 68.6504 220.517 70.008 224.544 71.6371C228.753 73.3115 232.78 75.3026 236.627 77.5652C238.527 82.0904 240.111 86.8872 241.242 91.9555C242.69 98.4266 243.505 105.305 243.505 112.41L243.324 112.319Z" fill="#998B79"/>
<path d="M260.611 84.5795C260.611 87.4756 258.394 89.8288 255.588 90.1455L241.107 91.8651L231.152 93.0417C218.164 94.5803 205.086 95.3496 192.008 95.3496H191.148C178.07 95.3496 164.992 94.5803 152.05 93.0417L141.597 91.8199L127.614 90.1908C124.808 89.874 122.591 87.5209 122.591 84.67C122.546 68.2433 144.538 54.5318 174.315 50.6401C174.677 50.5948 174.993 50.5496 175.31 50.5043C180.514 49.8708 185.99 49.5088 191.601 49.5088C197.212 49.5088 202.597 49.8256 207.801 50.4591C208.209 50.5043 208.525 50.5496 208.842 50.5948C238.618 54.4866 260.656 68.1981 260.656 84.5342L260.611 84.5795Z" fill="#998B79"/>
<path d="M191.554 234.049C191.328 234.049 191.102 233.868 191.102 233.597V58.4242C191.102 58.1979 191.283 57.9717 191.554 57.9717C191.826 57.9717 192.007 58.1527 192.007 58.4242V233.597C192.007 233.823 191.826 234.049 191.554 234.049Z" fill="white"/>
<path d="M243.778 114.401C243.778 114.628 243.597 114.854 243.325 114.854H139.335C139.335 114.582 139.335 114.266 139.335 113.994H243.325C243.551 113.994 243.778 114.175 243.778 114.447V114.401Z" fill="white"/>
<path d="M223.233 174.451H160.74C160.513 174.451 160.287 174.27 160.287 173.998C160.287 173.727 160.468 173.546 160.74 173.546H223.233C223.46 173.546 223.686 173.727 223.686 173.998C223.686 174.27 223.505 174.451 223.233 174.451Z" fill="white"/>
<path d="M229.705 207.892H152.369C152.142 207.892 151.916 207.711 151.916 207.44C151.916 207.168 152.097 206.987 152.369 206.987H229.705C229.931 206.987 230.158 207.168 230.158 207.44C230.158 207.711 229.977 207.892 229.705 207.892Z" fill="white"/>
<path d="M208.798 50.6398C208.572 51.0018 208.346 51.3638 208.074 51.7259C205.133 55.3461 198.843 57.835 191.603 57.835C183.638 57.835 176.85 54.8483 174.361 50.6398C174.361 50.5946 174.633 49.2822 174.633 49.2822C174.814 49.7348 174.995 50.142 175.266 50.5493C177.71 54.3053 184.091 56.9752 191.557 56.9752C199.024 56.9752 205.314 54.3505 207.803 50.6851C208.165 50.5946 208.482 50.6851 208.798 50.6851V50.6398Z" fill="white"/>
<path d="M391.847 80.1899C390.353 91.8198 383.792 101.413 373.881 101.413C363.971 101.413 355.916 91.9103 355.916 80.1899C355.916 68.4695 358.043 53.5361 367.953 53.5361C377.863 53.5361 394.245 61.2291 391.801 80.1899H391.847Z" fill="#49272E"/>
<path d="M400.988 95.5308C400.988 104.355 394.925 111.505 387.458 111.505C379.991 111.505 373.973 104.355 373.973 95.5308C373.973 86.7065 380.036 79.5566 387.458 79.5566C394.879 79.5566 400.988 86.7065 400.988 95.5308Z" fill="#49272E"/>
<path d="M316.182 402.161L327.586 397.229C327.586 397.229 322.382 357.18 318.762 329.305C316.499 311.882 317.268 294.279 321.024 277.083C325.414 256.901 330.98 231.876 331.885 229.659C332.247 228.799 386.324 232.645 385.554 234.546C385.147 235.496 375.418 253.416 365.508 271.336C351.479 296.632 346.547 325.503 351.389 353.696C355.688 378.63 360.213 404.062 360.213 404.062L360.666 406.596C360.801 407.275 360.847 407.999 360.801 408.723C360.666 415.42 354.692 420.669 347.542 420.624L320.074 420.307C316.318 420.262 312.743 418.226 311.069 414.832C308.761 410.08 311.069 404.424 316.137 402.252L316.182 402.161Z" fill="#FFB888"/>
<path d="M358.359 375.824L323.695 377.453L325.415 395.781C325.415 395.781 305.549 397.953 309.26 417.457C309.712 419.764 311.839 421.439 314.328 421.439H354.965C359.762 421.439 363.472 417.502 362.929 413.022L358.359 375.824Z" fill="#478482"/>
<path d="M358.447 421.801H313.829C313.602 421.801 313.376 421.574 313.376 421.348C313.376 421.122 313.557 420.896 313.829 420.896H358.447C358.674 420.896 358.9 421.077 358.9 421.348C358.9 421.62 358.719 421.801 358.447 421.801Z" fill="#234140"/>
<path d="M321.071 346.953L346.865 337.36L319.352 333.151L321.071 346.953Z" fill="#DFA781"/>
<path d="M320.845 208.436L315.958 296.995V339.849H356.821L358.948 296.995L377.728 213.73L320.845 208.436Z" fill="#234140"/>
<path d="M361.253 401.754L370.665 397.002C370.62 396.278 357.452 323.15 354.51 308.307C353.877 305.049 350.8 229.613 350.573 228.029H398.224C397.229 230.518 391.979 272.513 389.264 293.6C388.223 301.61 388.359 309.71 389.626 317.72C393.97 345.324 404.333 406.686 404.378 407.365C404.74 414.243 399.084 420.081 391.798 420.398L366.955 421.529C362.837 421.71 358.719 419.674 356.637 416.053C353.741 410.94 355.913 404.559 361.343 401.844L361.253 401.754Z" fill="#FFB888"/>
<path d="M400.802 375.824L366.139 377.453L367.858 395.781C367.858 395.781 347.992 397.953 351.703 417.457C352.156 419.764 354.282 421.439 356.771 421.439H397.408C402.205 421.439 405.916 417.502 405.373 413.022L400.802 375.824Z" fill="#478482"/>
<path d="M351.345 415.691C351.345 415.691 351.073 415.601 351.028 415.42C349.173 401.482 362.25 396.595 362.386 396.55C362.522 396.504 362.703 396.55 362.748 396.731C362.794 396.912 362.748 397.047 362.567 397.138C362.432 397.138 349.761 401.935 351.571 415.375C351.571 415.556 351.48 415.691 351.299 415.737L351.345 415.691Z" fill="white"/>
<path d="M400.851 421.891H356.232C356.006 421.891 355.779 421.71 355.779 421.439C355.779 421.167 355.96 420.986 356.232 420.986H400.851C401.077 420.986 401.303 421.167 401.303 421.439C401.303 421.71 401.122 421.891 400.851 421.891Z" fill="#234140"/>
<path d="M361.617 346.41L386.687 335.187L358.992 332.698L361.617 346.41Z" fill="#DFA781"/>
<path d="M359.309 339.849H404.336L399.041 312.335C396.688 300.162 396.281 287.672 397.91 275.409L405.467 216.762H346.91L350.576 283.735C351.073 292.56 350.711 302.877 352.748 311.475L359.355 339.894L359.309 339.849Z" fill="#234140"/>
<path d="M370.623 55.2559C370.623 55.2559 374.968 79.6922 361.392 80.009C359.401 80.0542 358.812 89.7383 356.867 89.9645C347.68 90.9148 343.155 77.7916 345.916 64.9851C348.993 50.5948 365.6 39.9605 370.623 55.2106V55.2559Z" fill="#234140"/>
<path d="M358.267 77.5195C358.267 77.5195 343.107 87.113 329.712 65.9801C328.445 63.9437 327.54 61.3643 327.405 58.5134C326.635 45.3449 338.129 38.8286 353.832 43.7158C368.901 48.3768 374.377 70.8673 358.312 77.5195H358.267Z" fill="#49272E"/>
<path d="M353.199 110.102C359.263 110.102 364.196 105.169 364.196 99.1052V72.8135H342.203V99.1504C342.203 105.214 347.136 110.147 353.199 110.147V110.102Z" fill="#FFB888"/>
<path d="M344.872 92.7244C352.837 92.7244 358.222 85.2578 358.312 85.1672C358.403 85.0315 358.358 84.8052 358.222 84.7147C358.086 84.6242 357.86 84.6242 357.769 84.8052C357.724 84.8957 351.298 93.7652 342.248 91.8194C342.067 91.8194 341.931 91.9099 341.886 92.0456C341.886 92.2266 341.976 92.3624 342.112 92.4076C343.062 92.5887 343.967 92.6792 344.872 92.6792V92.7244Z" fill="#FF8933"/>
<path d="M365.282 69.6002C365.282 69.6002 358.992 92.8147 343.425 91.9096C327.858 91.0046 327.361 59.9614 329.85 53.4903C332.338 47.0192 349.399 39.3262 361.3 51.0919C368.088 57.7893 365.282 69.6002 365.282 69.6002Z" fill="#FFB888"/>
<path d="M328.58 61.2738C333.06 55.1195 336.409 60.8213 341.523 55.7077C346.636 50.5942 349.08 44.8471 347.043 42.8108C345.007 40.7744 338.083 42.675 332.97 47.7886C327.856 52.9021 326.544 59.2374 328.58 61.2738Z" fill="#49272E"/>
<path d="M363.151 74.4429C363.151 74.4429 357.902 70.2797 359.124 63.0846C359.26 62.4058 359.576 61.727 360.074 61.2745C362.473 59.1023 366.636 62.451 368.672 67.1573C370.935 72.4518 367.903 78.3799 363.151 74.4429Z" fill="#234140"/>
<path d="M363.154 67.3379C363.154 67.3379 357.407 71.8179 335.731 60.2332C334.464 58.9662 333.513 57.2918 333.151 55.3912C331.522 46.5217 344.057 38.8288 356.004 40.5031C369.444 42.3585 376.729 61.274 363.108 67.3831L363.154 67.3379Z" fill="#49272E"/>
<path d="M371.438 96.9785C366.958 106.074 366.279 126.076 355.419 126.076C344.558 126.076 343.065 106.21 338.449 97.4762L333.29 98.2455C337.137 97.4762 340.983 97.069 344.92 97.0237L360.894 96.7522C361.709 96.7522 362.478 96.7522 363.292 96.7522C367.999 96.7522 366.732 96.6617 371.438 96.9785Z" fill="#FFB888"/>
<path d="M335.959 78.6512C335.144 78.6512 332.927 78.5154 332.791 76.8411C332.655 75.3477 334.103 74.6689 335.009 74.5332L335.959 70.1889C335.959 70.1889 336.14 69.9627 336.23 70.0079C336.366 70.0079 336.457 70.1889 336.411 70.2795L335.416 74.8047C335.416 74.8047 335.325 74.9857 335.19 74.9857C335.099 74.9857 333.063 75.2572 333.198 76.7958C333.334 78.3344 336.14 78.1534 336.185 78.1534C336.321 78.1534 336.457 78.2439 336.457 78.3797C336.457 78.5154 336.366 78.6512 336.23 78.6512C336.23 78.6512 336.095 78.6512 335.914 78.6512H335.959Z" fill="#234140"/>
<path d="M333.199 70.2337C333.742 71.6365 331.57 72.4963 330.982 71.0935C330.439 69.6906 332.611 68.7856 333.199 70.2337Z" fill="#234140"/>
<path d="M341.932 69.4651C342.475 70.8679 340.257 71.7277 339.714 70.3249C339.171 68.9221 341.343 68.017 341.932 69.4651Z" fill="#234140"/>
<path d="M345.463 81.1402C345.463 81.1402 345.418 81.3212 345.373 81.3665C344.649 82.8146 342.341 83.8101 340.169 82.8146C339.716 82.6335 339.309 82.362 338.902 81.9548C338.313 81.4117 338.449 80.4614 339.264 80.2804C340.395 80.0994 341.843 79.6016 342.612 78.5608C344.015 76.6602 346.233 79.0586 345.463 81.095V81.1402Z" fill="#6A3D2E"/>
<path d="M345.236 75.4837C345.986 75.4837 346.594 74.8759 346.594 74.1261C346.594 73.3764 345.986 72.7686 345.236 72.7686C344.487 72.7686 343.879 73.3764 343.879 74.1261C343.879 74.8759 344.487 75.4837 345.236 75.4837Z" fill="#EE4C00"/>
<path d="M345.461 81.14C345.461 81.14 345.415 81.321 345.37 81.3663C344.646 82.8143 342.338 83.8099 340.166 82.8143C341.162 81.5925 344.193 78.3343 345.461 81.14Z" fill="#EC351B"/>
<path d="M344.151 67.881C344.287 67.2927 344.016 66.6592 343.473 66.4782L340.395 65.3469C339.852 65.1659 339.219 65.4374 338.947 65.9804L344.151 67.9263V67.881Z" fill="#234140"/>
<path d="M333.651 66.4324C333.289 65.9346 332.701 65.7083 332.293 65.9346L329.804 67.2469C329.352 67.4732 329.216 68.1067 329.442 68.6497L333.651 66.3871V66.4324Z" fill="#234140"/>
<path d="M358.903 68.9222C360.849 67.2026 365.691 63.5824 367.909 68.1982C370.307 73.2212 362.886 76.7057 360.532 77.7012L358.903 68.9222Z" fill="#FFB888"/>
<path d="M360.848 71.728C360.848 71.728 361.119 71.5923 361.164 71.4565C362.16 68.1531 365.282 68.8771 365.418 68.8771C365.644 68.9224 365.825 68.7866 365.916 68.5604C365.961 68.3341 365.825 68.1531 365.599 68.0626C365.599 68.0626 361.572 67.2028 360.395 71.185C360.35 71.4113 360.44 71.5923 360.667 71.6828C360.712 71.6828 360.802 71.6828 360.848 71.6828V71.728Z" fill="#FF8933"/>
<path d="M265.5 161.78C265.5 161.78 315.821 94.8058 335.732 106.39C347.86 113.45 340.574 126.302 333.062 135.262C328.899 140.239 324.057 144.629 318.762 148.385L290.932 168.205C284.325 172.912 275.32 172.052 269.663 166.169L265.5 161.78Z" fill="#FFB888"/>
<path d="M290.706 136.529L299.666 161.554L307.811 156.395L290.706 136.529Z" fill="#DFA781"/>
<path d="M288.488 134.402L306.092 161.011C306.092 161.011 354.919 126.935 340.845 105.395C324.962 81.0946 288.488 134.402 288.488 134.402Z" fill="#71B2B0"/>
<path d="M241.698 144.765C241.698 144.765 235.408 140.964 228.846 141.869C222.285 142.774 212.148 142.955 212.329 145.263C212.51 147.571 213.053 147.842 220.384 148.068C220.61 149.064 220.158 151.236 215.995 153.091C211.831 154.947 207.578 157.933 211.877 159.744C211.877 159.744 211.334 162.956 216.13 162.73C213.868 165.264 218.529 165.536 220.701 165.491C222.873 165.491 228.349 165.491 230.068 164.359C231.426 163.454 235.363 160.784 238.847 157.028C241.517 154.132 242.196 149.833 240.295 146.394C240.024 145.896 241.743 144.81 241.743 144.81L241.698 144.765Z" fill="#FFB888"/>
<path d="M211.921 159.924C215.768 159.472 220.293 156.53 220.519 156.394C220.61 156.349 220.61 156.213 220.564 156.123C220.519 156.032 220.383 156.032 220.338 156.078C220.293 156.078 215.677 159.109 211.921 159.562C211.831 159.562 211.74 159.653 211.74 159.743C211.74 159.834 211.831 159.924 211.921 159.879V159.924Z" fill="#EE4C00"/>
<path d="M215.993 162.685C219.84 162.233 224.365 159.291 224.546 159.156C224.636 159.11 224.636 158.975 224.591 158.929C224.546 158.839 224.41 158.839 224.32 158.884C224.32 158.884 219.659 161.916 215.903 162.369C215.812 162.369 215.722 162.459 215.722 162.55C215.722 162.64 215.812 162.731 215.903 162.685H215.993Z" fill="#EE4C00"/>
<path d="M398.136 115.305L410.897 222.237H313.876L323.47 152.548C323.56 144.267 322.7 136.031 320.981 127.976L318.582 116.889C316.772 108.608 322.157 100.417 330.484 98.788L338.991 97.3851C338.991 97.3851 339.082 97.5662 339.127 97.6567C345.824 110.463 364.287 110.237 370.668 97.2494L370.849 96.9326C378.542 97.5209 377.637 97.4756 383.248 98.0639C391.665 98.9237 399.041 106.888 398.181 115.305H398.136Z" fill="#71B2B0"/>
<path d="M290.934 143.86C289.395 143.272 287.766 143 286.182 143L237.445 142.864L235.997 156.938C235.997 156.938 264.28 173.138 282.879 170.966C287.54 170.423 290.979 166.396 290.979 161.689V143.86H290.934Z" fill="#FFB888"/>
<path d="M416.416 170.016L408.95 136.665C407.547 130.33 405.375 124.175 402.433 118.383C401.392 116.392 399.356 115.17 397.139 115.17H387.636C384.83 115.17 382.296 115.984 380.169 117.433V148.974C386.459 165.038 394.831 180.65 398.632 187.438C399.763 189.475 402.207 190.38 404.379 189.52L406.28 188.796C413.882 185.9 418.181 177.935 416.416 170.016Z" fill="#FFB888"/>
<path d="M393.566 103.223C392.571 102.273 391.394 101.639 390.127 101.277C384.199 99.6028 378.361 104.309 378.361 110.463V149.109C381.393 155.761 384.244 160.422 384.244 161.01L416.373 160.648C416.373 160.648 405.739 114.491 393.611 103.178L393.566 103.223Z" fill="#71B2B0"/>
<path d="M383.969 161.101C383.969 161.101 383.788 161.056 383.743 160.966C383.019 159.382 382.34 157.798 381.661 156.259C380.44 153.454 379.218 150.603 377.77 147.842C377.724 147.707 377.77 147.571 377.86 147.526C377.996 147.48 378.132 147.526 378.177 147.616C379.625 150.376 380.892 153.273 382.114 156.078C382.747 157.572 383.426 159.11 384.105 160.604C392.748 160.604 401.708 160.604 410.578 160.423C410.714 160.423 410.804 160.513 410.849 160.649C410.849 160.785 410.759 160.875 410.623 160.92C401.708 161.101 392.703 161.101 383.969 161.101Z" fill="#234140"/>
<path d="M383.971 161.237C383.971 161.237 383.654 161.146 383.609 161.01C382.885 159.427 382.206 157.843 381.527 156.304C380.305 153.498 379.084 150.648 377.636 147.887C377.59 147.797 377.59 147.706 377.636 147.57C377.636 147.48 377.726 147.389 377.817 147.344C377.998 147.254 378.269 147.344 378.36 147.525C379.808 150.286 381.075 153.182 382.297 155.987C382.93 157.435 383.564 158.929 384.288 160.422C392.886 160.422 401.8 160.422 410.67 160.241C410.896 160.241 411.077 160.422 411.077 160.648C411.077 160.875 410.896 161.056 410.67 161.056C401.755 161.237 392.75 161.237 384.016 161.237H383.971ZM377.952 147.616C379.31 150.512 380.577 153.408 381.799 156.168C382.478 157.707 383.156 159.291 383.88 160.875C392.659 160.92 401.665 160.92 410.579 160.784C401.665 160.784 392.75 160.784 384.107 160.784C383.247 159.155 382.613 157.616 381.98 156.168C380.758 153.363 379.536 150.512 378.043 147.751C378.043 147.751 377.998 147.706 377.952 147.706V147.616Z" fill="#EEEAFF"/>
<path d="M358.134 210.788L409.631 186.94C412.98 185.401 413.93 180.786 411.758 177.075C409.36 172.957 405.875 168.386 401.758 167.165C393.838 164.812 346.866 203.502 346.866 203.502L351.844 213.775L358.134 210.788Z" fill="#FFB888"/>
<path d="M405.241 173.546C398.634 170.559 390.217 171.283 390.081 171.283V171.781C390.081 171.781 398.362 171.057 404.788 173.863C404.924 173.727 405.06 173.636 405.241 173.546Z" fill="#FF8933"/>
<path d="M288.352 134.312L306 161.011L323.287 148.023L324.916 134.04L288.352 134.312Z" fill="#71B2B0"/>
<path d="M337.771 198.344C336.912 198.208 335.826 198.208 334.604 198.48C333.382 198.706 332.115 199.158 330.802 199.701C329.49 200.244 328.223 200.923 326.911 201.647C326.232 202.009 325.644 202.371 324.965 202.779L322.657 204.091L318.539 196.353L320.44 195.267L321.526 194.588C321.888 194.362 322.295 194.135 322.657 193.954C324.196 193.095 325.779 192.28 327.454 191.556C329.128 190.832 330.938 190.244 332.884 189.836C334.83 189.429 337.002 189.248 339.355 189.655L337.771 198.253V198.344Z" fill="#C6E0DF"/>
<path d="M339.401 199.022C339.401 199.022 338.948 198.705 338.677 198.615C338.405 198.524 338.088 198.434 337.771 198.343L339.355 189.745C340.306 189.926 341.256 190.198 342.161 190.605C343.066 191.012 343.971 191.555 344.786 192.143L339.401 199.067V199.022Z" fill="#82705D"/>
<path d="M330.438 254.14C330.031 250.249 330.438 246.583 331.162 243.144C331.886 239.705 332.836 236.401 334.013 233.188L342.249 236.175C341.208 239.071 340.348 241.967 339.76 244.864C339.172 247.76 338.9 250.611 339.172 253.19L330.483 254.14H330.438Z" fill="#C6E0DF"/>
<path d="M350.485 268.848C350.032 268.848 349.535 268.893 349.082 268.938C348.63 268.938 348.132 268.984 347.679 268.938C347.182 268.938 346.729 268.938 346.231 268.938L344.738 268.803C342.747 268.576 340.665 268.033 338.629 267.038C336.592 266.042 334.737 264.413 333.425 262.513C332.112 260.612 331.298 258.53 330.891 256.539L339.443 254.639C339.715 255.77 340.122 256.766 340.62 257.535C341.118 258.304 341.796 258.847 342.656 259.3C343.516 259.752 344.602 260.024 345.824 260.205L346.774 260.295H347.77C347.77 260.295 348.087 260.295 348.268 260.295H348.765C349.127 260.25 349.444 260.25 349.806 260.205L350.575 268.938L350.485 268.848Z" fill="#C6E0DF"/>
<path d="M331.526 258.938C330.937 257.308 330.62 255.725 330.439 254.141L339.128 253.19C339.264 254.186 339.445 255.136 339.716 255.951L331.48 258.983L331.526 258.938Z" fill="#478482"/>
<path d="M354.784 268.214L352.657 268.576C351.933 268.666 351.209 268.757 350.485 268.847L349.716 260.114C350.259 260.023 350.847 259.978 351.39 259.933L353.11 259.661L354.784 268.259V268.214Z" fill="#478482"/>
<path d="M340.53 211.964C340.846 209.068 340.892 206.172 340.349 203.728C340.077 202.506 339.67 201.42 339.172 200.696C338.674 199.927 339.262 198.931 338.629 198.615L342.113 190.56C343.245 191.057 344.783 191.827 345.734 192.641C346.684 193.456 345.96 194.949 346.548 195.899C347.815 197.845 348.449 199.882 348.901 201.827C349.309 203.773 349.49 205.674 349.49 207.529C349.49 209.385 349.399 211.149 349.218 212.914L340.53 211.919V211.964Z" fill="#C6E0DF"/>
<path d="M334.69 231.286C335.007 230.517 335.279 229.703 335.641 228.933L336.591 226.716C337.179 225.313 337.677 223.91 338.175 222.462C339.125 219.611 339.849 216.67 340.347 213.729L348.99 215.086C348.447 218.571 347.587 221.919 346.501 225.177C345.958 226.807 345.37 228.436 344.691 230.019L343.741 232.282C343.424 233.006 343.153 233.73 342.881 234.409L334.736 231.241L334.69 231.286Z" fill="#C6E0DF"/>
<path d="M339.984 215.448C340.211 214.272 340.392 213.095 340.527 211.964L349.216 212.959C349.035 214.362 348.854 215.765 348.582 217.123L339.984 215.448Z" fill="#57A19E"/>
<path d="M333.334 235.134C333.741 233.821 334.239 232.554 334.737 231.287L342.882 234.455C342.43 235.586 342.022 236.763 341.615 237.939L333.334 235.179V235.134Z" fill="#478482"/>
<path d="M319.578 205.629C316.32 207.167 312.881 208.299 309.396 209.023C305.866 209.747 302.291 210.018 298.762 209.973L298.943 201.239C304.826 201.375 310.618 200.244 315.822 197.755L319.578 205.674V205.629Z" fill="#C6E0DF"/>
<path d="M323.377 203.592L321.521 204.678C320.888 205.04 320.254 205.312 319.575 205.628L315.819 197.709C316.317 197.438 316.86 197.211 317.358 196.94L318.851 196.08L323.331 203.592H323.377Z" fill="#478482"/>
<path d="M274.596 204C268.351 201.104 262.514 197.348 257.31 192.777L263.102 186.216C267.582 190.198 272.786 193.501 278.261 196.081L274.596 204.045V204Z" fill="#C6E0DF"/>
<path d="M296.68 209.838C289.62 209.385 282.832 207.53 276.497 204.815L279.936 196.76C285.502 199.158 291.385 200.697 297.268 201.104L296.725 209.838H296.68Z" fill="#C6E0DF"/>
<path d="M278.399 205.63L277.449 205.268L276.498 204.86C275.865 204.589 275.231 204.317 274.598 204.001L278.263 196.036C278.806 196.308 279.349 196.534 279.937 196.76L280.752 197.122L281.612 197.439L278.399 205.584V205.63Z" fill="#478482"/>
<path d="M300.888 209.929L298.761 209.974L296.68 209.838L297.223 201.104L298.988 201.195H300.752L300.888 209.929Z" fill="#478482"/>
<path d="M242.147 174.088C240.201 171.599 238.21 169.246 236.128 167.029C234.047 164.811 231.829 162.775 229.521 161.01L234.726 153.996C237.622 156.123 240.156 158.521 242.509 161.01C244.862 163.499 247.034 166.079 249.071 168.703L242.147 174.088Z" fill="#C6E0DF"/>
<path d="M255.724 191.329L254.774 190.424L253.869 189.474C253.235 188.84 252.647 188.161 252.059 187.528C251.742 187.211 251.47 186.849 251.199 186.487C250.927 186.125 250.611 185.808 250.339 185.401L249.524 184.269C249.524 184.269 249.298 183.907 249.162 183.772L248.8 183.274C246.99 180.649 245.135 178.07 243.234 175.536L250.203 170.241C252.194 172.866 254.14 175.581 255.996 178.251L256.358 178.749C256.358 178.749 256.584 179.111 256.72 179.246L257.353 180.106C257.534 180.378 257.806 180.649 258.032 180.966C258.258 181.238 258.484 181.509 258.711 181.781C259.209 182.324 259.661 182.867 260.204 183.41L260.973 184.224L261.788 184.994L255.769 191.329H255.724Z" fill="#C6E0DF"/>
<path d="M244.454 177.075C243.685 176.079 242.961 175.038 242.191 174.088L249.115 168.703C249.93 169.744 250.744 170.83 251.513 171.871L244.499 177.075H244.454Z" fill="#57A19E"/>
<path d="M258.846 194.135L258.032 193.456L257.262 192.777C256.719 192.325 256.221 191.872 255.724 191.374L261.742 185.039C262.149 185.446 262.602 185.854 263.055 186.261L263.733 186.849L264.412 187.437L258.801 194.18L258.846 194.135Z" fill="#57A19E"/>
<path d="M212.735 157.887C211.875 158.43 211.151 159.154 210.472 160.014C209.839 160.919 209.341 161.96 208.934 163.137C208.526 164.313 208.3 165.625 208.164 166.983C208.119 167.662 208.074 168.341 208.074 169.019C208.074 169.381 208.074 169.698 208.074 170.015V170.875L199.431 171.87V171.418L199.34 171.056V170.332C199.295 169.834 199.295 169.381 199.295 168.929C199.295 167.979 199.34 167.073 199.431 166.123C199.612 164.268 199.974 162.367 200.562 160.467C201.15 158.566 202.055 156.665 203.322 154.946C204.589 153.181 206.219 151.642 208.119 150.466L212.69 157.932L212.735 157.887Z" fill="#C6E0DF"/>
<path d="M228.119 160.014C226.943 159.245 225.721 158.521 224.499 157.978C223.277 157.435 222.055 157.028 220.834 156.802C219.612 156.575 218.39 156.485 217.213 156.575C215.992 156.666 214.815 156.937 213.865 157.345L210.471 149.244C210.968 149.018 211.466 148.882 211.964 148.701C212.462 148.52 212.96 148.43 213.457 148.294C214.453 148.068 215.494 147.932 216.489 147.842C218.526 147.661 220.562 147.842 222.508 148.204C224.454 148.611 226.309 149.199 228.074 150.014C229.794 150.783 231.423 151.733 232.916 152.729L228.074 160.014H228.119Z" fill="#C6E0DF"/>
<path d="M215.133 156.937C214.228 157.163 213.459 157.48 212.735 157.932L208.164 150.466C209.657 149.561 211.286 148.882 212.916 148.475L215.133 156.937Z" fill="#57A19E"/>
<path d="M230.883 162.096C229.978 161.372 229.027 160.648 228.077 160.06L232.919 152.774C234.141 153.589 235.272 154.449 236.404 155.354L230.883 162.142V162.096Z" fill="#57A19E"/>
<path d="M354.013 268.667L358.222 268.124L356.819 258.802L352.61 259.39L354.013 268.667Z" fill="#71B2B0"/>
<path d="M199.251 170.604L199.522 173.681C199.522 174.225 200.066 174.587 200.563 174.496L207.668 173.365C208.12 173.274 208.437 172.867 208.392 172.414L208.03 169.292L199.296 170.604H199.251Z" fill="#234140"/>
<path d="M360.803 201.919C360.803 201.919 358.405 195.991 351.979 194.407C345.508 192.823 336.005 189.248 335.326 191.465C334.647 193.638 335.009 194.135 341.435 196.896C341.661 196.986 341.752 197.258 341.706 197.484C341.299 198.525 339.851 199.973 335.869 200.109C331.298 200.29 326.23 201.557 329.579 204.815C329.579 204.815 327.859 207.575 332.43 209.159C329.352 210.653 333.651 212.644 335.643 213.413C337.679 214.182 342.747 216.264 344.784 215.857C346.413 215.495 351.164 214.454 355.87 212.146C359.31 210.471 361.391 206.761 360.984 202.96C360.893 202.326 360.803 201.964 360.803 201.964V201.919Z" fill="#FFB888"/>
<path d="M329.488 204.996C333.244 205.992 338.584 204.906 338.81 204.86C338.901 204.86 338.991 204.725 338.946 204.634C338.946 204.544 338.81 204.453 338.72 204.498C338.675 204.498 333.244 205.584 329.579 204.634C329.488 204.634 329.398 204.634 329.353 204.77C329.353 204.86 329.353 204.951 329.488 204.996Z" fill="#FF8933"/>
<path d="M332.294 209.068C336.05 210.064 341.39 208.978 341.616 208.933C341.706 208.933 341.797 208.797 341.752 208.706C341.752 208.616 341.616 208.525 341.525 208.571C341.48 208.571 336.05 209.657 332.384 208.706C332.294 208.706 332.203 208.706 332.158 208.842C332.158 208.933 332.158 209.023 332.294 209.068Z" fill="#FF8933"/>
</g>
<defs>
<clipPath id="clip0_769_18118">
<rect width="294.277" height="386.954" fill="white" transform="translate(122.548 37.5166)"/>
</clipPath>
</defs>
</svg>
