<svg width="295" height="190" viewBox="0 0 295 190" fill="none" xmlns="http://www.w3.org/2000/svg">
<path d="M109.614 130.854H106.224V181.415H109.614V130.917V130.854ZM149.998 130.854H146.548V181.415H149.998V130.917V130.854Z" fill="#DDD0AC"/>
<path d="M106.997 124.983H147.322C150.771 124.983 153.507 127.95 153.507 131.548V133.126H102.655V129.591C102.655 127.066 104.618 124.983 106.997 124.983ZM214.351 130.854H210.961V181.415H214.351V130.917V130.854ZM254.675 130.854H251.285V181.415H254.675V130.917V130.854Z" fill="#DDD0AC"/>
<path d="M211.734 124.983H252.059C255.449 124.983 258.244 127.95 258.244 131.548V133.126H207.393V129.591C207.393 127.066 209.355 124.983 211.734 124.983Z" fill="#DDD0AC"/>
<path d="M125.315 77.6411C123.531 74.6112 122.282 72.3387 116.275 77.9567L106.462 86.6676C105.777 87.1583 104.983 87.4513 104.16 87.5177C103.336 87.5841 102.51 87.4216 101.763 87.0464L81.8386 77.4517C80.5301 76.8205 79.0432 77.2623 78.389 78.5879C77.6753 79.8504 78.2106 81.6178 79.4596 82.4384L102.774 97.7773C103.964 98.5347 105.45 98.661 106.699 97.9666L107.175 97.7142L117.167 91.3387C119.665 89.5082 126.862 80.4816 125.315 77.7042V77.6411Z" fill="#FFB888"/>
<path d="M107.651 88.1196L110.387 95.6944L113.123 94.1794L107.711 88.1196H107.651Z" fill="#603225"/>
<path d="M110.03 83.4487L114.372 93.5484C114.372 93.5484 128.884 83.9537 125.494 76.5052C122.282 70.3191 115.562 75.2427 110.03 83.4487Z" fill="#71B2B0"/>
<path d="M107.413 85.4052L111.219 82.249L115.918 92.7906L112.528 95.2523C112.528 95.2523 107.532 91.1494 107.354 85.4052H107.413Z" fill="#71B2B0"/>
<path d="M112.172 88.3719C111.251 87.0924 110.454 85.7178 109.793 84.2689L109.555 83.8901L109.376 84.0795L109.555 84.4582C110.417 86.2658 111.475 87.9605 112.707 89.5081L112.112 88.3719H112.172ZM125.138 82.7539L125.554 81.8071C126.268 79.724 126.268 77.8935 125.494 76.2523C125.128 75.4646 124.599 74.7744 123.948 74.2323L123.889 74.1692C123.294 73.7273 122.699 73.538 122.045 73.4749C119.844 73.2855 117.346 74.9898 115.146 77.0097C112.112 79.8503 109.674 83.322 109.436 83.6376V83.5114L109.317 83.4483H109.139C108.468 84.0593 107.832 84.7127 107.235 85.4051V85.9732C107.295 87.2357 107.711 88.4981 108.246 89.6975C109.317 91.9699 110.982 93.8004 111.815 94.7473L111.934 94.8104L112.35 95.2523H112.588C112.588 95.2523 116.811 92.538 120.498 88.94C122.64 86.7307 124.186 84.6476 125.138 82.7539ZM108.484 84.5214L109.198 83.827V83.8901L109.317 84.0795L109.495 84.4582C110.706 87.0378 112.314 89.3846 114.253 91.4018L114.67 91.8436L115.265 92.4749L115.502 92.7273V92.7905C114.016 93.9898 112.886 94.7473 112.529 94.9998L112.231 94.6842L112.112 94.5579C110.416 92.865 109.061 90.8251 108.127 88.5612C107.771 87.6775 107.533 86.6675 107.533 85.7207V85.4682L108.484 84.5845V84.5214ZM119.428 89.5712L115.859 92.6011H115.74L115.502 92.3486L114.908 91.6543L114.491 91.2124C112.583 89.1671 110.979 86.8259 109.733 84.2689L109.614 83.8901H109.733V83.7639L110.209 83.1327L110.447 82.817C111.458 81.4915 113.302 79.1559 115.384 77.2622C117.525 75.2423 119.963 73.6011 121.985 73.7905C122.64 73.7905 123.175 74.043 123.77 74.4217L124.364 75.0529C124.721 75.4948 124.959 75.9366 125.257 76.4416C126.089 78.1459 125.911 80.0396 125.197 81.8702C123.846 84.831 121.873 87.4226 119.428 89.445V89.5712ZM112.172 88.3087C111.254 87.0492 110.458 85.6959 109.793 84.2689L109.555 83.8901L109.376 84.0795L109.555 84.4582C110.416 86.2664 111.474 87.9612 112.707 89.5081L112.112 88.3087H112.172Z" fill="#71B2B0"/>
<path d="M82.9096 78.4618C81.7201 76.3156 76.1889 76.3787 73.2746 76.8837C72.7988 76.9468 72.4419 77.1362 72.1445 77.4518C73.0591 78.9875 73.6664 80.7064 73.9288 82.5016H75.1183C76.9943 82.2508 78.8925 82.2508 80.7685 82.5016C81.8391 82.8172 86.1808 86.4152 86.1808 86.4152L86.8945 80.5448C86.8945 80.5448 85.705 79.7242 82.9096 78.5249V78.4618Z" fill="#FFB888"/>
<path d="M82.4331 78.1464L80.3514 73.2859C79.3403 70.5716 78.5672 74.5483 78.8051 78.7776L81.303 79.0301C81.8978 79.0301 82.3736 78.7145 82.4926 78.1464H82.4331Z" fill="#FFB888"/>
<path d="M77.7939 76.0001L74.5823 74.3589L71.6085 71.329C71.6085 71.329 66.6125 66.4685 64.8877 65.2061C65.5845 66.4307 66.4019 67.5733 67.3262 68.6147L72.9169 74.9901C73.2738 75.432 73.6901 75.6213 74.1659 75.6213C74.7607 75.5582 75.7718 75.6213 76.8423 76.4419C78.0318 77.3257 78.7456 78.0831 79.1619 78.525C79.5782 78.9669 80.1135 79.2825 80.7083 79.1562C81.1841 79.1562 81.7193 78.8406 81.8978 77.8938C82.2546 75.8107 79.0429 73.4752 77.7345 76.0001H77.7939ZM80.6488 75.8107C81.422 76.3788 81.8383 77.3888 81.422 78.0831C81.0651 78.7775 80.173 78.9037 79.3998 78.3356C78.6266 77.8306 78.2103 76.7575 78.6266 76.0632C78.9835 75.432 79.8756 75.2426 80.6488 75.8107Z" fill="#4B433E"/>
<path d="M74.9993 84.7743C75.832 84.7743 76.1889 84.1431 76.3078 83.575C76.4475 82.9268 76.3406 82.2463 76.0104 81.6813C75.713 81.0501 75.2372 80.1032 74.702 78.6514C74.3338 77.5808 74.2515 76.423 74.4641 75.3059C74.5235 74.864 74.702 74.2328 74.4641 73.9172C74.1397 73.6275 73.8589 73.2869 73.6314 72.9072L70.836 67.7311C70.2413 66.4687 69.4681 65.3325 68.6354 64.3225L67.208 62.6182C68.1596 64.9537 71.3713 71.6447 71.3713 71.6447L73.3935 75.6215L74.1667 79.6614C71.9066 80.6713 73.2745 84.8374 74.9993 84.8374V84.7743ZM74.1072 80.6082C74.7614 80.3557 75.5346 80.9238 75.8915 81.9338C76.1889 82.9437 75.8915 84.0168 75.2967 84.2693C74.6425 84.5849 73.8693 84.0168 73.5124 83.0069C73.2151 81.9338 73.5124 80.9238 74.1072 80.6082Z" fill="#514944"/>
<path d="M73.8097 74.0432C74.0476 74.1063 74.1666 74.4219 74.0476 74.6744C73.9882 74.9269 73.6908 75.0531 73.4529 74.99C73.2744 74.8638 73.1555 74.5482 73.2744 74.2957C73.3339 74.0432 73.6313 73.9169 73.8692 74.0432H73.8097Z" fill="#C1C1C1"/>
<path d="M71.8466 76.7574C71.8466 76.7574 71.6087 77.8305 72.144 78.083C71.2519 79.3454 72.5009 79.8504 72.5009 79.8504C72.5009 79.8504 71.7277 81.3022 73.5119 81.7441C72.7982 83.764 77.4374 83.259 77.4968 82.1228C77.6158 80.9866 75.2367 81.4916 75.2367 81.4916C75.2367 81.4916 77.7942 81.4916 77.021 80.2291C76.2478 79.0929 75.1178 80.1029 75.1178 80.1029C75.1178 80.1029 77.9726 79.4717 75.6531 78.2092L73.274 78.2723C73.274 78.2723 75.0583 76.8836 72.7388 76.4418C72.144 76.4418 71.8466 76.7574 71.8466 76.7574ZM81.2438 75.6212L79.9353 71.8338C79.2811 69.8139 78.7458 72.8438 78.8053 76.1261L80.4706 76.3155C80.887 76.3155 81.2438 75.9999 81.2438 75.6212ZM110.982 150.737L111.993 183.877L104.856 187.475L97.4212 150.737H110.982Z" fill="#FFB888"/>
<path d="M112.291 187.349L112.053 187.664L111.458 188.106C111.035 188.341 110.567 188.47 110.09 188.485H96.3512C96.0336 188.488 95.7195 188.416 95.4314 188.274C95.1434 188.132 94.8887 187.924 94.6859 187.664V187.601L94.6264 187.538L94.5074 187.349L94.2695 186.591V184.697C94.2695 184.192 94.448 183.751 94.6264 183.372C95.578 181.731 102.358 179.963 102.358 179.963L101.823 173.84H112.053L112.885 185.266C112.885 186.086 112.707 186.781 112.291 187.349Z" fill="#315B59"/>
<path d="M111.458 188.106L110.744 188.422H95.7559L95.1611 188.106H111.458Z" fill="#1C3433"/>
<path d="M128.17 150.737L131.263 183.877L123.769 185.897L115.562 150.737H128.17Z" fill="#FFB888"/>
<path d="M130.966 187.665C130.871 187.774 130.772 187.88 130.668 187.98C130.549 188.17 130.312 188.296 130.074 188.422C129.651 188.659 129.183 188.788 128.706 188.801H115.026C114.683 188.821 114.341 188.751 114.03 188.597C113.718 188.443 113.448 188.209 113.242 187.917V187.854L113.183 187.665C113.064 187.412 112.945 187.223 112.945 186.907C112.885 186.276 112.826 185.645 112.945 185.013C112.945 184.508 113.064 184.067 113.302 183.688C114.253 182.047 121.033 180.279 121.033 180.279L120.439 174.156H130.728L131.501 185.645C131.561 186.402 131.323 187.096 130.906 187.665H130.966Z" fill="#315B59"/>
<path d="M130.133 188.422L129.36 188.737H114.432L113.837 188.422H130.133Z" fill="#1C3433"/>
<path d="M133.82 147.077C133.582 144.741 132.155 141.648 132.155 139.628C132.155 138.555 133.345 135.399 133.345 134.452C133.345 129.087 132.155 127.761 132.928 123.974C133.047 123.342 133.107 122.585 133.345 121.954L133.939 120.123H98.2538L97.1833 122.837C93.3173 132.495 95.5179 151.558 95.399 153.515C95.399 154.02 95.399 154.462 95.5179 154.904H115.383L134.058 154.778C133.166 152 134.058 149.98 133.82 147.077Z" fill="#71B2B0"/>
<path d="M122.52 136.219C136.318 136.219 147.5 129.654 147.5 121.638C147.5 113.558 136.318 106.993 122.52 106.993C108.721 106.993 97.54 113.558 97.54 121.638C97.54 129.717 108.721 136.219 122.52 136.219Z" fill="#71B2B0"/>
<path d="M144.169 77.6414C143.931 75.7477 142.385 74.8009 140.422 74.2328V73.9172L137.032 73.2859L136.973 73.4753C135.605 73.2228 134.237 72.9703 133.047 72.5916L127.397 72.4653C126.089 72.6547 124.423 72.9072 122.817 73.2859V73.1597L119.665 74.1696V74.2959C117.762 75.1165 116.335 76.1896 116.097 77.957L117.286 98.8507L119.07 114C119.07 114 140.72 113.558 141.255 113.432C141.85 113.369 144.407 96.7045 144.407 96.7045L144.169 77.6414Z" fill="#71B2B0"/>
<path d="M113.123 56.495L113.063 56.3057V56.495H113.123Z" fill="#EAA157"/>
<path d="M130.073 78.0202H129.122C128.112 78.0202 127.144 77.5945 126.43 76.8369C125.716 76.0793 125.315 75.0517 125.315 73.9803V62.6182H133.88V73.9803C133.88 76.1896 132.155 78.0202 130.073 78.0202Z" fill="#FFB888"/>
<path d="M126.386 70.8239C129.479 70.8239 131.56 67.7309 131.62 67.6677V67.5415H131.382C131.382 67.5415 128.884 71.2658 125.375 70.4452C125.343 70.4368 125.31 70.4421 125.282 70.4598C125.254 70.4776 125.234 70.5064 125.226 70.5398C125.218 70.5733 125.223 70.6088 125.24 70.6384C125.257 70.668 125.284 70.6893 125.316 70.6976C125.672 70.8239 126.029 70.8239 126.386 70.8239Z" fill="#EE4C00"/>
<path d="M134.297 61.2291C134.297 61.2291 131.918 70.8238 125.792 70.5082C119.725 70.1295 119.547 57.2524 120.498 54.6012C121.509 51.9501 128.171 48.7939 132.75 53.6544C135.427 56.4318 134.356 61.2291 134.356 61.2291H134.297Z" fill="#FFB888"/>
<path d="M125.91 63.4386C125.91 63.8174 126.267 64.1961 126.624 64.1961C127.04 64.1961 127.338 63.8174 127.338 63.4386C127.338 62.9968 127.04 62.6812 126.624 62.6812C126.267 62.6812 125.91 62.9968 125.91 63.4386Z" fill="#EE4C00"/>
<path d="M125.613 61.2291C125.851 61.8603 125.018 62.239 124.78 61.6709C124.542 61.0397 125.375 60.6609 125.613 61.2922V61.2291ZM121.687 61.2922C121.925 61.8603 121.093 62.1759 120.914 61.6709C120.736 61.1028 121.509 60.7872 121.687 61.2922Z" fill="#603225"/>
<path d="M125.077 67.0998L125.672 66.9104C126.445 66.4054 126.564 65.143 126.564 65.0167L126.445 64.9536L126.267 65.0167C126.267 65.0167 126.208 66.2792 125.494 66.6579C125.196 66.8473 124.78 66.8473 124.304 66.6579C124.185 66.5948 124.126 66.6579 124.066 66.6579C124.066 66.7211 124.066 66.8473 124.185 66.8473C124.483 66.9735 124.78 67.0998 125.077 67.0367V67.0998Z" fill="#6A3D2E"/>
<path d="M118.595 60.4088C118.595 60.4088 125.137 58.1995 130.074 59.9038C129.955 56.0533 127.873 53.4021 127.338 52.2028C125.375 50.5616 118.298 50.9403 118.595 60.4088Z" fill="#603225"/>
<path d="M121.688 52.3919C121.688 52.3919 129.598 46.5215 134.832 51.0663C136.735 52.6444 139.114 55.5481 137.686 59.9035C137.449 60.7241 138.043 61.4185 138.698 61.9235C140.363 63.2491 138.817 66.9733 137.211 67.2889C137.865 68.867 134.237 70.0663 133.107 68.9932C132.393 68.2989 132.691 66.9733 132.215 66.279C130.668 64.1328 131.323 60.2192 132.215 60.4717C131.085 60.2192 129.955 60.0298 129.538 59.3986C129.122 58.6411 128.706 57.8205 127.932 57.6311C126.446 57.1893 125.256 55.2325 125.316 54.6012C125.434 53.5913 121.688 52.3919 121.688 52.3919Z" fill="#603225"/>
<path d="M130.252 61.6711C130.252 61.0398 130.549 60.4717 131.085 60.2193C131.798 59.8405 132.69 59.7774 133.047 60.8505C133.88 63.186 131.263 63.7541 130.49 64.0697L130.311 61.6711H130.252Z" fill="#FFB888"/>
<path d="M130.847 61.9867L130.906 61.9236C131.323 60.6611 132.096 61.0399 132.274 61.103L132.393 61.0399L132.334 60.8505C132.334 60.8505 131.085 60.5349 130.668 61.7973C130.668 61.9236 130.668 61.9867 130.787 61.9867H130.847ZM122.996 64.8272H122.699C122.401 64.6379 122.104 64.2591 122.282 63.7542L122.877 61.2292C122.877 61.1661 122.937 61.103 123.056 61.103C122.904 62.0092 122.746 62.914 122.58 63.8173C122.461 64.1329 122.58 64.4485 122.818 64.5116C123.115 64.6379 123.472 64.5116 123.769 64.0066C123.769 63.9435 123.888 63.8804 123.948 64.0066C124.007 64.0066 124.007 64.0698 123.948 64.1329C123.71 64.6379 123.353 64.8904 122.996 64.8904V64.8272Z" fill="#EE4C00"/>
<path d="M129.836 47.5317L131.442 47.7842L132.453 48.5417L131.025 49.8042L130.074 53.9703L127.933 53.5284L128.052 50.6248L129.836 47.5317Z" fill="#F9F9F9"/>
<path d="M118.357 55.99L123.829 53.7807L129.42 54.0964L134.773 58.8937L134.475 57.4419L129.717 53.1495L124.245 52.6445L119.249 54.5382L118.298 55.99H118.357Z" fill="#F9F9F9"/>
<path d="M119.249 54.5384L118.773 51.3822L123.472 47.5317H131.382L129.479 49.2361L128.706 53.4022L124.662 53.1497L119.249 54.5384Z" fill="#315B59"/>
<path d="M131.561 47.8472C131.561 47.8472 129.717 49.2359 129.777 49.4252L128.944 53.3389L130.312 54.1595L135.07 57.9468L136.141 54.6644L136.379 51.9502C136.497 50.9402 135.962 49.9933 135.011 49.5515L131.561 47.8472ZM119.012 54.9169L118.417 55.3588L118.298 55.99L118.774 56.2425L124.008 54.1595L128.647 54.3488L131.145 55.9269L134.416 59.083L134.951 58.01L133.881 57.3787L131.501 55.3588L128.885 53.5914L125.911 53.4651L123.056 53.8438L118.952 54.9169H119.012Z" fill="#315B59"/>
<path d="M230.053 77.6411C228.269 74.6112 226.96 72.3387 221.013 77.9567L211.14 86.6676C210.462 87.147 209.679 87.4336 208.867 87.4999C208.054 87.5662 207.24 87.41 206.5 87.0464L186.517 77.4517C185.327 76.8205 183.781 77.2623 183.126 78.5879C182.413 79.8504 182.889 81.6178 184.197 82.4384L207.512 97.7773C208.701 98.5347 210.188 98.661 211.437 97.9666L211.913 97.7142L221.905 91.3387C224.403 89.5082 231.599 80.4816 230.053 77.7042V77.6411Z" fill="#FFB888"/>
<path d="M212.447 88.1196L215.124 95.6944L217.86 94.1794L212.447 88.1196Z" fill="#603225"/>
<path d="M214.708 83.4487L219.109 93.5484C219.109 93.5484 233.621 83.9537 230.231 76.5052C227.02 70.3191 220.299 75.2427 214.767 83.4487H214.708Z" fill="#71B2B0"/>
<path d="M212.091 85.4052L215.957 82.249L220.655 92.7906L217.265 95.2523C217.265 95.2523 212.269 91.1494 212.091 85.4052Z" fill="#71B2B0"/>
<path d="M216.849 88.3719C215.929 87.0917 215.132 85.7172 214.47 84.2689L214.291 83.8901L214.113 84.0795L214.232 84.4582C215.111 86.2699 216.189 87.9649 217.443 89.5081L216.849 88.3719ZM229.874 82.7539L230.29 81.8071C231.004 79.724 231.004 77.8935 230.231 76.2523C229.864 75.4646 229.336 74.7744 228.684 74.2323L228.625 74.1692C228.03 73.7273 227.435 73.538 226.781 73.4749C224.581 73.2855 222.083 74.9898 219.882 77.0097C216.849 79.8503 214.351 83.322 214.172 83.6376V83.5114L213.994 83.4483H213.875C213.204 84.0596 212.569 84.713 211.972 85.4051V85.9732C212.031 87.2357 212.447 88.4981 212.983 89.6975C214.053 91.9699 215.719 93.8004 216.551 94.7473L216.67 94.8104L217.087 95.2523H217.325C217.325 95.2523 221.547 92.538 225.235 88.94C227.376 86.7307 228.922 84.6476 229.874 82.7539ZM213.221 84.5214L213.934 83.827V83.8901L214.053 84.0795L214.232 84.4582C215.442 87.0378 217.051 89.3846 218.99 91.4018L219.406 91.8436L220.001 92.4749L220.239 92.7273V92.7905C218.752 93.9898 217.622 94.7473 217.265 94.9998L216.968 94.6842L216.849 94.5579C215.153 92.865 213.797 90.8251 212.864 88.5612C212.507 87.6775 212.269 86.6675 212.269 85.7207V85.4682L213.221 84.5845V84.5214ZM224.164 89.5712C223.016 90.6352 221.826 91.6461 220.596 92.6011H220.477L220.239 92.3486L219.644 91.6543L219.168 91.2124C217.301 89.1596 215.737 86.8185 214.529 84.2689L214.351 83.8901H214.41L214.47 83.7639L214.945 83.1327L215.183 82.817C216.657 80.8017 218.31 78.9415 220.12 77.2622C222.261 75.2423 224.64 73.6011 226.722 73.7905C227.316 73.7905 227.911 74.043 228.506 74.4217L229.101 75.0529C229.458 75.4948 229.695 75.9366 229.933 76.4416C230.826 78.1459 230.647 80.0396 229.933 81.8702C228.583 84.831 226.609 87.4226 224.164 89.445V89.5712ZM216.849 88.3087C215.932 87.049 215.135 85.6957 214.47 84.2689L214.291 83.8901L214.113 84.0795L214.232 84.4582C215.11 86.2705 216.188 87.9656 217.443 89.5081L216.849 88.3087Z" fill="#71B2B0"/>
<path d="M187.646 78.4618C186.456 76.3156 180.925 76.3787 178.011 76.8837C177.535 76.9468 177.178 77.1362 176.881 77.4518C177.795 78.9875 178.403 80.7064 178.665 82.5016H179.795C181.691 82.2454 183.609 82.2454 185.505 82.5016C186.575 82.8172 190.858 86.4152 190.858 86.4152L191.631 80.5448C191.631 80.5448 190.441 79.7242 187.646 78.5249V78.4618Z" fill="#FFB888"/>
<path d="M187.17 78.1464L185.089 73.2859C184.078 70.5716 183.304 74.5483 183.542 78.7776L186.04 79.0301C186.635 79.0301 187.111 78.7145 187.23 78.1464H187.17Z" fill="#FFB888"/>
<path d="M182.472 76.0001L179.32 74.3589L176.346 71.329C176.346 71.329 171.35 66.4685 169.625 65.2061C170.322 66.4307 171.139 67.5733 172.063 68.6147L177.654 74.9901C178.011 75.432 178.427 75.6213 178.903 75.6213C179.498 75.5582 180.509 75.6213 181.58 76.4419C182.769 77.3257 183.483 78.0831 183.84 78.525C184.256 78.9669 184.851 79.2825 185.386 79.1562C185.981 79.1562 186.457 78.8406 186.635 77.8938C186.992 75.8107 183.78 73.4752 182.472 76.0001ZM185.446 75.8107C186.159 76.3788 186.516 77.3888 186.159 78.0831C185.802 78.7775 184.91 78.9037 184.137 78.3356C183.304 77.8306 182.948 76.7575 183.304 76.0632C183.661 75.432 184.613 75.2426 185.386 75.8107H185.446Z" fill="#4B433E"/>
<path d="M179.736 84.7743C180.568 84.7743 180.925 84.1431 181.044 83.575C181.184 82.9268 181.077 82.2463 180.747 81.6813C180.449 81.0501 179.974 80.1032 179.438 78.6514C179.07 77.5808 178.988 76.423 179.2 75.3059C179.26 74.864 179.438 74.2328 179.2 73.9172C178.876 73.6275 178.595 73.2869 178.368 72.9072L175.572 67.7311C174.978 66.4687 174.204 65.3325 173.372 64.3225L171.944 62.6182C172.896 64.9537 176.108 71.6447 176.108 71.6447L178.13 75.6215L178.903 79.6614C176.643 80.6713 177.951 84.8374 179.736 84.8374V84.7743ZM178.844 80.6082C179.438 80.3557 180.271 80.9238 180.628 81.9338C180.925 82.9437 180.628 84.0168 180.033 84.2693C179.379 84.5849 178.606 84.0168 178.249 83.0069C177.951 81.9338 178.249 80.9238 178.844 80.6082Z" fill="#514944"/>
<path d="M178.546 74.0432C178.784 74.1063 178.903 74.4219 178.784 74.6744C178.665 74.9269 178.427 75.0531 178.189 74.99C178.011 74.8638 177.892 74.5482 178.011 74.2957C178.07 74.0432 178.308 73.9169 178.606 74.0432H178.546Z" fill="#C1C1C1"/>
<path d="M176.584 76.7574C176.584 76.7574 176.346 77.8305 176.881 78.083C175.989 79.3454 177.238 79.8504 177.238 79.8504C177.238 79.8504 176.465 81.3022 178.249 81.7441C177.536 83.764 182.115 83.259 182.234 82.1228C182.353 80.9866 179.974 81.4916 179.974 81.4916C179.974 81.4916 182.532 81.4916 181.758 80.2291C180.985 79.0929 179.855 80.1029 179.855 80.1029C179.855 80.1029 182.71 79.4717 180.39 78.2092L178.011 78.2723C178.011 78.2723 179.796 76.8836 177.476 76.4418C176.881 76.4418 176.584 76.7574 176.584 76.7574ZM185.981 75.6212L184.673 71.8338C184.018 69.8139 183.483 72.8438 183.543 76.1261L185.208 76.3155C185.624 76.3155 185.922 75.9999 185.981 75.6212ZM215.719 150.737L216.73 183.877L209.593 187.475L202.099 150.737H215.719Z" fill="#FFB888"/>
<path d="M217.087 187.349L216.789 187.664L216.194 188.106C215.753 188.35 215.264 188.48 214.767 188.485H201.088C200.77 188.488 200.456 188.416 200.168 188.274C199.88 188.132 199.625 187.924 199.422 187.664V187.601L199.363 187.538L199.244 187.349L199.006 186.591V184.697C199.006 184.192 199.184 183.751 199.363 183.372C200.314 181.668 207.095 179.9 207.095 179.9L206.559 173.84H216.789L217.622 185.266C217.622 186.086 217.443 186.781 217.027 187.349H217.087Z" fill="#315B59"/>
<path d="M216.195 188.106L215.481 188.422H200.434L199.839 188.106H216.135H216.195Z" fill="#1C3433"/>
<path d="M232.908 150.737L236 183.877L228.507 185.897L220.299 150.737H232.908Z" fill="#FFB888"/>
<path d="M235.702 187.665C235.607 187.774 235.508 187.88 235.405 187.98C235.286 188.17 235.048 188.296 234.81 188.422C234.388 188.659 233.919 188.788 233.442 188.801H219.763C219.42 188.821 219.077 188.751 218.766 188.597C218.454 188.443 218.184 188.209 217.978 187.917V187.854L217.859 187.665C217.8 187.412 217.681 187.223 217.681 186.907C217.622 186.276 217.562 185.645 217.681 185.013C217.681 184.508 217.8 184.067 218.038 183.688C218.989 182.047 225.77 180.279 225.77 180.279L225.175 174.156H235.524L236.297 185.645C236.356 186.402 236.118 187.096 235.702 187.665Z" fill="#315B59"/>
<path d="M234.87 188.422L234.096 188.737H219.168L218.573 188.422H234.87Z" fill="#1C3433"/>
<path d="M238.558 147.077C238.32 144.741 236.892 141.648 236.833 139.628C236.833 138.555 238.082 135.399 238.082 134.452C238.082 129.087 236.892 127.761 237.666 123.974C237.784 123.342 237.844 122.585 238.082 121.954L238.677 120.123H202.991L201.921 122.837C198.055 132.495 200.255 151.558 200.136 153.515C200.136 154.02 200.136 154.462 200.255 154.904H220.12L238.736 154.778C237.903 152 238.855 149.98 238.558 147.077Z" fill="#71B2B0"/>
<path d="M227.198 136.219C241.056 136.219 252.237 129.654 252.237 121.638C252.237 113.558 241.056 106.993 227.257 106.993C213.459 106.993 202.277 113.558 202.277 121.638C202.277 129.717 213.459 136.219 227.257 136.219H227.198Z" fill="#71B2B0"/>
<path d="M248.906 77.6414C248.669 75.7477 247.122 74.8009 245.159 74.2328V73.9172L241.71 73.2859V73.4753C240.342 73.2228 238.915 72.9703 237.784 72.5916L232.134 72.4653C230.826 72.6547 229.16 72.9072 227.555 73.2859V73.1597L224.343 74.1696V74.2959C222.559 75.1165 221.072 76.1896 220.774 77.957L221.964 98.8507L223.867 114C223.867 114 245.397 113.558 245.992 113.432C246.587 113.369 249.144 96.7045 249.144 96.7045L248.906 77.6414Z" fill="#71B2B0"/>
<path d="M217.86 56.495L217.801 56.3057V56.495H217.86Z" fill="#EAA157"/>
<path d="M234.811 78.0202H233.859C232.85 78.0202 231.881 77.5945 231.168 76.8369C230.454 76.0793 230.053 75.0517 230.053 73.9803V62.6182H238.617V73.9803C238.617 76.1896 236.892 78.0202 234.811 78.0202Z" fill="#FFB888"/>
<path d="M231.123 70.8239C234.216 70.8239 236.298 67.7309 236.357 67.6677V67.5415H236.119C236.119 67.5415 233.621 71.2658 230.112 70.4452C230.097 70.441 230.08 70.4402 230.065 70.4427C230.049 70.4452 230.033 70.451 230.019 70.4598C230.006 70.4686 229.994 70.4802 229.984 70.4939C229.974 70.5077 229.968 70.5233 229.964 70.5398C229.96 70.5564 229.959 70.5737 229.961 70.5906C229.964 70.6075 229.969 70.6237 229.977 70.6384C229.986 70.653 229.997 70.6658 230.01 70.676C230.023 70.6861 230.037 70.6935 230.053 70.6976C230.41 70.8239 230.767 70.8239 231.123 70.8239Z" fill="#EE4C00"/>
<path d="M239.093 61.2291C239.093 61.2291 236.595 70.8238 230.528 70.4451C224.462 70.1294 224.283 57.2524 225.235 54.6643C226.186 51.95 232.848 48.7939 237.487 53.6544C240.163 56.4318 239.093 61.2291 239.093 61.2291Z" fill="#FFB888"/>
<path d="M230.647 63.4386C230.647 63.8174 231.004 64.1961 231.361 64.1961C231.778 64.1961 232.075 63.8174 232.075 63.4386C232.075 62.9968 231.778 62.6812 231.361 62.6812C231.004 62.6812 230.647 62.9968 230.647 63.4386Z" fill="#EE4C00"/>
<path d="M230.35 61.2291C230.588 61.8603 229.755 62.239 229.517 61.6709C229.28 61.0397 230.112 60.6609 230.35 61.2922V61.2291ZM226.425 61.2922C226.603 61.7972 225.83 62.1759 225.652 61.6078C225.473 61.1028 226.246 60.7872 226.425 61.2922Z" fill="#603225"/>
<path d="M229.815 67.0998L230.41 66.9104C231.123 66.4054 231.302 65.143 231.302 65.0167L231.183 64.9536L231.004 65.0167C231.004 65.0167 230.945 66.2792 230.231 66.6579C229.934 66.8473 229.517 66.8473 228.982 66.6579H228.804L228.863 66.8473C229.22 66.9735 229.458 67.0998 229.815 67.0367V67.0998Z" fill="#6A3D2E"/>
<path d="M223.331 60.4088C223.331 60.4088 229.874 58.1995 234.81 59.9038C234.691 56.0533 232.61 53.4021 232.074 52.2028C230.112 50.5616 223.034 50.9403 223.331 60.4088Z" fill="#603225"/>
<path d="M226.425 52.3919C226.425 52.3919 234.335 46.5215 239.569 51.0663C241.472 52.6444 243.851 55.5481 242.424 59.9035C242.126 60.7241 242.781 61.4185 243.435 61.9235C245.1 63.2491 243.494 66.9733 241.948 67.2889C242.543 68.867 238.974 70.0663 237.785 68.9932C237.19 68.2989 237.428 66.9733 236.952 66.279C235.406 64.1328 236.06 60.2192 236.952 60.4717C235.822 60.2192 234.692 60.0298 234.276 59.3986C233.8 58.6411 233.443 57.8205 232.67 57.6311C231.183 57.1893 229.993 55.2325 230.053 54.6012C230.172 53.5913 226.425 52.3919 226.425 52.3919Z" fill="#603225"/>
<path d="M235.049 61.6711C234.989 61.0398 235.286 60.4086 235.822 60.2193C236.476 59.8405 237.368 59.7774 237.784 60.8505C238.617 63.186 236 63.7541 235.227 64.0697L235.049 61.6711Z" fill="#FFB888"/>
<path d="M235.524 61.9867L235.643 61.9236C236.059 60.6611 236.832 61.0399 237.011 61.103C237.011 61.103 237.13 61.103 237.13 60.9767L237.07 60.8505C237.07 60.8505 235.821 60.5349 235.405 61.7973L235.464 61.9867H235.524ZM227.792 64.8272H227.435C227.138 64.6379 226.84 64.2591 227.019 63.7542L227.613 61.2292L227.732 61.103C227.851 61.103 227.911 61.2292 227.851 61.2924L227.257 63.8173C227.257 64.1329 227.316 64.4485 227.554 64.5116C227.851 64.6379 228.208 64.5116 228.446 64.0066C228.506 63.9435 228.625 63.8804 228.684 64.0066C228.684 64.0066 228.744 64.0698 228.684 64.1329C228.446 64.6379 228.089 64.8904 227.732 64.8904L227.792 64.8272Z" fill="#EE4C00"/>
<path d="M234.572 47.5317L236.178 47.7842L237.189 48.5417L235.762 49.8042L234.81 53.9703L232.669 53.5284L232.788 50.6248L234.572 47.5317Z" fill="#F9F9F9"/>
<path d="M223.034 55.99L228.565 53.7807L234.156 54.0964L239.509 58.8937L239.212 57.4419L234.454 53.1495L228.982 52.6445L223.986 54.5382L223.034 55.99Z" fill="#F9F9F9"/>
<path d="M223.986 54.5384L223.51 51.3822L228.208 47.5317H236.119L234.215 49.2361L233.442 53.4022L229.398 53.1497L223.986 54.5384Z" fill="#315B59"/>
<path d="M236.297 47.8472C236.297 47.8472 234.454 49.2359 234.513 49.4252L233.68 53.3389L235.048 54.1595L239.806 57.9468L240.877 54.6644L241.115 51.9502C241.234 50.9402 240.639 49.9933 239.687 49.5515L236.297 47.8472ZM223.748 54.9169L223.153 55.3588L223.034 55.99L223.51 56.2425L228.744 54.1595L233.383 54.3488L235.881 55.9269L239.093 59.083L239.687 58.01L238.617 57.3787L236.238 55.3588L233.621 53.5914L230.588 53.4651L227.792 53.8438L223.748 54.9169Z" fill="#315B59"/>
<path d="M279.536 189.369L281.321 123.469L277.157 123.342L278.347 189.369H279.655H279.536Z" fill="#A48667"/>
<path d="M294.405 115.768H0V125.615H294.405V115.768Z" fill="#DDCFAC"/>
<path d="M294.405 121.196H0V125.614H294.405V121.196ZM6.48286 189.369L8.26714 146.319L4.10383 146.192L5.11492 189.369H6.42339H6.48286ZM47.2238 189.369L49.0081 146.319L44.8448 146.192L45.9748 189.369H47.2238Z" fill="#A48667"/>
<path d="M50.6737 131.485H2.02246V166.013H50.6737V131.422V131.485Z" fill="white"/>
<path d="M50.6737 125.615H2.02246V135.209H50.6737V125.615ZM50.6737 136.219H2.02246V147.392H50.6737V136.219ZM50.6737 148.339H2.02246V159.512H50.6737V148.339ZM50.6737 160.522H2.02246V171.631H50.6737V160.522Z" fill="#DDCFAC"/>
<path d="M89.0352 81.7443V113.306C89.0352 113.975 89.2858 114.618 89.732 115.091C90.1781 115.565 90.7832 115.831 91.4142 115.831H129.122C129.743 115.831 130.339 115.574 130.783 115.114C131.228 114.654 131.485 114.028 131.501 113.369V108.761C131.501 108.761 131.798 105.289 127.754 104.974H100.157C99.4102 104.974 98.6929 104.663 98.1592 104.109C97.6255 103.554 97.3179 102.799 97.3023 102.007V96.1995C97.3023 94.3689 98.6702 92.9171 100.336 92.9171H117.762C118.708 92.9171 119.616 93.3161 120.285 94.0264C120.955 94.7367 121.331 95.7 121.331 96.7045V98.0932C121.331 98.8507 121.866 99.3556 122.52 99.3556H129.895C131.085 99.3556 132.215 98.535 132.571 97.2726C133.345 94.4321 134.356 89.3191 132.809 85.4686C132.393 84.2693 131.62 83.1962 130.668 82.3124C130.13 81.8574 129.528 81.4953 128.884 81.2394C122.758 78.5882 120.557 79.0301 120.557 79.0301H92.3658C92.3658 79.0301 89.8083 78.7776 89.0946 81.7443H89.0352Z" fill="#A3BAFF"/>
<path d="M96.7081 82.8804H117.941C119.011 82.8804 119.844 83.7641 119.844 84.9003V89.5714C119.844 90.7076 119.011 91.6545 117.941 91.6545H100.871C99.7672 91.6545 98.7082 92.12 97.9275 92.9486C97.1467 93.7773 96.7081 94.9012 96.7081 96.0731V104.532C96.7081 105.034 96.5201 105.515 96.1855 105.871C95.8508 106.226 95.397 106.425 94.9238 106.425H91.7716C91.2984 106.425 90.8445 106.226 90.5099 105.871C90.1753 105.515 89.9873 105.034 89.9873 104.532V85.4053C89.9873 84.7356 90.238 84.0934 90.6841 83.6199C91.1303 83.1464 91.7354 82.8804 92.3663 82.8804H96.7081Z" fill="#CAD9FF"/>
<path d="M97.3623 103.522V105.794C97.3623 107.183 98.9682 108.319 100.871 108.319H131.442V106.867C131.442 106.867 131.799 104.532 127.754 104.342H100.158C98.9087 104.342 97.7786 103.774 97.4218 103.017V103.522H97.3623Z" fill="#CAD9FF"/>
<path d="M104.023 90.6447C104.891 90.6447 105.723 90.2789 106.336 89.6278C106.95 88.9768 107.294 88.0937 107.294 87.1729C107.294 86.2522 106.95 85.3691 106.336 84.718C105.723 84.0669 104.891 83.7012 104.023 83.7012C103.156 83.7012 102.324 84.0669 101.71 84.718C101.097 85.3691 100.752 86.2522 100.752 87.1729C100.752 88.0937 101.097 88.9768 101.71 89.6278C102.324 90.2789 103.156 90.6447 104.023 90.6447Z" fill="#478482"/>
<path d="M104.082 85.216V84.2061V85.1529V85.216ZM101.287 87.236H102.179V87.1728H101.287V87.236ZM102.239 86.731V86.6047L101.406 86.4154H101.347V86.4785L102.239 86.731ZM102.417 86.226V86.1629L101.703 85.6579H101.644V85.7841L102.417 86.226ZM102.715 85.8473V85.721L102.12 85.0898L102.715 85.7841V85.8473ZM103.131 85.4685L102.715 84.5848L102.655 84.6479L103.071 85.4685H103.131ZM103.607 85.2792L103.369 84.3323H103.309L103.547 85.2792H103.607Z" fill="white"/>
<path d="M111.636 89.0034C111.863 89.2438 112.132 89.4344 112.428 89.5645C112.724 89.6946 113.041 89.7616 113.361 89.7616C113.681 89.7616 113.999 89.6946 114.295 89.5645C114.591 89.4344 114.859 89.2438 115.086 89.0034C115.312 88.763 115.492 88.4776 115.615 88.1635C115.737 87.8494 115.8 87.5128 115.8 87.1728C115.8 86.8328 115.737 86.4962 115.615 86.1821C115.492 85.868 115.312 85.5826 115.086 85.3422C114.628 84.8567 114.008 84.584 113.361 84.584C112.714 84.584 112.094 84.8567 111.636 85.3422C111.179 85.8277 110.922 86.4862 110.922 87.1728C110.922 87.8594 111.179 88.5179 111.636 89.0034Z" fill="#F2C1DD"/>
<path d="M111.577 89.0034C111.343 88.7547 111.157 88.4595 111.03 88.1346C110.903 87.8097 110.838 87.4614 110.838 87.1097C110.838 86.758 110.903 86.4098 111.03 86.0849C111.157 85.76 111.343 85.4647 111.577 85.216C111.811 84.9674 112.089 84.7701 112.396 84.6355C112.702 84.5009 113.03 84.4316 113.361 84.4316C113.693 84.4316 114.021 84.5009 114.327 84.6355C114.633 84.7701 114.911 84.9674 115.146 85.216C115.619 85.7183 115.885 86.3995 115.885 87.1097C115.885 87.82 115.619 88.5012 115.146 89.0034C114.672 89.5056 114.03 89.7878 113.361 89.7878C112.692 89.7878 112.05 89.5056 111.577 89.0034ZM111.636 85.3423C111.41 85.5785 111.229 85.8598 111.105 86.1701C110.981 86.4803 110.916 86.8135 110.913 87.1505C110.911 87.4876 110.97 87.8219 111.089 88.1344C111.208 88.4469 111.384 88.7315 111.607 88.9718C111.829 89.2122 112.094 89.4037 112.387 89.5354C112.679 89.6671 112.993 89.7364 113.31 89.7393C113.628 89.7423 113.943 89.6788 114.237 89.5525C114.532 89.4262 114.8 89.2397 115.027 89.0034C115.484 88.5263 115.744 87.8758 115.75 87.1952C115.755 86.5145 115.506 85.8593 115.056 85.3738C114.607 84.8883 113.994 84.6123 113.353 84.6064C112.711 84.6004 112.094 84.8652 111.636 85.3423Z" fill="#D87C36"/>
<path d="M111.042 89.6347C111.5 90.1183 112.083 90.447 112.717 90.5794C113.351 90.7118 114.008 90.6419 114.604 90.3786C115.201 90.1152 115.711 89.6702 116.069 89.0997C116.428 88.5292 116.619 87.8588 116.619 87.1729C116.619 86.4871 116.428 85.8167 116.069 85.2462C115.711 84.6757 115.201 84.2307 114.604 83.9673C114.008 83.704 113.351 83.6341 112.717 83.7665C112.083 83.8988 111.5 84.2276 111.042 84.7111C110.736 85.0338 110.493 85.4174 110.328 85.8398C110.162 86.2623 110.077 86.7154 110.077 87.1729C110.077 87.6305 110.162 88.0835 110.328 88.506C110.493 88.9285 110.736 89.3121 111.042 89.6347Z" fill="#A3BAFF"/>
<path d="M113.361 90.0764C114.086 90.0764 114.782 89.7704 115.295 89.2259C115.809 88.6814 116.097 87.9428 116.097 87.1727C116.097 86.4026 115.809 85.664 115.295 85.1195C114.782 84.575 114.086 84.269 113.361 84.269C112.635 84.269 111.939 84.575 111.426 85.1195C110.913 85.664 110.625 86.4026 110.625 87.1727C110.625 87.9428 110.913 88.6814 111.426 89.2259C111.939 89.7704 112.635 90.0764 113.361 90.0764Z" fill="#A3BAFF"/>
<path d="M114.67 85.2157L114.967 84.9001C114.967 84.837 114.967 84.837 114.967 84.9001L114.61 85.1526V85.2789L114.67 85.2157ZM113.242 84.9001V84.3951L113.183 84.332H113.123V84.837H113.242V84.9001ZM113.004 84.9001H113.064V84.3951H112.945V84.837L113.004 84.9001ZM111.815 85.4682C111.874 85.4682 111.874 85.4682 111.815 85.4682L111.577 85.0895H111.517V85.1526L111.815 85.4682ZM111.696 85.5945C111.755 85.5945 111.755 85.5945 111.696 85.5945L111.458 85.2157H111.398V85.2789L111.696 85.5945ZM111.577 85.7207L111.279 85.342C111.22 85.342 111.22 85.342 111.279 85.4051L111.517 85.7207H111.577ZM110.744 87.93L111.22 87.8038V87.7407L110.744 87.8038V87.8669V87.93ZM110.863 88.3088L111.279 88.0563V87.9932L110.863 88.2457V88.3088Z" fill="white"/>
<path d="M111.398 87.1094C111.398 87.383 111.449 87.6538 111.548 87.9066C111.646 88.1593 111.791 88.3889 111.973 88.5824C112.156 88.7758 112.372 88.9292 112.61 89.0339C112.848 89.1386 113.103 89.1925 113.361 89.1925C113.619 89.1925 113.874 89.1386 114.112 89.0339C114.35 88.9292 114.567 88.7758 114.749 88.5824C114.931 88.3889 115.076 88.1593 115.174 87.9066C115.273 87.6538 115.324 87.383 115.324 87.1094C115.324 86.557 115.117 86.0271 114.749 85.6365C114.381 85.2458 113.882 85.0264 113.361 85.0264C112.841 85.0264 112.341 85.2458 111.973 85.6365C111.605 86.0271 111.398 86.557 111.398 87.1094Z" fill="#478482"/>
<path d="M120.736 105.163V106.488C120.736 106.93 121.034 107.309 121.45 107.309H126.505C126.922 107.309 127.279 106.93 127.279 106.488V105.226H120.736V105.163Z" fill="#386866"/>
<path d="M120.677 105.226V105.163C120.677 104.721 121.034 104.342 121.45 104.342H126.505C126.922 104.342 127.279 104.721 127.279 105.163V105.226H120.677Z" fill="#386866"/>
<path d="M89.0352 81.744V83.5115C89.1198 83.0101 89.3697 82.5571 89.7401 82.2333C90.1106 81.9095 90.5775 81.7361 91.0573 81.744H123.234C126.802 81.744 130.133 83.0696 132.75 85.4683C132.307 84.2364 131.569 83.1485 130.609 82.3121C126.564 79.0298 120.498 79.0298 120.498 79.0298H92.3063C92.3063 79.0298 89.7489 78.7773 89.0352 81.744Z" fill="#CAD9FF"/>
<path d="M94.1498 94.8739H95.2798C95.6367 94.8739 95.8746 94.6214 95.8746 94.2427V93.0433C95.8746 92.7277 95.6367 92.4121 95.2798 92.4121H94.1498C93.9921 92.4121 93.8408 92.4786 93.7292 92.597C93.6177 92.7154 93.555 92.8759 93.555 93.0433V94.2427C93.555 94.6214 93.8524 94.8739 94.1498 94.8739ZM91.295 94.8739H92.425C92.7818 94.8739 93.0197 94.6214 93.0197 94.2427V93.0433C93.0197 92.7277 92.7818 92.4121 92.425 92.4121H91.295C91.1372 92.4121 90.9859 92.4786 90.8744 92.597C90.7629 92.7154 90.7002 92.8759 90.7002 93.0433V94.2427C90.7002 94.6214 90.9976 94.8739 91.295 94.8739ZM91.295 98.0301H95.2798C95.6367 98.0301 95.8746 97.7144 95.8746 97.3988V96.1364C95.8746 95.8208 95.6367 95.5051 95.2798 95.5051H91.295C91.1372 95.5051 90.9859 95.5716 90.8744 95.69C90.7629 95.8084 90.7002 95.969 90.7002 96.1364V97.3988C90.7002 97.7144 90.9381 98.0301 91.295 98.0301ZM91.5923 105.668H94.9825C95.5177 105.668 95.8746 105.226 95.8746 104.721V100.429C95.8746 99.9237 95.5177 99.4819 94.9825 99.4819H91.5923C91.0571 99.4819 90.7002 99.9237 90.7002 100.429V104.721C90.7002 105.226 91.0571 105.668 91.5923 105.668Z" fill="#A3BAFF"/>
<path d="M124.899 103.648L124.721 100.681H125.018L124.899 103.648Z" fill="#234140"/>
<path d="M125.018 100.744H122.877V101.186H125.018V100.744Z" fill="#386866"/>
<path d="M123.412 101.186H126.089C126.683 101.186 127.278 100.681 127.278 99.9238H124.126C123.709 99.9238 123.412 100.303 123.412 100.744V101.186Z" fill="#386866"/>
<path d="M125.791 101.186H125.969C126.683 101.186 127.218 100.555 127.218 99.7972V99.4185H125.791V101.186Z" fill="#386866"/>
<path d="M122.163 100.997C122.163 101.186 122.401 101.439 122.639 101.439C122.877 101.439 123.115 101.186 123.115 100.934C123.115 100.681 122.877 100.492 122.639 100.492C122.401 100.492 122.163 100.681 122.163 100.934V100.997Z" fill="#234140"/>
<path d="M125.732 100.997H124.066V102.953H125.732V100.997Z" fill="#386866"/>
<path d="M123.888 102.701H125.911C125.942 102.701 125.972 102.714 125.995 102.738C126.017 102.762 126.03 102.794 126.03 102.827C126.03 102.861 126.017 102.893 125.995 102.917C125.972 102.94 125.942 102.954 125.911 102.954H123.888C123.857 102.954 123.827 102.94 123.804 102.917C123.782 102.893 123.77 102.861 123.77 102.827C123.77 102.794 123.782 102.762 123.804 102.738C123.827 102.714 123.857 102.701 123.888 102.701Z" fill="#386866"/>
<path d="M125.078 80.3555V81.4917L124.423 81.9335L124.364 99.4186H123.888V80.3555H125.078ZM122.699 81.0498H122.282V99.2923H122.699V81.0498Z" fill="#386866"/>
<path d="M124.601 78.2725C124.958 78.2725 125.315 78.5881 125.315 78.9668C125.315 79.4087 124.958 79.7243 124.601 79.7243H124.482V81.0499H123.888V78.9668C123.888 78.5881 124.185 78.2725 124.601 78.2725ZM122.282 81.0499H122.639V79.9137C122.639 79.7874 122.579 79.7243 122.46 79.7243C122.401 79.7243 122.282 79.7874 122.282 79.9137V81.0499ZM125.494 104.595H123.947V104.784H125.494V104.595ZM125.494 105.037H123.947V105.226H125.494V105.037ZM125.494 105.415H123.947V105.605H125.494V105.415ZM125.494 105.857H123.947V106.047H125.494V105.857ZM121.628 105.037C121.675 105.037 121.72 105.017 121.754 104.981C121.787 104.946 121.806 104.897 121.806 104.847C121.806 104.797 121.787 104.749 121.754 104.713C121.72 104.678 121.675 104.658 121.628 104.658C121.58 104.658 121.535 104.678 121.501 104.713C121.468 104.749 121.449 104.797 121.449 104.847C121.449 104.897 121.468 104.946 121.501 104.981C121.535 105.017 121.58 105.037 121.628 105.037Z" fill="#234140"/>
<path d="M89.2138 114.189C89.3853 114.677 89.6945 115.096 90.099 115.39C90.5036 115.684 90.9837 115.838 91.4739 115.831H129.063C130.133 115.831 130.966 115.199 131.263 114.189C130.668 114.631 129.955 114.947 129.122 114.947H91.2954C90.5233 114.947 89.772 114.681 89.1543 114.189H89.2138Z" fill="#478482"/>
<path d="M89.0352 112.485V113.243C89.0352 113.558 89.0352 113.874 89.2136 114.19C89.8083 114.631 90.5221 114.947 91.3547 114.947H129.181C130.014 114.947 130.728 114.695 131.322 114.19C131.441 113.937 131.501 113.685 131.501 113.369V112.485H89.0352ZM92.0089 105.226H94.4475C94.9827 105.226 95.3991 104.784 95.3991 104.279V100.871C95.3991 100.366 94.9827 99.9238 94.4475 99.9238H92.0684C91.4737 99.9238 91.1168 100.366 91.1168 100.871V104.279C91.1168 104.784 91.5331 105.226 92.0089 105.226Z" fill="#CAD9FF"/>
<path d="M93.0801 103.269H93.3775V100.365H93.0801V103.206V103.269Z" fill="#315B59"/>
<path d="M91.7708 102.385H94.7446C94.923 102.385 95.1015 102.196 95.1015 101.944V101.312C95.1015 101.123 94.923 100.934 94.6851 100.934H91.7113C91.5329 100.934 91.3545 101.123 91.3545 101.375V101.944C91.3545 102.196 91.5329 102.385 91.7708 102.385Z" fill="#478482"/>
<path d="M91.295 81.1132H119.249C119.605 81.1132 119.843 80.7976 119.843 80.4819C119.843 80.0401 119.605 79.7876 119.249 79.7876H91.295C91.1372 79.7876 90.9859 79.8541 90.8744 79.9725C90.7629 80.0909 90.7002 80.2514 90.7002 80.4188C90.7002 80.7976 90.9381 81.0501 91.295 81.0501V81.1132Z" fill="#CAD9FF"/>
<path d="M98.1348 75.7475H98.908V73.4751C98.908 73.2226 98.7296 73.0332 98.4917 73.0332C98.3132 73.0332 98.1348 73.2226 98.1348 73.4751V75.7475ZM98.1348 80.1661H98.908V77.8937C98.908 77.6412 98.7296 77.4518 98.4917 77.4518C98.3132 77.4518 98.1348 77.6412 98.1348 77.8937V80.1661ZM93.3767 80.4186H94.0904V79.0299C94.0904 78.9211 94.0497 78.8167 93.9772 78.7398C93.9047 78.6628 93.8064 78.6196 93.7039 78.6196C93.6013 78.6196 93.503 78.6628 93.4305 78.7398C93.358 78.8167 93.3173 78.9211 93.3173 79.0299V80.4186H93.3767ZM92.0088 80.4186H92.782V78.083C92.782 77.8937 92.6035 77.7043 92.4251 77.7043C92.1872 77.7043 92.0088 77.8305 92.0088 78.083V80.4186Z" fill="#315B59"/>
<path d="M97.8379 80.0401H99.2653V72.4653H97.8379V80.0401Z" fill="#E0CDAA"/>
<path d="M100.038 73.0332H96.9453V79.4717H99.9191V73.0332H100.038Z" fill="#C6E0DF"/>
<path d="M97.0049 73.0332V73.6013L99.9787 74.99V73.7276L98.3133 73.0332H97.0049ZM97.0049 74.8006V76L99.9787 77.3887V76.1262L97.0049 74.8006ZM97.0049 77.1993V78.3355L99.3839 79.4717H99.9787V78.5249L97.0049 77.1993Z" fill="#8DC2C0"/>
<path d="M97.0049 80.608H100.038V80.103H97.0644V80.608H97.0049Z" fill="#315B59"/>
<path d="M123.055 91.2128C123.234 91.2128 123.353 91.0866 123.353 90.9603V87.6148C123.353 87.4886 123.234 87.3623 123.115 87.3623H123.055C122.877 87.3623 122.758 87.4886 122.758 87.6148V90.9603C122.758 91.0866 122.877 91.2128 123.055 91.2128Z" fill="#386866"/>
<path d="M122.758 88.1195H123.353V87.7407H122.758V88.1195ZM122.758 89.0032H123.353V88.6244H122.758V89.0032ZM122.758 89.95H123.353V89.5713H122.758V89.95ZM122.758 90.8969H123.353V90.455H122.758V90.8337V90.8969Z" fill="#234140"/>
<path d="M193.772 81.7443V113.306C193.772 113.975 194.023 114.618 194.469 115.091C194.915 115.565 195.521 115.831 196.151 115.831H233.859C234.48 115.831 235.076 115.574 235.521 115.114C235.965 114.654 236.223 114.028 236.238 113.369V108.761C236.238 108.761 236.536 105.289 232.491 104.974H204.894C204.147 104.974 203.43 104.663 202.897 104.109C202.363 103.554 202.055 102.799 202.04 102.007V96.1995C202.04 94.3689 203.408 92.9171 205.073 92.9171H222.44C223.386 92.9171 224.294 93.3161 224.963 94.0264C225.632 94.7367 226.008 95.7 226.008 96.7045V98.0932C226.008 98.8507 226.544 99.3556 227.198 99.3556H234.573C235.762 99.3556 236.892 98.535 237.249 97.2726C238.022 94.4321 239.034 89.3191 237.487 85.4686C237.011 84.2693 236.298 83.1962 235.346 82.3124C234.808 81.8574 234.206 81.4953 233.562 81.2394C227.436 78.5882 225.235 79.0301 225.235 79.0301H197.044C197.044 79.0301 194.486 78.7776 193.772 81.7443Z" fill="#A3BAFF"/>
<path d="M201.444 82.8804H222.677C223.748 82.8804 224.58 83.7641 224.58 84.9003V89.5714C224.58 90.7076 223.748 91.6545 222.677 91.6545H205.608C204.504 91.6545 203.445 92.12 202.664 92.9486C201.883 93.7773 201.444 94.9012 201.444 96.0731V104.532C201.444 105.034 201.256 105.515 200.922 105.871C200.587 106.226 200.133 106.425 199.66 106.425H196.508C196.035 106.425 195.581 106.226 195.246 105.871C194.912 105.515 194.724 105.034 194.724 104.532V85.4053C194.724 84.7356 194.974 84.0934 195.42 83.6199C195.867 83.1464 196.472 82.8804 197.103 82.8804H201.444Z" fill="#CAD9FF"/>
<path d="M202.099 103.522V105.794C202.099 107.183 203.704 108.319 205.608 108.319H236.119V106.867C236.119 106.867 236.476 104.532 232.431 104.342H204.894C203.645 104.342 202.515 103.774 202.158 103.017V103.522H202.099Z" fill="#CAD9FF"/>
<path d="M208.76 90.6447C209.628 90.6447 210.46 90.2789 211.074 89.6278C211.687 88.9768 212.032 88.0937 212.032 87.1729C212.032 86.2522 211.687 85.3691 211.074 84.718C210.46 84.0669 209.628 83.7012 208.76 83.7012C207.893 83.7012 207.061 84.0669 206.447 84.718C205.834 85.3691 205.489 86.2522 205.489 87.1729C205.489 88.0937 205.834 88.9768 206.447 89.6278C207.061 90.2789 207.893 90.6447 208.76 90.6447Z" fill="#478482"/>
<path d="M208.82 85.216V84.2061V85.1529V85.216ZM206.024 87.236H206.917V87.1728H206.024V87.236ZM206.976 86.731V86.6047L206.143 86.4154H206.084L206.976 86.731ZM207.154 86.226V86.1629L206.441 85.6579H206.381V85.7841L207.154 86.226ZM207.452 85.8473V85.721L206.857 85.0898C206.798 85.0898 206.798 85.0898 206.857 85.0898L207.452 85.7841V85.8473ZM207.868 85.4685L207.452 84.5848H207.392V84.6479L207.809 85.4685H207.868ZM208.285 85.2792L208.106 84.3323H208.047L208.285 85.2792Z" fill="white"/>
<path d="M216.313 89.0034C216.771 89.4889 217.391 89.7616 218.038 89.7616C218.685 89.7616 219.305 89.4889 219.763 89.0034C220.22 88.5179 220.477 87.8594 220.477 87.1728C220.477 86.4862 220.22 85.8277 219.763 85.3422C219.536 85.1018 219.267 84.9112 218.971 84.7811C218.675 84.651 218.358 84.584 218.038 84.584C217.718 84.584 217.4 84.651 217.104 84.7811C216.808 84.9112 216.54 85.1018 216.313 85.3422C216.087 85.5826 215.907 85.868 215.784 86.1821C215.662 86.4962 215.599 86.8328 215.599 87.1728C215.599 87.5128 215.662 87.8494 215.784 88.1635C215.907 88.4776 216.087 88.763 216.313 89.0034Z" fill="#F2C1DD"/>
<path d="M216.313 89.0034C216.079 88.7547 215.893 88.4595 215.766 88.1346C215.639 87.8097 215.574 87.4614 215.574 87.1097C215.574 86.758 215.639 86.4098 215.766 86.0849C215.893 85.76 216.079 85.4647 216.313 85.216C216.548 84.9674 216.826 84.7701 217.132 84.6355C217.438 84.5009 217.766 84.4316 218.098 84.4316C218.429 84.4316 218.757 84.5009 219.063 84.6355C219.369 84.7701 219.648 84.9674 219.882 85.216C220.355 85.7183 220.621 86.3995 220.621 87.1097C220.621 87.82 220.355 88.5012 219.882 89.0034C219.409 89.5056 218.767 89.7878 218.098 89.7878C217.428 89.7878 216.787 89.5056 216.313 89.0034ZM216.373 85.3423C215.915 85.8194 215.655 86.4699 215.65 87.1505C215.644 87.8312 215.893 88.4864 216.343 88.9718C216.793 89.4573 217.405 89.7334 218.047 89.7393C218.688 89.7453 219.305 89.4805 219.763 89.0034C220.22 88.5263 220.48 87.8758 220.486 87.1952C220.492 86.5145 220.242 85.8593 219.793 85.3738C219.343 84.8883 218.73 84.6123 218.089 84.6064C217.448 84.6004 216.83 84.8652 216.373 85.3423Z" fill="#D87C36"/>
<path d="M215.778 89.6347C216.236 90.1183 216.819 90.447 217.453 90.5794C218.087 90.7118 218.744 90.6419 219.34 90.3786C219.937 90.1152 220.447 89.6702 220.806 89.0997C221.164 88.5292 221.356 87.8588 221.356 87.1729C221.356 86.4871 221.164 85.8167 220.806 85.2462C220.447 84.6757 219.937 84.2307 219.34 83.9673C218.744 83.704 218.087 83.6341 217.453 83.7665C216.819 83.8988 216.236 84.2276 215.778 84.7111C215.178 85.3601 214.843 86.2326 214.843 87.1414C214.843 88.0501 215.178 88.9226 215.778 89.5716V89.6347Z" fill="#A3BAFF"/>
<path d="M218.098 90.0764C218.824 90.0764 219.52 89.7704 220.033 89.2259C220.546 88.6814 220.834 87.9428 220.834 87.1727C220.834 86.4026 220.546 85.664 220.033 85.1195C219.52 84.575 218.824 84.269 218.098 84.269C217.373 84.269 216.677 84.575 216.164 85.1195C215.651 85.664 215.362 86.4026 215.362 87.1727C215.362 87.9428 215.651 88.6814 216.164 89.2259C216.677 89.7704 217.373 90.0764 218.098 90.0764Z" fill="#A3BAFF"/>
<path d="M219.406 85.2157L219.703 84.9001C219.703 84.837 219.703 84.837 219.703 84.9001L219.346 85.1526V85.2157H219.406ZM217.978 84.9001V84.3951L217.919 84.332H217.86V84.837H217.978V84.9001ZM217.8 84.9001V84.3951H217.681V84.837L217.741 84.9001H217.8ZM216.551 85.4682C216.611 85.4682 216.611 85.4682 216.551 85.4682L216.313 85.0895H216.254V85.1526L216.551 85.4682ZM216.492 85.5945L216.194 85.2157H216.075V85.2789L216.432 85.5945H216.492ZM216.313 85.7207L216.016 85.342C215.956 85.342 215.956 85.342 216.016 85.4051L216.254 85.7207H216.313ZM215.48 87.93L215.956 87.8038V87.7407H215.897L215.48 87.8038V87.8669V87.93ZM215.599 88.3088L216.016 88.0563V87.9932H215.956L215.54 88.1825V88.3088H215.599Z" fill="white"/>
<path d="M215.956 88.0563H216.016V87.9932H215.54H215.956V88.0563Z" fill="white"/>
<path d="M216.075 87.1097C216.075 87.6706 216.285 88.2084 216.659 88.605C217.032 89.0016 217.539 89.2244 218.068 89.2244C218.596 89.2244 219.103 89.0016 219.477 88.605C219.85 88.2084 220.06 87.6706 220.06 87.1097C220.06 86.5489 219.85 86.011 219.477 85.6145C219.103 85.2179 218.596 84.9951 218.068 84.9951C217.539 84.9951 217.032 85.2179 216.659 85.6145C216.285 86.011 216.075 86.5489 216.075 87.1097Z" fill="#478482"/>
<path d="M225.413 105.163V106.488C225.413 106.93 225.77 107.309 226.186 107.309H231.242C231.658 107.309 232.015 106.93 232.015 106.488V105.226H225.413V105.163Z" fill="#386866"/>
<path d="M225.413 105.226V105.163C225.413 104.721 225.77 104.342 226.186 104.342H231.242C231.658 104.342 232.015 104.721 232.015 105.163V105.226H225.413Z" fill="#386866"/>
<path d="M193.772 81.744V83.5115C193.857 83.0101 194.107 82.5571 194.477 82.2333C194.848 81.9095 195.315 81.7361 195.795 81.744H227.912C231.438 81.7336 234.853 83.0536 237.547 85.4683C237.087 84.2293 236.328 83.1406 235.346 82.3121C231.302 79.0298 225.235 79.0298 225.235 79.0298H197.044C197.044 79.0298 194.486 78.7773 193.772 81.744Z" fill="#CAD9FF"/>
<path d="M198.887 94.8739H200.017C200.374 94.8739 200.612 94.6214 200.612 94.2427V93.0433C200.612 92.7277 200.374 92.4121 200.017 92.4121H198.887C198.729 92.4121 198.578 92.4786 198.467 92.597C198.355 92.7154 198.292 92.8759 198.292 93.0433V94.2427C198.292 94.6214 198.59 94.8739 198.887 94.8739ZM196.032 94.8739H197.162C197.519 94.8739 197.757 94.6214 197.757 94.2427V93.0433C197.757 92.7277 197.519 92.4121 197.162 92.4121H196.032C195.875 92.4121 195.723 92.4786 195.612 92.597C195.5 92.7154 195.438 92.8759 195.438 93.0433V94.2427C195.438 94.6214 195.735 94.8739 196.032 94.8739ZM196.032 98.0301H200.017C200.374 98.0301 200.612 97.7144 200.612 97.3988V96.1364C200.612 95.8208 200.374 95.5051 200.017 95.5051H196.032C195.875 95.5051 195.723 95.5716 195.612 95.69C195.5 95.8084 195.438 95.969 195.438 96.1364V97.3988C195.438 97.7144 195.675 98.0301 196.032 98.0301ZM196.27 105.668H199.72C200.196 105.668 200.612 105.226 200.612 104.721V100.429C200.612 99.9237 200.196 99.4819 199.72 99.4819H196.33C195.794 99.4819 195.438 99.9237 195.438 100.429V104.721C195.438 105.226 195.794 105.668 196.33 105.668H196.27Z" fill="#A3BAFF"/>
<path d="M229.577 103.648L229.458 100.681H229.755L229.636 103.648C229.636 103.648 229.577 103.711 229.577 103.648Z" fill="#234140"/>
<path d="M229.755 100.744H227.555V101.186H229.755V100.744Z" fill="#386866"/>
<path d="M228.149 101.186H230.826C231.421 101.186 232.015 100.681 232.015 99.9238H228.863C228.447 99.9238 228.149 100.303 228.149 100.744V101.186Z" fill="#386866"/>
<path d="M230.528 101.186H230.707C231.42 101.186 231.956 100.555 231.956 99.7972V99.4185H230.528V101.186Z" fill="#386866"/>
<path d="M226.9 100.997C226.9 101.186 227.138 101.439 227.376 101.439C227.614 101.439 227.852 101.186 227.852 100.934C227.852 100.681 227.614 100.492 227.376 100.492C227.138 100.492 226.9 100.681 226.9 100.934V100.997Z" fill="#234140"/>
<path d="M230.469 100.997H228.804V102.953H230.469V100.997Z" fill="#386866"/>
<path d="M228.625 102.701H230.647C230.679 102.701 230.709 102.714 230.731 102.738C230.753 102.762 230.766 102.794 230.766 102.827C230.766 102.861 230.753 102.893 230.731 102.917C230.709 102.94 230.679 102.954 230.647 102.954H228.625C228.593 102.954 228.563 102.94 228.541 102.917C228.518 102.893 228.506 102.861 228.506 102.827C228.506 102.794 228.518 102.762 228.541 102.738C228.563 102.714 228.593 102.701 228.625 102.701Z" fill="#386866"/>
<path d="M229.755 80.3555V81.4917L229.161 81.9335L229.101 99.4186H228.625V80.3555H229.815H229.755ZM227.436 81.0498H227.02V99.2923H227.436V81.0498Z" fill="#386866"/>
<path d="M229.339 78.2725C229.696 78.2725 229.993 78.5881 229.993 78.9668C229.993 79.4087 229.696 79.7243 229.339 79.7243H229.22V81.0499H228.625V78.9668C228.625 78.5881 228.922 78.2725 229.339 78.2725ZM227.019 81.0499H227.376V79.9137C227.376 79.7874 227.317 79.7243 227.198 79.7243C227.079 79.7243 227.019 79.7874 227.019 79.9137V81.0499ZM230.171 104.595H228.685V104.784H230.231V104.595H230.171ZM230.171 105.037H228.685V105.226H230.231V105.037H230.171ZM230.171 105.415H228.685V105.605H230.231V105.415H230.171ZM230.171 105.857H228.685V106.047H230.231V105.857H230.171ZM226.365 105.037C226.412 105.037 226.458 105.017 226.491 104.981C226.525 104.946 226.543 104.897 226.543 104.847C226.543 104.797 226.525 104.749 226.491 104.713C226.458 104.678 226.412 104.658 226.365 104.658C226.318 104.658 226.272 104.678 226.239 104.713C226.205 104.749 226.187 104.797 226.187 104.847C226.187 104.897 226.205 104.946 226.239 104.981C226.272 105.017 226.318 105.037 226.365 105.037Z" fill="#234140"/>
<path d="M193.892 114.189C194.066 114.687 194.385 115.114 194.801 115.408C195.218 115.703 195.711 115.851 196.211 115.831H233.859C234.93 115.831 235.763 115.199 236.06 114.189C235.465 114.631 234.692 114.947 233.919 114.947H196.092C195.3 114.961 194.526 114.694 193.892 114.189Z" fill="#478482"/>
<path d="M193.772 112.485V113.243C193.772 113.558 193.772 113.874 193.891 114.19C194.486 114.631 195.259 114.947 196.092 114.947H233.919C234.692 114.947 235.465 114.695 236.06 114.19C236.179 113.937 236.238 113.685 236.238 113.369V112.485H193.772ZM196.746 105.226H199.185C199.72 105.226 200.136 104.784 200.136 104.279V100.871C200.136 100.366 199.72 99.9238 199.185 99.9238H196.746C196.211 99.9238 195.795 100.366 195.795 100.871V104.279C195.795 104.784 196.211 105.226 196.746 105.226Z" fill="#CAD9FF"/>
<path d="M197.816 103.269H198.114V100.365H197.816V103.206V103.269Z" fill="#315B59"/>
<path d="M196.508 102.385H199.482C199.66 102.385 199.839 102.196 199.839 101.944V101.312C199.839 101.123 199.66 100.934 199.422 100.934H196.449C196.27 100.934 196.092 101.123 196.092 101.375V101.944C196.092 102.196 196.27 102.385 196.508 102.385Z" fill="#478482"/>
<path d="M196.032 81.1132H223.986C224.343 81.1132 224.581 80.7976 224.581 80.4819C224.581 80.0401 224.343 79.7876 223.986 79.7876H196.032C195.875 79.7876 195.723 79.8541 195.612 79.9725C195.5 80.0909 195.438 80.2514 195.438 80.4188C195.438 80.7976 195.675 81.0501 196.032 81.0501V81.1132Z" fill="#CAD9FF"/>
<path d="M202.813 75.7477H203.645V73.4752C203.645 73.3664 203.605 73.2621 203.532 73.1851C203.46 73.1082 203.361 73.0649 203.259 73.0649C203.156 73.0649 203.058 73.1082 202.985 73.1851C202.913 73.2621 202.872 73.3664 202.872 73.4752V75.7477H202.813ZM202.813 80.1663H203.645V77.8938C203.645 77.785 203.605 77.6807 203.532 77.6037C203.46 77.5268 203.361 77.4835 203.259 77.4835C203.156 77.4835 203.058 77.5268 202.985 77.6037C202.913 77.6807 202.872 77.785 202.872 77.8938V80.1663H202.813ZM198.055 80.4188H198.828V79.0301C198.828 78.8407 198.649 78.6513 198.471 78.6513C198.233 78.6513 198.055 78.7776 198.055 79.0301V80.4188ZM196.746 80.4188H197.519V78.0832C197.519 77.8938 197.341 77.7045 197.103 77.7045C196.925 77.7045 196.746 77.8307 196.746 78.0832V80.4188Z" fill="#315B59"/>
<path d="M202.574 80.0401H203.942V72.4653H202.574V80.0401Z" fill="#E0CDAA"/>
<path d="M204.775 73.0332H201.742V79.4717H204.716V73.0332H204.775Z" fill="#C6E0DF"/>
<path d="M201.742 73.0332V73.6013L204.716 74.99V73.7276L203.051 73.0332H201.742ZM201.742 74.8006V76L204.716 77.3887V76.1262L201.742 74.8006ZM201.742 77.1993V78.3355L204.121 79.4717H204.716V78.5249L201.742 77.1993Z" fill="#8DC2C0"/>
<path d="M201.742 80.608H204.716V80.103H201.742V80.608Z" fill="#315B59"/>
<path d="M227.792 91.2128C227.971 91.2128 228.09 91.0866 228.09 90.9603V87.6148C228.09 87.4886 227.971 87.3623 227.852 87.3623H227.792C227.614 87.3623 227.495 87.4886 227.495 87.6148V90.9603C227.495 91.0866 227.614 91.2128 227.792 91.2128Z" fill="#386866"/>
<path d="M227.495 88.1195H228.09V87.7407H227.495V88.1195ZM227.495 89.0032H228.09V88.6244H227.495V89.0032ZM227.495 89.95H228.09V89.5713H227.495V89.95ZM227.495 90.8969H228.09V90.455H227.495V90.8337V90.8969Z" fill="#234140"/>
<path d="M30.0355 81.1763L29.976 81.1131L27.7754 72.0866L27.8349 72.0234H27.9538L30.0949 81.05V81.1763H30.0355Z" fill="#1C3433"/>
<path d="M50.3162 80.3557L50.1973 80.2294L51.2678 72.0234H51.3868L51.4463 72.0866L50.3757 80.2925H50.3162V80.3557Z" fill="#3F6362"/>
<path d="M43.7743 80.2923H43.6553L43.0605 72.0232V71.897C43.12 71.897 43.1795 71.897 43.1795 72.0232L43.8337 80.2292V80.2923H43.7743Z" fill="#8DC2C0"/>
<path d="M34.7342 80.0401L34.6152 79.9769L36.1616 72.0866L36.2806 72.0234V72.0866L34.7937 79.9769L34.7342 80.0401Z" fill="#57A19E"/>
<path d="M39.9081 69.6245H39.2539V85.9102H39.9676V69.6245H39.9081Z" fill="#234140"/>
<path d="M56.2638 88.4351H48.413C47.8182 88.4351 47.2829 89.0032 47.2829 89.6975V90.0131C47.2829 90.6444 47.8182 91.2756 48.4724 91.2756H56.2043C56.918 91.2756 57.3938 90.6444 57.3938 90.0131V89.6975C57.3938 89.3627 57.2685 89.0416 57.0454 88.8048C56.8223 88.5681 56.5198 88.4351 56.2043 88.4351H56.2638ZM32.1166 88.4351H24.2658C23.671 88.4351 23.1357 89.0032 23.1357 89.6975V90.0131C23.1357 90.6444 23.671 91.2756 24.3253 91.2756H32.0571C32.7708 91.2756 33.2466 90.6444 33.2466 90.0131V89.6975C33.2466 89.3627 33.1213 89.0416 32.8982 88.8048C32.6751 88.5681 32.3726 88.4351 32.0571 88.4351H32.1166Z" fill="#A3BAFF"/>
<path d="M51.0893 77.7041H49.543V89.5081H51.0299V77.7041H51.0893Z" fill="#CAD9FF"/>
<path d="M52.9332 89.1928H47.5804C47.402 89.1928 47.283 89.0034 47.1641 88.814V87.1097H47.2235V86.7941L47.402 85.0898L47.4614 84.2692V83.7642L47.5209 83.4486V83.3223L47.7588 81.113V80.1662L47.8778 79.1562L47.9372 78.4619C47.9372 78.3356 47.9372 78.2725 48.0562 78.2094C48.1157 78.0831 48.2346 78.02 48.3536 78.02H52.3385C52.5169 78.02 52.6358 78.1463 52.6953 78.3988V78.4619L52.8143 79.4087V80.3556L52.9332 81.3024L52.9927 82.2493V82.5017L53.0522 82.8174V83.3855L53.2306 84.7742V85.9735L53.2901 86.2891V86.5416L53.3495 86.8572L53.4685 88.3091C53.4685 88.7509 53.2901 89.1297 53.0522 89.1297H52.9332V89.1928Z" fill="#234140"/>
<path d="M53.171 85.7209L47.2234 88.8139C47.1045 88.6245 47.1045 88.4983 47.1045 88.3089L47.2234 87.0465L53.1116 84.8372L53.171 85.7209ZM52.9331 82.2491L47.4019 85.0897V84.2691L47.4614 83.9534V83.3222L52.8142 81.3023L52.9331 82.2491ZM52.6357 78.3986L47.6993 80.9235V80.5448L47.7587 80.2292L47.8182 79.2192L50.9704 78.083H52.2194C52.3978 78.083 52.5763 78.2093 52.6357 78.4617V78.3986Z" fill="#3F6362"/>
<path d="M52.7548 79.7875L48.7699 78.02H49.5431L52.6953 79.4718V79.7875H52.7548ZM52.7548 80.3556L47.9967 78.2094C48.0562 78.1463 48.1751 78.02 48.2941 78.02L52.7548 80.04V80.3556ZM52.9332 82.8805L47.7588 80.5449V80.2293L52.9332 82.5649V82.8805ZM52.9927 83.4486L47.6399 81.113L47.6993 80.7343L52.9927 83.0699V83.4486ZM53.2306 86.3522L47.4614 83.8273V83.4486L53.1711 85.9735V86.3522H53.2306ZM53.2901 86.9204L47.4614 84.2692V83.9536L53.2306 86.5416V86.9204H53.2901ZM52.5764 89.1928H51.8626L47.2235 87.1097V86.7941L52.5764 89.1297V89.1928ZM51.3274 89.1928H50.6137L47.1641 87.6147V87.2991L51.3274 89.1928Z" fill="#3F6362"/>
<path d="M44.0718 77.7041H42.5254V89.5081H44.0123L44.0718 77.7041Z" fill="#CAD9FF"/>
<path d="M45.9152 89.1926H40.5624C40.3839 89.1926 40.265 89.0033 40.2055 88.8139C40.1631 88.7387 40.1359 88.655 40.1257 88.5681C40.1154 88.4811 40.1224 88.3929 40.146 88.3089V87.6777L40.2055 87.299V87.1096L40.265 86.794L40.3839 85.0897L40.4434 84.2691V83.7641L40.5624 83.4485V83.3222L40.7408 81.1129V80.5448L40.8003 80.2292L40.8597 79.2192L40.9192 78.5249L41.0382 78.2724C41.0976 78.1461 41.2166 78.083 41.3355 78.083H45.2609C45.4394 78.083 45.6178 78.2093 45.6773 78.4617V78.5249L45.7368 79.4717V80.0398L45.7962 80.4186L45.8557 81.3654L45.9152 82.2491V82.5647L45.9747 82.8804V83.1328L46.0341 83.4485L46.1531 84.8372V86.0365L46.272 86.3521V86.9202L46.391 88.372C46.391 88.8139 46.2126 89.1926 45.9747 89.1926H45.9152Z" fill="#8DC2C0"/>
<path d="M46.1528 85.7209L40.2052 88.8139C40.1457 88.6245 40.0863 88.4983 40.1457 88.3089L40.2052 87.0465L46.0933 84.8372L46.1528 85.7209ZM45.9149 82.2491L40.3836 85.0897L40.4431 84.2691V83.7641L40.5026 83.4485V83.3222L45.8554 81.3023L45.9149 82.2491ZM45.6175 78.3986L40.681 80.9235V80.5448L40.7405 80.2292L40.8594 79.2192L43.9522 78.083H45.2012C45.3796 78.083 45.558 78.2093 45.6175 78.4617V78.3986Z" fill="#C6E0DF"/>
<path d="M45.7373 79.7875L41.8119 78.02H42.5256L45.7968 79.535V79.8506L45.7373 79.7875ZM45.7968 80.3556L41.0387 78.2094C41.0387 78.1463 41.2171 78.02 41.3361 78.02L45.7373 80.04V80.3556H45.7968ZM45.9752 82.8805L40.7413 80.5449V80.2293L45.9157 82.5649V82.8805H45.9752ZM45.9752 83.4486L40.6819 81.113V80.7343L45.9752 83.0699V83.4486ZM46.2131 86.3522L40.5034 83.8273V83.4486L46.2131 85.9735V86.3522ZM46.2726 86.9204L40.444 84.2692V83.9536L46.2131 86.5416V86.9204H46.2726ZM45.5589 89.1297H44.8452L40.2061 87.1097V86.7941L45.5589 89.1297ZM44.3694 89.1928H43.5962L40.2061 87.6147V87.2991L44.3694 89.1928Z" fill="#8DC2C0"/>
<path d="M37.0532 77.7042H35.5068V89.5082H37.0532V77.6411V77.7042Z" fill="#CAD9FF"/>
<path d="M38.8971 89.1926H33.5443C33.3658 89.1926 33.2469 89.0033 33.1874 88.8139L33.1279 88.3089V87.6777L33.1874 87.299V86.794L33.3658 85.0897L33.4253 84.2691V83.7641L33.5443 83.4485V83.3222L33.7227 81.1129V80.5448L33.7822 80.2292L33.8416 79.2192L33.9011 78.5249L34.0201 78.2724C34.0795 78.1461 34.1985 78.083 34.3174 78.083H38.2429C38.4213 78.083 38.5997 78.2093 38.6592 78.4617V78.5249L38.7187 79.4717V80.0398L38.7781 80.4186L38.8376 81.3654L38.8971 82.2491V82.5647L38.9566 82.8804V83.1328L39.016 83.4485L39.135 84.8372V86.0365L39.2539 86.3521V86.9202L39.3729 88.372C39.3729 88.8139 39.1945 89.1926 38.9566 89.1926H38.8971Z" fill="#71B2B0"/>
<path d="M39.135 85.7209L33.1874 88.8139L33.1279 88.3089L33.1874 87.0465L39.135 84.8372V85.7209ZM38.8971 82.2491L33.3658 85.0897L33.4253 84.2691V83.7641L33.4848 83.4485V83.3222L38.8376 81.3023L38.8971 82.2491ZM38.6592 78.3986L33.7227 80.9235V80.2292L33.8416 79.2192L36.9344 78.083H38.2429C38.4213 78.083 38.5402 78.2093 38.5997 78.4617L38.6592 78.3986Z" fill="#57A19E"/>
<path d="M38.7187 79.7875L34.7933 78.02H35.5665L38.6593 79.535V79.8506L38.7187 79.7875ZM38.7782 80.3556L34.0202 78.2094C34.0796 78.1463 34.1986 78.02 34.3175 78.02L38.7187 80.04V80.3556H38.7782ZM38.9567 82.8805L33.7228 80.5449V80.2293L38.8972 82.5649V82.8805H38.9567ZM39.0161 83.4486L33.6633 81.113V80.7343L39.0161 83.0699V83.4486ZM39.254 86.3522L33.4849 83.8273V83.4486L39.1946 85.9735V86.3522H39.254ZM39.254 86.9204L33.4254 84.2692V83.9536L39.254 86.5416V86.9204ZM38.5403 89.1928H37.8266L33.1875 87.1097V86.7941L38.5403 89.1297V89.1928ZM37.3508 89.1928H36.5776L33.1875 87.6147V87.2991L37.3508 89.1928Z" fill="#57A19E"/>
<path d="M30.0357 77.7041H28.5488V89.5081H30.0952V77.7041H30.0357Z" fill="#CAD9FF"/>
<path d="M31.8787 89.1926H26.5259C26.4069 89.1926 26.2285 89.0033 26.169 88.8139C26.169 88.6877 26.1095 88.4983 26.169 88.3089V87.1096H26.2285V86.794L26.4069 85.0897V84.2691L26.4664 83.9534V83.7641L26.5259 83.4485V83.3222L26.7043 81.1129V80.5448L26.7638 80.2292L26.8827 79.2192V78.5249L27.0017 78.2724L27.3585 78.083H31.2839C31.4624 78.083 31.5813 78.2093 31.6408 78.4617V78.5249L31.7003 79.4717V80.0398L31.8192 80.4186V81.3654L31.9382 82.3122V83.1328L32.0571 83.4485L32.1166 84.8372L32.1761 85.784V86.0365L32.2355 86.3521V86.9202L32.414 88.372C32.414 88.8139 32.2355 89.1926 31.9382 89.1926H31.8787Z" fill="#386866"/>
<path d="M32.1166 85.7209L26.169 88.8139C26.169 88.6245 26.1095 88.4983 26.169 88.3089V87.0465L32.1166 84.8372V85.7209ZM31.8787 82.2491L26.3474 85.0897L26.4069 84.2691V83.9534L26.4664 83.7641V83.3222L31.8192 81.3023L31.8787 82.2491ZM31.5813 78.3986L26.7043 80.9235V80.2292L26.8232 79.2192L29.916 78.083H31.2245C31.4029 78.083 31.5218 78.2093 31.5813 78.4617V78.3986Z" fill="#1C3433"/>
<path d="M31.7002 79.7875L27.7748 78.02H28.548L31.7002 79.4718V79.7875ZM31.7597 80.3556L27.0016 78.2094C27.0611 78.1463 27.18 78.02 27.299 78.02L31.7002 80.04V80.3556H31.7597ZM31.9381 82.8805L26.7637 80.5449V80.2293L31.9381 82.5649V82.8805ZM31.9976 83.4486L26.6448 81.113L26.7042 80.7343L31.9381 83.0699V83.4486H31.9976ZM32.2355 86.3522L26.4663 83.8273V83.4486L32.176 85.9735V86.3522H32.2355ZM32.2355 86.9204L26.4068 84.2692V83.9536L32.2355 86.5416V86.9204ZM31.5218 89.1928H30.8081L26.2284 87.1097V86.7941L31.5812 89.1297L31.5218 89.1928ZM30.3323 89.1928H29.6185L26.1689 87.6147V87.2991L30.3323 89.1928Z" fill="#1C3433"/>
<path d="M53.0527 95.3157V99.1662L50.5547 99.3556V95.1895L53.0527 95.3157Z" fill="#A3BAFF"/>
<path d="M53.052 95.5048V96.0729H52.1598C52.1152 96.0739 52.071 96.0642 52.0304 96.0445C51.9898 96.0249 51.9539 95.9958 51.9254 95.9594C51.8968 95.923 51.8763 95.8803 51.8654 95.8344C51.8546 95.7885 51.8535 95.7406 51.8625 95.6942C51.8625 95.631 51.8625 95.5048 51.9814 95.5048C51.9814 95.4417 52.1004 95.3785 52.1598 95.4417H53.052V95.5048ZM53.052 96.8935V97.5247H52.1598C52.081 97.5247 52.0053 97.4915 51.9496 97.4323C51.8938 97.3731 51.8625 97.2928 51.8625 97.2091C51.8625 97.1254 51.8938 97.0451 51.9496 96.9859C52.0053 96.9268 52.081 96.8935 52.1598 96.8935H53.052ZM53.052 98.4084V98.9766H52.1598C51.9814 98.9766 51.8625 98.9134 51.8625 98.7241C51.8625 98.6609 51.8625 98.5978 51.9814 98.5347L52.1598 98.4084H53.052Z" fill="#B8D0FF"/>
<path d="M53.0527 102.259V106.173L50.5547 106.299V102.133L53.0527 102.259Z" fill="#A3BAFF"/>
<path d="M53.052 102.448V103.016H52.1598C52.1152 103.017 52.071 103.008 52.0304 102.988C51.9898 102.968 51.9539 102.939 51.9254 102.903C51.8968 102.867 51.8763 102.824 51.8654 102.778C51.8546 102.732 51.8535 102.684 51.8625 102.638C51.8625 102.575 51.8625 102.512 51.9814 102.448L52.1598 102.385H53.052V102.448ZM53.052 103.9V104.531H52.1598C52.1152 104.532 52.071 104.523 52.0304 104.503C51.9898 104.483 51.9539 104.454 51.9254 104.418C51.8968 104.382 51.8763 104.339 51.8654 104.293C51.8546 104.247 51.8535 104.199 51.8625 104.153C51.8625 104.09 51.8625 104.026 51.9814 103.963L52.1598 103.9H53.052ZM53.052 105.352V105.92H52.1598C51.9814 105.92 51.8625 105.857 51.8625 105.668C51.8625 105.605 51.8625 105.541 51.9814 105.478L52.1598 105.352H53.052Z" fill="#B8D0FF"/>
<path d="M33.1872 114.884H29.0833C28.9049 114.884 28.667 115.073 28.667 115.326V115.768C28.667 116.02 28.9049 116.209 29.0833 116.209H33.1872C33.3656 116.209 33.6035 116.02 33.6035 115.768V115.326C33.6035 115.073 33.3656 114.884 33.1872 114.884ZM50.0783 114.884H46.0339C45.796 114.884 45.6176 115.073 45.6176 115.326V115.768C45.6176 116.02 45.796 116.209 46.0339 116.209H50.0783C50.3162 116.209 50.4946 116.02 50.4946 115.768V115.326C50.4946 115.073 50.3162 114.884 50.0783 114.884Z" fill="#478482"/>
<path d="M44.1904 82.4385H28.1914V95.8837H44.1904V82.4385Z" fill="#CAD9FF"/>
<path d="M32.7709 90.5815H34.1983C34.793 90.5815 35.2094 91.0865 35.2094 91.6546V95.8839H31.7598V91.6546C31.7598 91.0234 32.2356 90.5815 32.7709 90.5815Z" fill="#A3BAFF"/>
<path d="M50.9706 96.957H28.1914V115.136H50.9706V96.957Z" fill="#CAD9FF"/>
<path d="M49.7219 110.276H47.5808C47.1312 110.276 46.7001 110.465 46.3822 110.803C46.0643 111.14 45.8857 111.598 45.8857 112.075C45.8857 112.552 46.0643 113.01 46.3822 113.347C46.7001 113.684 47.1312 113.874 47.5808 113.874H49.6625V110.276H49.7219Z" fill="#A3BAFF"/>
<path d="M49.5438 110.718H47.819C47.4404 110.718 47.0774 110.877 46.8097 111.162C46.542 111.446 46.3916 111.831 46.3916 112.233C46.3916 112.635 46.542 113.02 46.8097 113.304C47.0774 113.588 47.4404 113.748 47.819 113.748H49.6033V110.718H49.5438Z" fill="#478482"/>
<path d="M36.2801 100.555H28.1914V112.106H36.2801V100.555Z" fill="#A3BAFF"/>
<path d="M23.1357 96.957H29.678V108.572H22.2435C21.3287 108.572 20.4512 108.186 19.8043 107.499C19.1574 106.813 18.7939 105.882 18.7939 104.911V101.565C18.7939 99.0401 20.6972 96.957 23.1357 96.957Z" fill="#A3BAFF"/>
<path d="M28.4295 108.571H22.2441C21.786 108.571 21.3325 108.475 20.9101 108.287C20.4876 108.099 20.1047 107.824 19.7835 107.477C19.4624 107.13 19.2096 106.719 19.0398 106.268C18.87 105.816 18.7866 105.333 18.7945 104.847H28.4295C29.1432 104.847 29.738 105.478 29.738 106.236V107.183C29.738 107.94 29.1432 108.571 28.4295 108.571ZM36.1614 97.083H32.117V101.186H36.1614C37.3509 101.186 38.243 100.239 38.243 99.1029C38.243 98.0298 37.2914 97.083 36.1614 97.083Z" fill="#DCE8FF"/>
<path d="M26.4668 101.186H36.2803V102.259C36.2803 102.89 35.8045 103.458 35.1503 103.458H27.5968C27.0021 103.458 26.4668 102.89 26.4668 102.196V101.186Z" fill="#478482"/>
<path d="M32.6518 98.9136H30.4512V99.4186H32.6518V98.9136Z" fill="#234140"/>
<path d="M31.3441 98.1562H29.7383V99.4187H32.1173V98.9137C32.1173 98.4719 31.8199 98.1562 31.4036 98.1562H31.3441ZM32.831 99.6081C32.903 99.6364 32.9803 99.6459 33.0565 99.6356C33.1326 99.6254 33.2053 99.5957 33.2683 99.5492C33.3313 99.5027 33.3827 99.4407 33.4183 99.3685C33.4538 99.2964 33.4724 99.2161 33.4724 99.1347C33.4724 99.0532 33.4538 98.973 33.4183 98.9008C33.3827 98.8286 33.3313 98.7666 33.2683 98.7201C33.2053 98.6736 33.1326 98.6439 33.0565 98.6337C32.9803 98.6234 32.903 98.6329 32.831 98.6612C32.74 98.6971 32.6614 98.7617 32.606 98.8463C32.5505 98.9309 32.5208 99.0316 32.5208 99.1347C32.5208 99.2377 32.5505 99.3384 32.606 99.423C32.6614 99.5076 32.74 99.5722 32.831 99.6081Z" fill="#234140"/>
<path d="M31.4036 99.103H29.7383V101.186H31.5226V99.103H31.4036Z" fill="#234140"/>
<path d="M31.5221 100.871H29.5594C29.4404 100.871 29.4404 100.934 29.4404 100.997C29.4404 101.123 29.4404 101.186 29.5594 101.186H31.5221C31.5615 101.186 31.5993 101.17 31.6272 101.14C31.6551 101.11 31.6708 101.07 31.6708 101.028C31.6708 100.987 31.6551 100.946 31.6272 100.917C31.5993 100.887 31.5615 100.871 31.5221 100.871Z" fill="#234140"/>
<path d="M50.9711 82.4385H34.6152V96.9567H50.9711V82.4385Z" fill="#CAD9FF"/>
<path d="M50.9711 96.8936H29.7383V97.2723H51.0306V96.8936H50.9711Z" fill="#A3BAFF"/>
<path d="M31.165 93.9268H29.916V99.6078H31.165V93.9268Z" fill="#234140"/>
<path d="M33.3069 82.4385H32.8311V90.6445H33.3069V82.4385ZM36.5186 82.4385H36.0427V90.6445H36.5186V82.4385ZM39.7302 82.4385H39.3139V96.578H39.7302V82.4385ZM42.9419 82.4385H42.5256V96.578H42.9419V82.4385Z" fill="#386866"/>
<path d="M34.972 85.2158H33.3066V88.4982H34.972V85.2789V85.2158Z" fill="#E6EEFF"/>
<path d="M34.9718 88.6246H33.3065C33.247 88.6246 33.1875 88.6246 33.1875 88.4983V85.2791C33.1875 85.216 33.1875 85.1528 33.3065 85.1528H34.9718C35.0907 85.1528 35.0907 85.1528 35.0907 85.2791V88.4983C35.0907 88.6246 35.0907 88.6246 34.9718 88.6246ZM33.4254 88.3721H34.8528V85.4053H33.4254V88.3721Z" fill="#386866"/>
<path d="M38.1839 85.2158H36.5186V88.4982H38.1839V85.2789V85.2158Z" fill="#E6EEFF"/>
<path d="M38.1837 88.6246H36.5184C36.4589 88.6246 36.3994 88.6246 36.3994 88.4983V85.2791C36.3994 85.216 36.3994 85.1528 36.5184 85.1528H38.1837C38.3026 85.1528 38.3621 85.1528 38.3621 85.2791V88.4983C38.3621 88.6246 38.3026 88.6246 38.1837 88.6246ZM36.6373 88.3721H38.0647V85.4053H36.6373V88.3721Z" fill="#386866"/>
<path d="M41.4543 85.2158H39.7295V88.4982H41.4543V85.2789V85.2158Z" fill="#E6EEFF"/>
<path d="M41.4551 88.6246H39.7303C39.6708 88.6246 39.6113 88.6246 39.6113 88.4983V85.2791L39.7303 85.1528H41.4551C41.4551 85.1528 41.574 85.1528 41.574 85.2791V88.4983C41.574 88.6246 41.5146 88.6246 41.4551 88.6246ZM39.8492 88.3721H41.3361V85.4053H39.8492V88.3721Z" fill="#386866"/>
<path d="M44.6067 85.2158H42.9414V88.4982H44.6662V85.2789L44.6067 85.2158Z" fill="#E6EEFF"/>
<path d="M44.6065 88.6246H42.9412C42.8817 88.6246 42.8223 88.6246 42.8223 88.4983V85.2791L42.9412 85.1528H44.666C44.666 85.1528 44.785 85.1528 44.785 85.2791V88.4983C44.785 88.6246 44.7255 88.6246 44.666 88.6246H44.6065ZM43.0602 88.3721H44.6065V85.4053H43.1196V88.3721H43.0602Z" fill="#386866"/>
<path d="M33.9009 85.2158H33.6035V88.4982H33.9009V85.2789V85.2158Z" fill="#1C3433"/>
<path d="M37.1128 85.2158H36.8154V88.4982H37.1128V85.2789V85.2158Z" fill="#57A19E"/>
<path d="M40.3247 85.2158H40.0273V88.4982H40.3247V85.2789V85.2158Z" fill="#8DC2C0"/>
<path d="M43.5367 85.2158H43.2988V88.4982H43.5367V85.2789V85.2158Z" fill="#3F6362"/>
<path d="M52.5762 69.6245H26.7637V70.0032H52.5762V69.6245ZM27.7748 72.3388C27.4179 72.3388 27.18 71.8969 27.18 71.392C27.18 70.887 27.7748 70.5082 27.7748 70.4451H27.8342C27.8342 70.4451 28.429 70.887 28.429 71.392C28.429 71.8969 28.1911 72.3388 27.8342 72.3388H27.7748ZM27.7748 70.6345C27.6558 70.7607 27.299 71.0132 27.299 71.392C27.299 71.8338 27.5369 72.1494 27.7748 72.1494C28.0721 72.1494 28.2506 71.8338 28.2506 71.392C28.2506 71.0763 27.9532 70.7607 27.7748 70.6345Z" fill="#234140"/>
<path d="M27.7747 70.6343C27.7747 70.6343 27.3584 70.3819 27.3584 70.0031C27.3584 69.94 27.3584 69.8137 27.4774 69.7506L27.5368 69.6875H28.1316C28.2505 69.8137 28.2505 69.94 28.2505 70.0662C28.2505 70.3819 27.8937 70.6975 27.8937 70.6975H27.8342V70.6343H27.7747ZM27.5963 69.8137V70.0662L27.7747 70.445C27.8937 70.3819 28.0721 70.1925 28.0721 70.0662V69.8137H27.5963ZM36.2798 72.3387C35.8634 72.3387 35.5661 71.8968 35.5661 71.3918C35.5661 70.8868 36.1608 70.5081 36.1608 70.445H36.2798C36.2798 70.445 36.8745 70.8868 36.8745 71.3918C36.8745 71.8968 36.6366 72.3387 36.2798 72.3387ZM36.2798 70.6343C36.1013 70.7606 35.7445 71.0131 35.7445 71.3918C35.7445 71.8337 35.9824 72.1493 36.2203 72.1493C36.5177 72.1493 36.6961 71.8337 36.6961 71.3918C36.6961 71.0762 36.3987 70.7606 36.2203 70.6343H36.2798Z" fill="#234140"/>
<path d="M36.2805 70.6343H36.221C36.221 70.6343 35.8047 70.3819 35.8047 70.0031L35.8642 69.7506L35.9831 69.6875H36.5779L36.6968 70.0662C36.6968 70.3819 36.34 70.6975 36.2805 70.6975V70.6343ZM36.0426 69.8137V70.0662L36.221 70.445C36.34 70.3819 36.5184 70.1925 36.5184 70.0662V69.8137H36.0426ZM42.8823 72.3387C42.5255 72.3387 42.2875 71.8968 42.2875 71.3918C42.2875 70.8868 42.8823 70.5081 42.8823 70.445H42.9418C42.9418 70.445 43.5365 70.8868 43.5365 71.3918C43.5365 71.8968 43.2986 72.3387 42.9418 72.3387H42.8823ZM42.8823 70.6343C42.7634 70.7606 42.4065 71.0131 42.4065 71.3918C42.4065 71.8337 42.6444 72.1493 42.8823 72.1493C43.1797 72.1493 43.3581 71.8337 43.3581 71.3918C43.3581 71.0762 43.0607 70.7606 42.8823 70.6343Z" fill="#234140"/>
<path d="M42.8821 70.6343C42.8821 70.6343 42.4658 70.3819 42.4658 70.0031L42.5253 69.7506L42.6442 69.6875H43.239L43.358 70.0662C43.358 70.3819 43.0011 70.6975 42.9416 70.6975V70.6343H42.8821ZM42.7037 69.8137V70.0662L42.8821 70.445C43.0011 70.3819 43.1795 70.1925 43.1795 70.0662V69.8137H42.7037ZM51.3277 72.3387C50.9709 72.3387 50.733 71.8968 50.733 71.3918C50.733 70.8868 51.3277 70.5081 51.3277 70.445H51.3872C51.3872 70.445 51.9819 70.8868 51.9819 71.3918C51.9819 71.8968 51.744 72.3387 51.3872 72.3387H51.3277ZM51.3277 70.6343C51.2088 70.7606 50.8519 71.0131 50.8519 71.3918C50.8519 71.8337 51.0898 72.1493 51.3277 72.1493C51.6251 72.1493 51.863 71.8337 51.863 71.3918C51.863 71.0762 51.5061 70.7606 51.3277 70.6343Z" fill="#234140"/>
<path d="M51.3275 70.6343C51.3275 70.6343 50.9111 70.3819 50.9111 70.0031C50.9111 69.94 50.9111 69.8137 51.0301 69.7506L51.0896 69.6875H51.6843C51.8033 69.8137 51.8033 69.94 51.8033 70.0662C51.8033 70.3819 51.4464 70.6975 51.4464 70.6975H51.3869V70.6343H51.3275ZM51.149 69.8137V70.0662L51.3275 70.445C51.4464 70.3819 51.6248 70.1925 51.6248 70.0662V69.8137H51.149Z" fill="#234140"/>
<path d="M36.2801 82.9437L36.2206 82.8806L36.1611 72.0866L36.2206 72.0234H36.3396V82.9437H36.2801Z" fill="#57A19E"/>
<path d="M39.5517 82.9436L39.4922 82.8805L43.0607 71.9602C43.0607 71.9602 43.0607 71.8971 43.1202 71.9602L43.1797 72.0233L39.6111 82.8805V82.9436H39.5517Z" fill="#8DC2C0"/>
<path d="M42.7038 82.9437C42.6443 82.9437 42.6443 82.8806 42.7038 82.8175L51.2683 72.0234H51.4467V72.1497L42.7633 82.9437H42.7038Z" fill="#3F6362"/>
<path d="M32.8309 82.5018L27.835 72.1497V72.0234H27.9539L32.9499 82.3756V82.5018H32.8309Z" fill="#1C3433"/>
<path d="M56.2637 114.252H60.3675V115.326C60.3675 115.578 60.1296 115.831 59.8322 115.831H56.2637V114.252Z" fill="#71B2B0"/>
<path d="M59.9521 114.631H56.6214C56.5699 114.64 56.517 114.637 56.4666 114.623C56.4161 114.608 56.3694 114.581 56.3297 114.545C56.29 114.509 56.2582 114.464 56.2367 114.413C56.2152 114.363 56.2044 114.308 56.2051 114.252C56.2051 114 56.3835 113.874 56.6214 113.874H59.9521C60.19 113.874 60.3684 114 60.3684 114.252C60.3684 114.442 60.19 114.631 59.9521 114.631Z" fill="#8DC2C0"/>
<path d="M59.9517 114.442C60.0707 114.442 60.1302 114.379 60.1302 114.252C60.1302 114.126 60.0707 114.063 59.9517 114.063C60.0707 114.063 60.1896 114.063 60.1896 114.252C60.1896 114.379 60.0707 114.442 59.9517 114.442ZM58.5243 114.505H56.859C56.7959 114.505 56.7354 114.478 56.6908 114.431C56.6462 114.384 56.6211 114.319 56.6211 114.252C56.6211 114.126 56.74 114.063 56.859 114.063C56.74 114.063 56.6806 114.189 56.6806 114.252C56.6806 114.379 56.74 114.442 56.859 114.442H58.5243V114.505Z" fill="#71B2B0"/>
<path d="M65.4237 115.073V115.515L65.3048 116.525V116.967H65.1858L64.8884 117.156L64.2937 117.346H64.2342L63.9963 117.472H63.8774L63.4016 117.598H63.3421L62.9258 117.724H62.5094L62.0931 117.851H61.9741C61.8158 117.864 61.6567 117.864 61.4983 117.851H59.952L59.7141 117.724H59.5951C59.4762 117.724 59.2977 117.724 59.1788 117.598H59.0598L58.6435 117.472H58.584L58.2272 117.346H58.1082L57.6919 117.156L57.5729 117.093L57.2755 116.904H57.0971L56.8592 116.714H56.7403L56.4429 116.399L56.3239 116.273L56.1455 116.083V114.189C56.1455 114.189 56.4429 114.568 57.0971 115.01H57.1566C57.564 115.282 58.0042 115.494 58.4651 115.641H58.584L59.8925 115.894H61.4389C61.9147 115.894 62.331 115.894 62.7473 115.768H62.8663L64.1747 115.452H64.2937L64.7695 115.263H64.8884L65.4237 115.073Z" fill="#8DC2C0"/>
<path d="M64.8881 115.263V115.704C64.6502 115.704 64.5312 115.957 64.5312 116.146V116.399C64.5312 116.588 64.6502 116.714 64.8286 116.714V117.156L65.7802 116.714V114.884L64.8881 115.199V115.263Z" fill="#234140"/>
<path d="M65.7206 115.831V116.146C65.7206 116.336 65.5422 116.525 65.3638 116.525C65.2849 116.525 65.2093 116.492 65.1535 116.433C65.0977 116.373 65.0664 116.293 65.0664 116.209V115.957C65.0664 115.767 65.1854 115.641 65.3638 115.578H65.4827C65.6017 115.578 65.7206 115.641 65.7206 115.831Z" fill="#8DC2C0"/>
<path d="M64.3527 115.515V117.345H64.2337V115.452H64.3527V115.515ZM62.9252 115.83V117.724H62.8063V115.83H62.9252ZM61.4978 115.957V117.85H61.3789V115.957H61.4978ZM60.0704 115.957V117.85H60.0109V115.957H60.1299H60.0704ZM58.7025 115.641V117.535H58.5835V115.641H58.7025ZM57.275 115.073V116.967L57.1561 116.903V115.01L57.275 115.073ZM57.6914 116.714V117.156H57.5724V116.651H57.6914V116.714ZM58.2861 116.903V117.345H58.1077V116.84L58.2267 116.903H58.2861ZM62.6279 117.345V117.787H62.5684V117.345H62.6279ZM62.0926 117.408V117.85H62.0331V117.408H62.0926ZM63.9958 117.03V117.472H63.8769V117.03H63.9958ZM63.4605 117.156V117.598H63.3416V117.219H63.4605V117.156ZM59.2377 117.219V117.661H59.1188V117.156H59.2377V117.219ZM59.773 117.282V117.724H59.6541V117.282H59.773ZM60.6652 117.408V117.85H60.5462V117.408H60.6652ZM61.2599 117.408V117.913H61.0815V117.472H61.2004L61.2599 117.408ZM56.5019 115.957V116.398L56.4424 116.335V115.83C56.4424 115.83 56.4424 115.957 56.5613 115.957H56.5019ZM56.9777 116.272V116.777L56.8587 116.714V116.209L56.9777 116.272Z" fill="#234140"/>
<path d="M61.2007 116.336C59.8327 116.336 58.2864 116.02 56.7995 115.073C56.2642 114.884 55.9668 114.568 55.9668 114.252C55.9668 114.063 56.0263 113.811 56.2047 113.684C56.3237 113.558 56.74 113.558 59.1785 113.558H59.4164C59.7138 113.558 60.1896 113.558 60.4275 113.811C60.5464 113.937 60.6059 114.063 60.6059 114.252C60.6059 114.336 60.5746 114.416 60.5188 114.476C60.463 114.535 60.3874 114.568 60.3085 114.568C60.2297 114.568 60.154 114.535 60.0983 114.476C60.0425 114.416 60.0112 114.336 60.0112 114.252C60.0112 114.126 59.5948 114.126 59.4164 114.189H59.119C58.2471 114.152 57.374 114.152 56.5021 114.189C56.5021 114.189 56.621 114.379 56.9779 114.568H57.0374C60.7249 116.841 64.7692 115.01 64.7692 115.01C64.8882 115.01 65.0666 115.01 65.1261 115.136C65.1855 115.326 65.1261 115.515 65.0071 115.578C64.8882 115.578 63.2823 116.336 61.2007 116.336Z" fill="#71B2B0"/>
<path d="M61.1413 118.166C59.5979 118.207 58.0741 117.792 56.7401 116.967L56.0264 116.335C55.9719 116.276 55.9414 116.197 55.9414 116.114C55.9414 116.032 55.9719 115.953 56.0264 115.894C56.1454 115.767 56.3238 115.767 56.4427 115.894L57.0375 116.525C60.725 118.734 64.7099 116.903 64.7694 116.903C64.8883 116.84 65.0073 116.903 65.0667 117.03C65.1262 117.156 65.0667 117.345 64.9478 117.408C64.8288 117.408 63.223 118.166 61.1413 118.166Z" fill="#71B2B0"/>
<path d="M99.0273 105.037C99.0273 105.037 106.581 106.299 109.138 109.708C111.696 113.116 109.733 126.94 109.733 126.94H132.988C132.988 126.94 141.493 109.455 124.067 105.037C106.7 100.618 99.0868 105.037 99.0868 105.037H99.0273ZM203.764 105.037C203.764 105.037 211.318 106.299 213.875 109.708C216.433 113.116 214.47 126.94 214.47 126.94H237.725C237.725 126.94 246.23 109.455 228.804 105.037C211.437 100.618 203.824 105.037 203.824 105.037H203.764Z" fill="#C6E0DF"/>
<path d="M146.072 95.7572C146.786 97.2722 146.667 99.1028 145.775 100.618L145.537 101.06H155.529L155.648 100.933C156.481 99.8602 156.778 98.4084 156.302 97.0197L156.124 96.4516L151.663 85.4682C150.354 82.6908 143.039 74.1061 140.363 75.3685C137.329 76.8204 135.129 77.8303 139.47 84.6476L146.013 95.7572H146.072Z" fill="#FFB888"/>
<path d="M147.5 94.6844L154.697 92.917L153.745 89.9502L147.5 94.6844Z" fill="#603225"/>
<path d="M143.574 91.7178L153.328 88.5617C153.328 88.5617 146.489 72.5916 139.351 75.0534C133.285 77.5783 136.913 84.9637 143.574 91.7178Z" fill="#71B2B0"/>
<path d="M145.062 94.6845L142.683 90.3291L152.794 86.9204L154.578 90.7078C154.578 90.7078 150.236 95.2526 145.062 94.6845Z" fill="#71B2B0"/>
<path d="M148.333 90.2028C147.062 90.9632 145.728 91.5972 144.348 92.0964L143.931 92.2227L144.11 92.4752L144.467 92.3489C146.205 91.6802 147.878 90.8347 149.463 89.824L148.273 90.2028H148.333ZM144.943 76.2526C144.705 76.0001 144.348 75.8739 144.11 75.6845C143.371 75.1982 142.541 74.8896 141.678 74.7806C140.815 74.6715 139.94 74.7646 139.114 75.0533C138.36 75.3102 137.67 75.7414 137.092 76.3157L136.973 76.442C136.553 76.9425 136.265 77.5524 136.14 78.2094C135.664 80.3556 136.854 83.133 138.46 85.6579C140.013 88.0669 141.786 90.308 143.753 92.3489H143.575L143.515 92.4752V92.5383C143.515 92.5383 143.872 93.2327 144.943 94.7476H145.002L145.478 94.8739C146.667 94.937 147.857 94.6845 149.046 94.3057C151.247 93.4851 153.091 92.0964 154.042 91.2758L154.161 91.2127L154.578 90.834V90.7709C153.261 87.6105 151.668 84.5884 149.82 81.7443C148.214 79.2194 146.548 77.3888 144.943 76.1895V76.2526ZM144.348 93.422L143.812 92.6014H143.931L144.11 92.4752L144.467 92.3489C146.924 91.3851 149.245 90.0683 151.366 88.4353L151.842 88.0566L152.496 87.5516L152.734 87.3622H152.793C153.685 89.0034 154.221 90.2659 154.399 90.6446C154.28 90.6446 154.221 90.7709 154.042 90.8971L153.923 91.0234C152.174 92.5385 150.149 93.6558 147.976 94.3057C147.044 94.5613 146.075 94.6255 145.121 94.4951C144.876 94.1424 144.639 93.7846 144.407 93.422H144.348ZM150.355 82.9436L152.674 86.9835V87.1097L152.377 87.236L151.663 87.8672L151.187 88.1828C149.1 89.8711 146.771 91.1924 144.288 92.0964L143.931 92.2227V92.0964L143.812 92.0333L143.277 91.4652L143.039 91.1496C141.427 89.3884 139.955 87.4882 138.638 85.4685C137.092 82.9436 135.962 80.2925 136.378 78.2725C136.497 77.6413 136.794 77.0101 137.211 76.5682C137.426 76.3302 137.665 76.1185 137.924 75.937C138.316 75.6757 138.735 75.4639 139.173 75.3057C140.898 74.6745 142.564 75.0533 144.11 76.0632C146.635 77.8053 148.75 80.1372 150.295 82.8805H150.355V82.9436ZM148.333 90.2028C147.062 90.9632 145.728 91.5972 144.348 92.0964L143.931 92.2227L144.11 92.4752L144.467 92.3489C146.205 91.6802 147.878 90.8347 149.463 89.824L148.273 90.2028H148.333Z" fill="#478482"/>
<path d="M138.222 106.488L136.675 105.857C135.73 105.467 134.712 105.316 133.702 105.415C132.512 105.542 131.085 105.794 130.728 106.488C130.252 107.751 132.512 106.804 133.702 108.067C134.891 109.329 138.162 106.552 138.162 106.552L138.222 106.488Z" fill="#FFB888"/>
<path d="M154.399 95.1895L136.794 106.047C136.226 106.381 135.799 106.933 135.6 107.589C135.401 108.246 135.445 108.958 135.724 109.581C136.318 110.844 137.924 111.475 139.292 110.844L152.436 104.847C153.492 104.368 154.411 103.603 155.1 102.628C155.789 101.653 156.224 100.503 156.362 99.2924V99.2293C156.54 97.525 155.767 95.9469 154.339 95.1895H154.399Z" fill="#FFB888"/>
<path d="M142.742 107.498C142.742 105.983 138.519 105.983 137.568 105.983C136.794 105.983 135.783 105.794 135.129 106.236C134.415 106.614 134.118 107.498 133.523 107.94C132.75 108.508 132.036 108.256 131.263 107.94C130.668 107.624 129.895 107.309 129.479 108.066C129.063 108.697 129.122 109.771 129.122 110.465C129.122 111.222 129.419 111.727 129.895 112.169C130.426 112.745 131.078 113.178 131.798 113.432C132.572 113.684 133.583 113.621 134.415 113.621C135.01 113.621 137.984 112.232 138.698 111.664L140.244 110.276C141.077 109.644 142.683 108.634 142.742 107.498Z" fill="#FFB888"/>
<path d="M133.523 110.149C133.523 110.023 133.464 109.96 133.345 109.96L132.75 110.023C131.872 110.149 130.982 109.924 130.252 109.392L129.36 108.761H129.122L129.181 109.076L130.073 109.708C130.847 110.276 131.858 110.528 132.809 110.339H133.404L133.523 110.149ZM133.345 111.728C133.345 111.601 133.285 111.538 133.166 111.538L132.571 111.664C131.694 111.79 130.803 111.565 130.073 111.033L129.181 110.402C129.181 110.339 129.003 110.402 128.943 110.402L129.003 110.654L129.895 111.286C130.668 111.917 131.679 112.106 132.631 111.98L133.226 111.917L133.345 111.791V111.728Z" fill="#D35600"/>
<path d="M250.81 95.7572C251.464 97.2722 251.404 99.1028 250.512 100.618L250.274 101.06H260.266L260.385 100.933C261.218 99.8602 261.515 98.4084 261.039 97.0197L260.861 96.4516L256.4 85.4682C255.092 82.6908 247.776 74.1061 245.1 75.3685C242.067 76.8204 239.866 77.8303 244.208 84.6476L250.75 95.7572H250.81Z" fill="#FFB888"/>
<path d="M252.237 94.6844L259.434 92.917L258.482 89.9502L252.237 94.6844Z" fill="#603225"/>
<path d="M248.312 91.7178L258.066 88.5617C258.066 88.5617 251.226 72.5916 244.089 75.0534C238.022 77.5783 241.591 84.9637 248.312 91.7178Z" fill="#71B2B0"/>
<path d="M249.798 94.6845L247.419 90.3291L257.53 86.9204L259.314 90.7078C259.314 90.7078 254.972 95.2526 249.798 94.6845Z" fill="#71B2B0"/>
<path d="M253.07 90.2028C251.8 90.9632 250.466 91.5972 249.085 92.0964L248.669 92.2227L248.847 92.4752L249.204 92.3489C250.942 91.6802 252.615 90.8347 254.2 89.824L253.01 90.2028H253.07ZM249.68 76.2526L248.847 75.6845C248.108 75.1982 247.278 74.8896 246.415 74.7806C245.552 74.6715 244.677 74.7646 243.851 75.0533C243.097 75.3102 242.407 75.7414 241.829 76.3157L241.71 76.442C241.29 76.9425 241.003 77.5524 240.877 78.2094C240.402 80.3556 241.591 83.133 243.197 85.6579C244.735 88.0423 246.488 90.2621 248.431 92.2858L248.312 92.3489L248.252 92.4752V92.5383C248.252 92.5383 248.609 93.2327 249.68 94.7476H249.739L250.215 94.8739C251.405 94.937 252.594 94.6845 253.784 94.2426C255.984 93.4851 257.828 92.0964 258.78 91.2758L258.899 91.2127L259.315 90.834V90.7709C257.999 87.6105 256.406 84.5884 254.557 81.7443C252.951 79.2194 251.286 77.3257 249.68 76.1895V76.2526ZM249.085 93.422L248.55 92.6014H248.609L248.847 92.4752L249.204 92.3489C251.661 91.3851 253.983 90.0683 256.103 88.4353L256.579 88.0566L257.174 87.5516L257.471 87.3622H257.531C258.423 89.0034 258.958 90.2659 259.077 90.6446L258.78 90.8971L258.661 91.0234C256.911 92.5385 254.887 93.6558 252.713 94.3057C251.782 94.5613 250.813 94.6255 249.858 94.4951C249.561 94.0533 249.263 93.7376 249.145 93.422H249.085ZM255.092 82.9436L257.412 86.9835L257.352 87.1097L257.114 87.236L256.401 87.8672L255.925 88.1828C253.836 89.8692 251.507 91.1904 249.026 92.0964L248.669 92.2227V92.0964L248.55 92.0333L248.015 91.4652L247.777 91.1496C246.164 89.3882 244.692 87.488 243.375 85.4685C241.829 82.9436 240.699 80.2925 241.115 78.2725C241.234 77.6413 241.532 77.0101 241.948 76.5682C242.163 76.3302 242.402 76.1185 242.662 75.937C243.053 75.6757 243.473 75.4639 243.911 75.3057C245.635 74.6745 247.301 75.0533 248.847 76.0632C251.372 77.8053 253.488 80.1372 255.033 82.8805H255.092V82.9436ZM253.07 90.2028C251.8 90.9632 250.466 91.5972 249.085 92.0964L248.669 92.2227L248.847 92.4752L249.204 92.3489C250.942 91.6802 252.615 90.8347 254.2 89.824L253.01 90.2028H253.07Z" fill="#478482"/>
<path d="M242.899 106.488L241.412 105.857C240.467 105.467 239.449 105.316 238.438 105.415C237.249 105.542 235.822 105.794 235.465 106.488C234.929 107.751 237.249 106.804 238.438 108.067C239.628 109.329 242.899 106.552 242.899 106.552V106.488Z" fill="#FFB888"/>
<path d="M259.136 95.1895L241.591 106.047C241.023 106.381 240.596 106.933 240.397 107.589C240.198 108.246 240.242 108.958 240.52 109.581C241.115 110.844 242.721 111.475 244.089 110.844L257.233 104.847C258.289 104.368 259.208 103.603 259.897 102.628C260.586 101.653 261.021 100.503 261.159 99.2924V99.2293C261.337 97.525 260.564 95.9469 259.136 95.1895Z" fill="#FFB888"/>
<path d="M247.42 107.498C247.42 105.983 243.256 105.983 242.305 105.983C241.532 105.983 240.52 105.794 239.866 106.236C239.153 106.614 238.855 107.498 238.26 107.94C237.487 108.508 236.774 108.256 236 107.94C235.406 107.624 234.632 107.309 234.216 108.066C233.8 108.697 233.8 109.771 233.859 110.465C233.859 111.222 234.157 111.727 234.632 112.169C235.163 112.745 235.815 113.178 236.536 113.432C237.309 113.684 238.32 113.621 239.153 113.621C239.688 113.621 242.721 112.232 243.435 111.664L244.981 110.276C245.754 109.644 247.42 108.634 247.479 107.498H247.42Z" fill="#FFB888"/>
<path d="M238.26 110.149C238.26 110.023 238.201 109.96 238.082 109.96L237.487 110.023C236.609 110.149 235.719 109.924 234.989 109.392L234.097 108.761H233.859L233.919 109.076L234.811 109.708C235.584 110.276 236.595 110.528 237.547 110.339H238.141L238.26 110.149ZM238.082 111.728C238.082 111.601 238.022 111.538 237.903 111.538L237.309 111.664C236.431 111.79 235.541 111.565 234.811 111.033L233.919 110.402C233.919 110.339 233.74 110.402 233.681 110.402L233.74 110.654L234.632 111.286C235.405 111.917 236.417 112.106 237.368 111.98L237.963 111.917L238.082 111.791V111.728Z" fill="#D35600"/>
</svg>
