<svg width="295" height="190" viewBox="0 0 295 190" fill="none" xmlns="http://www.w3.org/2000/svg">
<g clip-path="url(#clip0_26_497)">
<mask id="mask0_26_497" style="mask-type:luminance" maskUnits="userSpaceOnUse" x="0" y="0" width="295" height="190">
<path d="M295 0H0V190H295V0Z" fill="white"/>
</mask>
<g mask="url(#mask0_26_497)">
<path d="M53.6923 81.0465C53.6923 81.0465 49.4347 83.7812 44.7391 86.1378C41.9737 87.535 39.578 88.5388 37.6204 89.1354C35.0604 89.9207 33.267 89.9936 32.1445 89.3678C31.3641 88.9315 30.9397 88.1892 30.8713 87.1417C30.7344 84.7559 32.9111 81.8027 37.5382 78.1072C41.4125 75.0089 46.2724 71.9537 50.5436 69.262C54.5273 66.7597 57.9635 64.5918 58.7164 63.5297C59.442 62.5116 59.5104 61.9442 59.3462 61.7551C59.2093 61.595 58.7438 61.4495 57.9087 61.6096C57.1147 61.7551 56.2249 62.1188 55.4719 62.5989C55.2666 62.7298 54.9928 62.6571 54.8696 62.4388C54.7464 62.2206 54.8148 61.9442 55.0065 61.8133C56.7451 60.7076 59.1408 60.1402 59.9898 61.144C60.5375 61.7841 60.3319 62.788 59.401 64.0972C58.5385 65.305 55.1981 67.4146 50.968 70.0765C46.7104 72.7536 41.8779 75.7942 38.0448 78.864C33.7324 82.3119 31.6105 85.0764 31.7201 87.0986C31.7611 87.8111 32.0213 88.2912 32.5278 88.5679C34.1705 89.4844 38.3597 88.3203 44.3284 85.3088C48.9829 82.9667 53.1583 80.2751 53.1994 80.2605C53.4048 80.1294 53.6786 80.2022 53.8018 80.4207C53.925 80.6386 53.8566 80.9154 53.6649 81.061L53.6923 81.0465Z" fill="#57A19E"/>
<path d="M60.8797 58.0599C60.2093 58.5109 59.6479 59.0783 59.2234 59.733L47.4912 39.8454C48.2304 39.7144 48.956 39.438 49.6268 38.987C51.0369 38.0559 51.9267 36.572 52.2142 34.9717L65.4114 57.3325C63.9328 56.9106 62.2898 57.1143 60.8797 58.0599Z" fill="#2A7673"/>
<path d="M66.1636 59.2965L50.8723 33.3859C50.5437 32.8185 50.6943 32.0765 51.2282 31.7274C51.7621 31.3782 52.4603 31.5382 52.7889 32.1056L68.0802 58.0163C68.4092 58.5837 68.2584 59.3256 67.7244 59.6748C67.1905 60.0239 66.4926 59.8494 66.1636 59.2965Z" fill="#386866"/>
<path d="M31.2266 51.2512C31.8974 50.8002 32.4587 50.2328 32.8831 49.5781L44.6153 69.4659C43.876 69.5964 43.1505 69.8732 42.4797 70.3241C41.0696 71.2551 40.1798 72.739 39.8923 74.3394L26.709 51.9787C28.1875 52.4005 29.8303 52.1968 31.2403 51.2512H31.2266Z" fill="#2A7673"/>
<path d="M25.9432 50.0148L41.2347 75.9253C41.5633 76.4928 41.4127 77.235 40.8788 77.584C40.3449 77.933 39.6467 77.7727 39.3182 77.2059L24.0266 51.295C23.698 50.7276 23.8486 49.9857 24.3825 49.6365C24.9164 49.2874 25.6146 49.4474 25.9432 50.0148Z" fill="#386866"/>
<path d="M49.4987 36.3687L29.0974 49.9638C28.5081 50.3564 28.3299 51.1825 28.6994 51.8087L40.9031 72.4908C41.2726 73.1172 42.0499 73.3065 42.6392 72.9139L63.0405 59.319C63.6299 58.9262 63.8081 58.1003 63.4386 57.4739L51.2348 36.7916C50.8653 36.1654 50.088 35.976 49.4987 36.3687Z" fill="#478482"/>
<path d="M35.3438 63.0887L40.5961 71.9867L63.1293 56.9655L57.8767 48.0674L35.3438 63.0887Z" fill="#57A19E"/>
<path d="M33.5322 47.0067L41.7068 60.8607L42.5303 60.312L34.3557 46.458L33.5322 47.0067Z" fill="#57A19E"/>
<path d="M35.1797 45.9135L43.3543 59.7674L44.1777 59.2187L36.0032 45.3647L35.1797 45.9135Z" fill="#57A19E"/>
<path d="M50.2062 50.3262L49.3828 50.8751L56.8249 63.4828L57.6483 62.9339L50.2062 50.3262Z" fill="#478482"/>
<path d="M51.8535 49.2207L51.0303 49.7699L58.4765 62.3749L59.2997 61.8256L51.8535 49.2207Z" fill="#478482"/>
<path d="M105.507 138.411C104.234 138.382 102.893 138.018 101.797 137.421C100.593 136.767 99.8259 135.894 99.6346 134.977C99.4427 134.061 99.7168 132.708 102.098 131.457C103.851 130.526 108.971 130.714 115.432 130.933C121.949 131.165 129.328 131.413 135.639 130.685C139.02 130.293 141.758 129.638 143.798 128.736C146.071 127.732 147.549 126.394 148.192 124.735C148.754 123.309 148.685 122.043 147.96 120.88C146.234 118.072 140.827 115.905 132.299 114.58C125.782 113.576 119.703 113.431 119.649 113.431C119.389 113.431 119.197 113.198 119.197 112.937C119.197 112.66 119.416 112.456 119.662 112.456C119.717 112.456 125.837 112.602 132.421 113.62C141.348 115.002 146.837 117.272 148.726 120.356C149.616 121.796 149.712 123.397 149.041 125.128C147.658 128.648 143.305 130.787 135.734 131.66C129.369 132.402 121.949 132.14 115.405 131.908C109.313 131.689 104.056 131.515 102.509 132.329C101.496 132.868 100.319 133.726 100.538 134.759C100.812 136.083 103.18 137.363 105.507 137.421C105.768 137.421 105.959 137.654 105.959 137.931C105.959 138.192 105.754 138.411 105.493 138.411H105.507Z" fill="#8DC2C0"/>
<path d="M113.816 118.756C113.816 117.868 113.652 117.01 113.337 116.239H136.651C136.35 117.01 136.172 117.854 136.172 118.756C136.172 120.618 136.911 122.291 138.102 123.47H111.886C113.077 122.291 113.816 120.618 113.816 118.756Z" fill="#386866"/>
<path d="M109.805 123.091H140.183C140.84 123.091 141.374 123.658 141.374 124.357C141.374 125.055 140.84 125.622 140.183 125.622H109.805C109.148 125.622 108.614 125.055 108.614 124.357C108.614 123.658 109.148 123.091 109.805 123.091Z" fill="#2A7673"/>
<path d="M136.172 94.4312C136.172 95.3185 136.336 96.1767 136.651 96.9335H113.337C113.638 96.1621 113.816 95.3185 113.816 94.4312C113.816 92.5692 113.077 90.8959 111.886 89.7173H138.102C136.911 90.8959 136.172 92.5692 136.172 94.4312Z" fill="#386866"/>
<path d="M140.183 90.1101H109.805C109.148 90.1101 108.614 89.5426 108.614 88.8447C108.614 88.1461 109.148 87.5786 109.805 87.5786H140.183C140.84 87.5786 141.374 88.1461 141.374 88.8447C141.374 89.5426 140.84 90.1101 140.183 90.1101Z" fill="#2A7673"/>
<path d="M112.86 91.6812H137.131C137.857 91.6812 138.46 92.3069 138.46 93.0922V120.123C138.46 120.894 137.871 121.534 137.131 121.534H112.86C112.134 121.534 111.531 120.909 111.531 120.123V93.0922C111.531 92.3208 112.12 91.6812 112.86 91.6812Z" fill="#57A19E"/>
<path d="M120.17 91.6812H113.476V121.519H120.17V91.6812Z" fill="#8DC2C0"/>
<path d="M138.458 98.9702H117.156V100.061H138.458V98.9702Z" fill="#8DC2C0"/>
<path d="M138.458 96.9629H117.156V98.0535H138.458V96.9629Z" fill="#8DC2C0"/>
<path d="M138.458 102.258L122.208 101.152H138.458V102.258Z" fill="#8DC2C0"/>
<path d="M126.317 111.86H111.532V112.951H126.317V111.86Z" fill="#57A19E"/>
<path d="M126.317 114.057H111.532V115.148H126.317V114.057Z" fill="#57A19E"/>
<path d="M233.204 43.6662L229.134 35.834L189.947 58.8325L194.017 66.6646L233.204 43.6662Z" fill="#757E7F"/>
<path d="M226.043 33.8496L189.885 55.062L196.984 68.7285L233.142 47.516L226.043 33.8496Z" fill="#8DC2C0"/>
<path d="M221.599 37.5027L231.634 44.5878L230.196 41.8382L222.133 36.1353L221.175 36.6881L221.599 37.5027Z" fill="#478482"/>
<path d="M227.953 37.5176L224.242 34.8988L225.598 34.0986L226.529 34.7679L227.953 37.5176Z" fill="#478482"/>
<path d="M224.981 44.006L231.388 48.5451L232.729 47.7449L223.544 41.2563L224.981 44.006Z" fill="#478482"/>
<path d="M228.281 50.3632L229.294 49.7667L227.199 48.2827L228.281 50.3632Z" fill="#478482"/>
<path d="M195.697 52.6917L195.464 65.7995L194.026 63.0501L194.218 52.5026L195.286 51.877L195.697 52.6917Z" fill="#478482"/>
<path d="M191.795 58.7293L191.877 53.8848L190.385 54.7576L190.357 55.9797L191.795 58.7293Z" fill="#478482"/>
<path d="M199.092 59.195L198.942 67.5749L197.436 68.4622L197.655 56.4453L199.092 59.195Z" fill="#478482"/>
<path d="M202.39 65.5527L201.254 66.2215L201.309 63.4722L202.39 65.5527Z" fill="#478482"/>
<path d="M214.356 57.4779L204.362 50.3638L205.786 53.128L213.822 58.8454L214.78 58.2926L214.356 57.4779Z" fill="#478482"/>
<path d="M208.032 57.4492L211.728 60.0679L210.387 60.8535L209.47 60.1988L208.032 57.4492Z" fill="#478482"/>
<path d="M210.976 50.975L204.583 46.4214L203.255 47.207L212.413 53.7247L210.976 50.975Z" fill="#478482"/>
<path d="M207.677 44.6172L206.664 45.2137L208.759 46.6976L207.677 44.6172Z" fill="#478482"/>
<path d="M215.821 56.634L215.41 43.8896L216.834 46.6393L217.162 56.8813L216.231 57.4342L215.821 56.634Z" fill="#478482"/>
<path d="M219.079 50.9604L219.23 55.6741L220.544 54.903L220.517 53.7246L219.079 50.9604Z" fill="#478482"/>
<path d="M212.426 50.1164L212.166 41.9838L213.494 41.1982L213.863 52.8806L212.426 50.1164Z" fill="#478482"/>
<path d="M209.127 43.7587L210.126 43.1768L210.209 45.8391L209.127 43.7587Z" fill="#478482"/>
<path d="M46.0527 143.954H79.1956V152.494C79.1956 154.807 77.4298 156.684 75.2533 156.684H46.0527V143.954Z" fill="#478482"/>
<path d="M76.2253 147.111H49.0234C47.3807 147.111 46.0527 145.7 46.0527 143.954C46.0527 142.208 47.3807 140.797 49.0234 140.797H76.2253C77.8678 140.797 79.1956 142.208 79.1956 143.954C79.1956 145.7 77.8678 147.111 76.2253 147.111Z" fill="#8DC2C0"/>
<path d="M76.2246 145.773C76.115 145.773 76.019 145.671 76.019 145.555C76.019 145.438 76.115 145.336 76.2246 145.336C76.9362 145.336 77.5113 144.726 77.5113 143.969C77.5113 143.213 76.9362 142.601 76.2246 142.601H62.48C62.3704 142.601 62.2744 142.499 62.2744 142.383C62.2744 142.267 62.3704 142.165 62.48 142.165H76.2246C77.1692 142.165 77.9356 142.98 77.9356 143.983C77.9356 144.987 77.1692 145.802 76.2246 145.802V145.773Z" fill="#478482"/>
<path d="M64.6854 145.773H50.9407C49.9961 145.773 49.2295 144.958 49.2295 143.954C49.2295 142.95 49.9961 142.136 50.9407 142.136C51.0502 142.136 51.146 142.238 51.146 142.354C51.146 142.47 51.0502 142.572 50.9407 142.572C50.2289 142.572 49.6539 143.183 49.6539 143.939C49.6539 144.696 50.2289 145.307 50.9407 145.307H64.6854C64.7951 145.307 64.8904 145.409 64.8904 145.525C64.8904 145.642 64.7951 145.744 64.6854 145.744V145.773Z" fill="#478482"/>
<path d="M120.829 150.719L120.432 154.357L119.556 162.358L119.186 165.806C119.186 165.806 119.022 165.893 118.706 166.039C118.145 166.315 117.187 166.766 115.859 167.319C114.696 167.799 113.272 168.366 111.629 168.949C111.355 169.05 111.067 169.152 110.78 169.239C110.123 169.458 109.439 169.69 108.713 169.909C108.439 169.996 108.152 170.083 107.864 170.17C106.756 170.505 105.578 170.825 104.36 171.13C104.072 171.203 103.798 171.276 103.511 171.334C102.457 171.582 101.362 171.829 100.239 172.047C99.9515 172.105 99.6774 172.163 99.3901 172.207C98.9521 172.294 98.5004 172.367 98.0486 172.44C97.7614 172.484 97.4873 172.542 97.2 172.586C96.0635 172.76 94.8865 172.92 93.6952 173.051C93.4079 173.08 93.1201 173.109 92.8465 173.138C91.5461 173.269 90.204 173.357 88.8488 173.415C88.5616 173.415 88.288 173.429 88.0002 173.444C87.4525 173.458 86.8911 173.473 86.3303 173.473C86.0424 173.473 85.7689 173.473 85.481 173.473C84.3177 173.473 83.1538 173.415 81.9768 173.327C81.689 173.313 81.4154 173.284 81.1282 173.269C79.9094 173.167 78.6913 173.022 77.4588 172.847C77.2812 172.818 77.103 172.789 76.9254 172.774L76.5965 172.716C75.8986 172.6 75.2139 172.484 74.5434 172.367C74.2555 172.309 73.9683 172.265 73.6942 172.207C72.476 171.975 71.2984 171.727 70.1899 171.465C69.9021 171.407 69.6148 171.334 69.3413 171.261C68.1911 170.985 67.0957 170.694 66.0551 170.389C65.7679 170.301 65.4806 170.228 65.2065 170.141C64.2208 169.836 63.2762 169.531 62.3727 169.225C62.0855 169.123 61.7976 169.021 61.5241 168.919C60.2648 168.454 59.0873 167.974 58.0058 167.494C57.7183 167.363 57.4308 167.232 57.157 167.1C56.2535 166.679 55.4184 166.257 54.6381 165.82C54.3506 165.66 54.0631 165.501 53.7893 165.34C53.1459 164.962 52.5572 164.598 51.9959 164.235C51.6948 164.045 51.4209 163.842 51.1472 163.653C50.0657 162.882 49.1895 162.169 48.4913 161.529C48.1765 161.238 47.889 160.962 47.6426 160.699C46.5748 159.594 46.1504 158.896 46.1504 158.896V143.939C46.1504 143.939 48.5598 146.908 53.7893 150.108C54.0631 150.283 54.3506 150.443 54.6381 150.617C57.4171 152.232 60.9215 153.876 65.2065 155.186C65.4943 155.273 65.7679 155.36 66.0551 155.448C69.1768 156.35 72.681 157.077 76.6102 157.499C76.898 157.528 77.1716 157.557 77.4588 157.586C78.6913 157.702 79.9642 157.79 81.2783 157.848C83.6193 157.95 85.8648 157.95 88.0276 157.892C88.3148 157.892 88.6027 157.877 88.8762 157.863C92.7231 157.717 96.2554 157.339 99.4313 156.83C99.7185 156.786 100.006 156.742 100.28 156.684C104.442 155.986 107.987 155.069 110.849 154.167C111.136 154.08 111.424 153.992 111.697 153.891C113.395 153.338 114.819 152.8 115.941 152.334C116.023 152.305 116.092 152.276 116.174 152.247C116.338 152.189 116.503 152.116 116.667 152.058C118.515 151.374 120.664 150.778 120.883 150.719H120.911H120.829Z" fill="#8DC2C0"/>
<path d="M116.105 152.203L116.064 155.579C116.064 155.579 116.036 155.579 115.968 155.622C115.914 155.622 115.859 155.652 115.804 155.666C114.366 156.132 113.285 157.731 113.271 159.259V161.573C113.244 163.086 114.284 164.25 115.694 164.177C115.79 164.177 115.886 164.162 115.968 164.148L115.831 167.348L123.498 163.9L123.771 149.803L116.091 152.232L116.105 152.203Z" fill="#386866"/>
<path d="M122.581 156.641L122.54 159.202C122.512 160.874 121.212 162.285 119.761 162.358C118.447 162.431 117.488 161.34 117.488 159.943V157.805C117.516 156.394 118.515 154.91 119.857 154.473C120.144 154.386 120.417 154.342 120.678 154.357C121.773 154.4 122.594 155.288 122.581 156.656V156.641Z" fill="#8DC2C0"/>
<path d="M111.628 153.891V168.949C111.354 169.05 111.067 169.152 110.779 169.239V154.153C111.067 154.066 111.354 153.978 111.628 153.876V153.891Z" fill="#386866"/>
<path d="M100.212 156.684V172.077C99.9241 172.135 99.6505 172.193 99.3633 172.237V156.83C99.6505 156.786 99.9378 156.742 100.212 156.684Z" fill="#386866"/>
<path d="M88.7946 157.863V173.444C88.5067 173.444 88.2332 173.459 87.9453 173.473V157.892C88.2332 157.892 88.5204 157.877 88.7946 157.863Z" fill="#386866"/>
<path d="M77.376 157.586V172.847C77.1978 172.818 77.0202 172.789 76.842 172.774L76.5137 172.716V157.499C76.8009 157.528 77.0751 157.557 77.3623 157.586H77.376Z" fill="#386866"/>
<path d="M65.959 155.447V170.403C65.6717 170.316 65.3839 170.243 65.1104 170.156V155.2C65.3976 155.288 65.6717 155.374 65.959 155.462V155.447Z" fill="#386866"/>
<path d="M54.5411 150.632V165.835C54.2537 165.675 53.9662 165.515 53.6924 165.355V150.138C53.9662 150.312 54.2537 150.472 54.5411 150.647V150.632Z" fill="#386866"/>
<path d="M57.9083 163.798V167.494C57.6208 167.363 57.3334 167.232 57.0596 167.101V163.406C57.3334 163.537 57.6208 163.667 57.9083 163.798Z" fill="#386866"/>
<path d="M62.2764 165.559V169.224C61.9891 169.123 61.7019 169.021 61.4277 168.919V165.238C61.7019 165.34 61.9891 165.442 62.2764 165.544V165.559Z" fill="#386866"/>
<path d="M98.0055 168.919V172.469C97.7176 172.513 97.4441 172.571 97.1562 172.615V169.051C97.4441 169.007 97.7314 168.963 98.0055 168.919Z" fill="#386866"/>
<path d="M93.6524 169.516V173.08C93.3651 173.11 93.0773 173.139 92.8037 173.168V169.589C93.091 169.56 93.3782 169.531 93.6524 169.501V169.516Z" fill="#386866"/>
<path d="M108.698 166.403V169.923C108.425 170.011 108.137 170.098 107.85 170.185V166.65C108.137 166.562 108.425 166.476 108.698 166.388V166.403Z" fill="#386866"/>
<path d="M104.331 167.61V171.145C104.043 171.218 103.77 171.291 103.482 171.349V167.814C103.77 167.741 104.057 167.683 104.331 167.61Z" fill="#386866"/>
<path d="M70.1065 167.828V171.466C69.8192 171.407 69.5314 171.335 69.2578 171.262V167.625C69.5314 167.698 69.8192 167.756 70.1065 167.828Z" fill="#386866"/>
<path d="M74.4746 168.745V172.382C74.1874 172.324 73.8995 172.28 73.626 172.222V168.585C73.9132 168.643 74.1874 168.686 74.4746 168.745Z" fill="#386866"/>
<path d="M81.9082 169.734V173.342C81.6204 173.328 81.3468 173.298 81.0596 173.284V169.676C81.3468 169.705 81.6341 169.719 81.9082 169.749V169.734Z" fill="#386866"/>
<path d="M86.2754 169.894V173.488C85.9882 173.488 85.714 173.488 85.4268 173.488V169.894C85.714 169.894 86.0019 169.894 86.2754 169.894Z" fill="#386866"/>
<path d="M48.3947 157.746V161.544C48.0798 161.252 47.7923 160.976 47.5459 160.714V156.888C47.7923 157.15 48.0661 157.427 48.3947 157.732V157.746Z" fill="#386866"/>
<path d="M51.9132 160.495V164.235C51.612 164.045 51.3382 163.842 51.0645 163.653V159.899C51.3382 160.088 51.612 160.292 51.9132 160.481V160.495Z" fill="#386866"/>
<path d="M74.0491 144.187H51.9124C51.8029 144.187 51.707 144.085 51.707 143.969C51.707 143.852 51.8029 143.751 51.9124 143.751H74.0491C74.1582 143.751 74.2541 143.852 74.2541 143.969C74.2541 144.085 74.1582 144.187 74.0491 144.187Z" fill="#478482"/>
<path d="M86.0417 158.342C82.1811 158.342 78.389 158.037 74.6929 157.44C66.3697 156.088 58.5389 153.177 51.4202 148.813C48.1483 147.417 46.177 145.554 46.0264 143.721C45.9443 142.703 46.4371 141.815 47.4365 141.131C47.5734 140.928 48.3674 140.579 58.7717 140.564H58.9085C64.2886 140.564 69.6278 140.666 69.6827 140.666C70.1481 140.768 70.9693 140.724 71.9139 140.681C74.1178 140.579 77.1435 140.434 78.5535 141.859C79.0738 142.383 79.3336 143.095 79.3336 143.954C79.3336 144.041 79.2788 144.099 79.1972 144.099C79.1149 144.099 79.0601 144.041 79.0601 143.954C79.0601 143.168 78.8271 142.543 78.3616 142.062C77.0338 140.724 74.0904 140.855 71.9276 140.957C70.9693 141 70.1481 141.044 69.669 140.943C69.3674 140.943 64.179 140.841 58.9496 140.841C49.2709 140.841 47.8335 141.161 47.6555 141.292C46.6835 141.947 46.2181 142.761 46.3002 143.663C46.4371 145.365 48.3947 147.184 51.5297 148.522C67.6016 158.386 84.2759 158.822 95.4466 157.455C107.549 155.971 115.968 152.101 116.05 152.058C116.119 152.029 116.2 152.058 116.228 152.13C116.255 152.203 116.228 152.29 116.16 152.319C116.078 152.363 107.631 156.247 95.4877 157.731C92.3118 158.124 89.1634 158.313 86.0555 158.313L86.0417 158.342Z" fill="#478482"/>
<path d="M85.7124 173.647C81.8518 173.647 78.0597 173.341 74.3635 172.745C66.0261 171.377 58.1958 168.482 51.077 164.103C48.3391 161.673 47.4492 160.83 45.9434 159.011C45.8886 158.953 45.9022 158.866 45.9434 158.807C45.9981 158.749 46.0939 158.764 46.135 158.807C47.6272 160.611 48.5033 161.455 51.2003 163.841C67.2448 173.691 83.9192 174.127 95.0898 172.759C107.192 171.275 115.611 167.406 115.693 167.362C115.761 167.333 115.844 167.362 115.871 167.435C115.898 167.508 115.871 167.595 115.802 167.624C115.721 167.667 107.274 171.552 95.1309 173.036C91.9551 173.429 88.806 173.618 85.6987 173.618L85.7124 173.647Z" fill="#478482"/>
<path d="M105.878 68.0984C110.45 71.7502 116.939 70.761 120.362 65.9014C123.784 61.0425 122.867 54.1466 118.294 50.5095C113.722 46.8579 107.233 47.8472 103.81 52.7063C100.375 57.5655 101.305 64.4612 105.878 68.0984Z" fill="#57A19E"/>
<path d="M107.274 66.1201C110.82 68.9568 115.858 68.1854 118.514 64.4177C121.17 60.6496 120.457 55.2958 116.912 52.4734C113.366 49.6511 108.328 50.4075 105.673 54.1756C103.003 57.9436 103.729 63.2974 107.274 66.1201Z" fill="#478482"/>
<path d="M110.82 56.765C111.449 57.2741 112.353 57.1287 112.832 56.4595C113.311 55.7902 113.175 54.83 112.545 54.3208C111.915 53.8116 111.011 53.9571 110.532 54.6264C110.053 55.2956 110.19 56.2558 110.82 56.765Z" fill="white"/>
<path d="M107.726 61.1591C108.356 61.6682 109.259 61.5227 109.738 60.8535C110.218 60.1843 110.08 59.2241 109.451 58.7149C108.821 58.2057 107.918 58.3512 107.439 59.0204C106.959 59.6897 107.096 60.6499 107.726 61.1591Z" fill="white"/>
<path d="M114.735 59.8929C115.365 60.4021 116.268 60.2566 116.747 59.5874C117.226 58.9182 117.089 57.958 116.459 57.4488C115.83 56.9396 114.927 57.0851 114.448 57.7543C113.968 58.4235 114.105 59.3837 114.735 59.8929Z" fill="white"/>
<path d="M111.641 64.272C112.271 64.7812 113.174 64.6355 113.653 63.9661C114.133 63.297 113.996 62.3368 113.366 61.8276C112.736 61.3185 111.833 61.464 111.354 62.1332C110.874 62.8024 111.011 63.7628 111.641 64.272Z" fill="white"/>
<path d="M23.9998 127.354C29.7084 131.907 37.8128 130.686 42.0977 124.619C46.3827 118.552 45.2327 109.94 39.5241 105.386C33.8154 100.832 25.711 102.054 21.4261 108.121C17.1411 114.187 18.2911 122.8 23.9998 127.354Z" fill="#234140"/>
<path d="M25.7379 124.895C30.1598 128.43 36.4571 127.485 39.77 122.771C43.0967 118.071 42.2069 111.38 37.7713 107.844C33.3495 104.309 27.0522 105.255 23.7392 109.969C20.4126 114.667 21.3024 121.36 25.7379 124.88V124.895Z" fill="#478482"/>
<path d="M32.7883 114.915C33.7329 115.672 35.0745 115.468 35.7864 114.464C36.4983 113.46 36.3066 112.034 35.362 111.278C34.4174 110.521 33.0758 110.725 32.3639 111.729C31.6521 112.733 31.8437 114.159 32.7883 114.915Z" fill="white"/>
<path d="M28.1614 121.477C29.106 122.233 30.4476 122.03 31.1595 121.026C31.8713 120.022 31.6797 118.596 30.7351 117.84C29.7905 117.083 28.4489 117.287 27.737 118.291C27.0251 119.295 27.2168 120.72 28.1614 121.477Z" fill="white"/>
<path d="M185.894 79.7664C184.32 84.175 179.693 86.386 175.544 84.7133C171.396 83.0401 169.316 78.1083 170.89 73.7142C172.464 69.3062 177.091 67.0953 181.239 68.7679C185.388 70.4412 187.468 75.3729 185.894 79.7664Z" fill="#8DC2C0"/>
<path d="M184.21 79.0829C182.992 82.5016 179.391 84.218 176.174 82.9234C172.957 81.6289 171.342 77.8023 172.561 74.3836C173.779 70.9648 177.379 69.2479 180.596 70.543C183.813 71.8376 185.428 75.6635 184.21 79.0829Z" fill="#57A19E"/>
<path d="M178.227 74.5147C178.009 75.1258 177.365 75.4311 176.79 75.1987C176.215 74.9656 175.928 74.2822 176.147 73.6711C176.366 73.0599 177.009 72.7546 177.584 72.9871C178.159 73.2201 178.447 73.9035 178.227 74.5147Z" fill="white"/>
<path d="M181.966 76.0276C181.747 76.6388 181.103 76.944 180.529 76.7116C179.954 76.4785 179.666 75.7945 179.885 75.184C180.104 74.5728 180.747 74.2669 181.322 74.5C181.898 74.7331 182.185 75.4164 181.966 76.0276Z" fill="white"/>
<path d="M176.872 78.2831C176.653 78.8936 176.01 79.1995 175.435 78.9664C174.86 78.734 174.572 78.05 174.791 77.4388C175.01 76.8277 175.653 76.5224 176.229 76.7555C176.804 76.9879 177.091 77.6719 176.872 78.2831Z" fill="white"/>
<path d="M180.623 79.7954C180.404 80.4066 179.76 80.7118 179.186 80.4794C178.611 80.2463 178.323 79.563 178.542 78.9518C178.761 78.3407 179.404 78.0354 179.979 78.2678C180.555 78.5009 180.842 79.1842 180.623 79.7954Z" fill="white"/>
<path d="M68.6416 116.021L68.5868 116.05L58.9082 95.61L59.6885 95.2021L68.6416 116.021Z" fill="#757E7F"/>
<path d="M60.0859 94.504C60.3458 95.0715 60.1134 95.7403 59.5794 96.017C59.0455 96.2932 58.4021 96.0607 58.1419 95.4933C57.8818 94.9258 58.1146 94.2564 58.6485 93.9802C59.1824 93.7035 59.8255 93.9365 60.0859 94.504Z" fill="#8DC2C0"/>
<path d="M78.7171 115.541L78.7034 115.614L57.8672 109.809L58.1136 108.907L78.7171 115.541Z" fill="#AEADB8"/>
<path d="M57.882 108.136C58.4433 108.311 58.7718 108.936 58.6075 109.547C58.4433 110.158 57.8546 110.507 57.2933 110.347C56.732 110.173 56.4035 109.547 56.5677 108.936C56.732 108.325 57.3207 107.976 57.882 108.136Z" fill="#8DC2C0"/>
<path d="M66.9443 106.477L66.9717 106.404L87.1503 114.406L86.8357 115.264L66.9443 106.477Z" fill="#757E7F"/>
<path d="M86.9858 116.065C86.4381 115.832 86.1777 115.177 86.397 114.581C86.6157 113.999 87.2319 113.708 87.7796 113.926C88.3273 114.159 88.5872 114.813 88.3684 115.41C88.1491 115.992 87.5335 116.283 86.9858 116.065Z" fill="#478482"/>
<path d="M193.451 17.892L193.533 17.8774L196.408 40.5584L195.532 40.6748L193.451 17.892Z" fill="#AEADB8"/>
<path d="M194.944 41.1839C194.875 40.5583 195.3 40.0054 195.888 39.9327C196.477 39.86 197.011 40.2964 197.079 40.922C197.148 41.5476 196.723 42.1004 196.135 42.1731C195.546 42.2459 195.012 41.8094 194.944 41.1839Z" fill="#8DC2C0"/>
<path d="M199.12 27.0288L199.175 27.0869L185.486 44.7487L184.814 44.1377L199.12 27.0288Z" fill="#757E7F"/>
<path d="M184.062 44.0353C184.445 43.5552 185.116 43.5116 185.568 43.9189C186.019 44.3262 186.074 45.0537 185.691 45.5192C185.307 45.9993 184.637 46.0429 184.185 45.6356C183.733 45.2283 183.678 44.5008 184.062 44.0353Z" fill="#478482"/>
<path d="M163.376 126.088L163.458 126.045L175.697 150.079L174.766 150.588L163.376 126.088Z" fill="#AEADB8"/>
<path d="M174.313 151.432C173.985 150.778 174.245 149.948 174.875 149.599C175.505 149.25 176.285 149.512 176.6 150.166C176.929 150.821 176.668 151.65 176.039 151.999C175.409 152.348 174.629 152.087 174.313 151.432Z" fill="#386866"/>
<path d="M163.28 101.356L163.362 101.4L155.093 127.281L154.121 126.903L163.28 101.356Z" fill="#757E7F"/>
<path d="M153.232 127.136C153.465 126.437 154.204 126.074 154.875 126.335C155.545 126.598 155.888 127.368 155.655 128.067C155.423 128.765 154.683 129.129 154.013 128.867C153.342 128.605 152.999 127.834 153.232 127.136Z" fill="#57A19E"/>
<path d="M237.054 83.4174H236.945L236.329 74.0776H237.657L237.054 83.4174Z" fill="#757E7F"/>
<path d="M238.642 73.729C238.642 74.6891 237.903 75.4745 236.999 75.4745C236.095 75.4745 235.356 74.6891 235.356 73.729C235.356 72.7689 236.095 71.9829 236.999 71.9829C237.903 71.9829 238.642 72.7689 238.642 73.729Z" fill="#8DC2C0"/>
<path d="M265.132 93.7623C264.406 84.9602 253.318 77.9771 239.738 77.9771C226.157 77.9771 215.069 84.9602 214.343 93.7623C218.587 101.996 260.587 102.098 265.132 93.7623Z" fill="#C6E0DF"/>
<path d="M265.133 93.7764C264.53 94.6934 262.6 96.0462 258.617 97.2534C253.592 98.7664 246.898 99.6106 239.739 99.6106C232.579 99.6106 225.884 98.781 220.86 97.2534C216.89 96.0462 214.96 94.6789 214.357 93.7764C213.467 93.7764 212.742 94.5332 212.742 95.4496V96.5409C212.742 97.1229 213.016 97.6612 213.467 97.9811C215.001 99.0869 217.15 100.047 219.861 100.876C225.2 102.491 232.25 103.378 239.739 103.378C247.227 103.378 254.291 102.491 259.616 100.876C262.313 100.062 264.462 99.0869 266.009 97.9811C266.351 97.7334 266.557 97.3262 266.557 96.9044V95.2748C266.557 94.4604 265.913 93.7909 265.133 93.7909V93.7764Z" fill="#8DC2C0"/>
<path d="M247.172 84.3347C247.049 84.393 246.899 84.3347 246.844 84.2042L244.735 79.5486C244.681 79.4175 244.735 79.2579 244.845 79.1996C244.968 79.1414 245.119 79.1996 245.173 79.3155L247.282 83.9712C247.337 84.1023 247.282 84.2625 247.172 84.3201V84.3347Z" fill="#8DC2C0"/>
<path d="M248.622 84.5678C248.499 84.6261 248.348 84.5678 248.293 84.4513L246.186 79.7963C246.131 79.6652 246.186 79.505 246.295 79.4467C246.418 79.3884 246.569 79.4467 246.624 79.5632L248.732 84.2189C248.786 84.35 248.732 84.5096 248.622 84.5678Z" fill="#8DC2C0"/>
<path d="M250.062 84.8002C249.939 84.8585 249.788 84.8002 249.733 84.6698L247.625 80.0141C247.57 79.883 247.625 79.7228 247.735 79.6652C247.857 79.6069 248.008 79.6652 248.063 79.7956L250.171 84.4513C250.226 84.5824 250.171 84.7426 250.062 84.8002Z" fill="#8DC2C0"/>
<path d="M251.512 85.0185C251.389 85.0768 251.239 85.0185 251.184 84.902L249.075 80.247C249.02 80.1159 249.075 79.9556 249.185 79.8974C249.308 79.8391 249.459 79.8974 249.513 80.0139L251.622 84.6695C251.677 84.8 251.622 84.9602 251.512 85.0185Z" fill="#8DC2C0"/>
<path d="M219.64 94.4754C219.544 94.5476 219.408 94.5191 219.339 94.4171L216.916 90.6342C216.847 90.5322 216.875 90.3872 216.971 90.3144C217.067 90.2416 217.203 90.2707 217.272 90.3726L219.695 94.1549C219.763 94.2569 219.736 94.4025 219.64 94.4754Z" fill="#8DC2C0"/>
<path d="M220.927 94.4754C220.831 94.5476 220.695 94.5191 220.626 94.4171L218.203 90.6342C218.135 90.5322 218.162 90.3872 218.258 90.3144C218.354 90.2416 218.49 90.2707 218.559 90.3726L220.982 94.1549C221.051 94.2569 221.023 94.4025 220.927 94.4754Z" fill="#8DC2C0"/>
<path d="M222.227 94.4754C222.131 94.5476 221.994 94.5191 221.926 94.4171L219.503 90.6342C219.434 90.5322 219.462 90.3872 219.558 90.3144C219.653 90.2416 219.79 90.2707 219.859 90.3726L222.282 94.1549C222.35 94.2569 222.323 94.4025 222.227 94.4754Z" fill="#8DC2C0"/>
<path d="M223.514 94.4754C223.418 94.5476 223.282 94.5191 223.213 94.4171L220.79 90.6342C220.721 90.5322 220.749 90.3872 220.845 90.3144C220.941 90.2416 221.077 90.2707 221.146 90.3726L223.569 94.1549C223.638 94.2569 223.61 94.4025 223.514 94.4754Z" fill="#8DC2C0"/>
<path d="M216.547 89.7323C216.478 89.6303 216.506 89.4847 216.602 89.4125L220.161 86.8373C220.257 86.7645 220.394 86.7936 220.462 86.8956C220.53 86.9969 220.503 87.1426 220.407 87.2154L216.848 89.7906C216.752 89.8634 216.615 89.8343 216.547 89.7323Z" fill="#8DC2C0"/>
<path d="M216.547 91.1153C216.478 91.0133 216.506 90.8676 216.602 90.7948L220.161 88.2197C220.257 88.1468 220.394 88.176 220.462 88.2779C220.53 88.3799 220.503 88.5256 220.407 88.5984L216.848 91.1729C216.752 91.2457 216.615 91.2166 216.547 91.1153Z" fill="#8DC2C0"/>
<path d="M216.547 92.4825C216.478 92.3805 216.506 92.2349 216.602 92.162L220.161 89.5869C220.257 89.5147 220.394 89.5438 220.462 89.6452C220.53 89.7471 220.503 89.8928 220.407 89.9656L216.848 92.5408C216.752 92.613 216.615 92.5838 216.547 92.4825Z" fill="#8DC2C0"/>
<path d="M216.547 93.8636C216.478 93.7623 216.506 93.6167 216.602 93.5438L220.161 90.9687C220.257 90.8958 220.394 90.925 220.462 91.027C220.53 91.1289 220.503 91.2739 220.407 91.3468L216.848 93.9219C216.752 93.9948 216.615 93.9656 216.547 93.8636Z" fill="#8DC2C0"/>
<path d="M258.712 91.551C258.588 91.4934 258.52 91.3477 258.561 91.2166L260.285 86.3868C260.34 86.2557 260.477 86.1829 260.601 86.2266C260.724 86.2848 260.792 86.4305 260.751 86.561L259.026 91.3914C258.971 91.5219 258.834 91.5947 258.712 91.5364V91.551Z" fill="#8DC2C0"/>
<path d="M259.56 92.817C259.437 92.7587 259.369 92.6137 259.423 92.4826L261.148 87.6522C261.203 87.5217 261.34 87.4489 261.463 87.5071C261.586 87.5654 261.655 87.7104 261.6 87.8415L259.875 92.6713C259.821 92.8024 259.684 92.8753 259.56 92.817Z" fill="#8DC2C0"/>
<path d="M260.396 94.0823C260.273 94.0246 260.204 93.879 260.245 93.7479L261.971 88.9181C262.025 88.787 262.162 88.7141 262.285 88.7578C262.409 88.8161 262.477 88.9618 262.436 89.0922L260.711 93.9227C260.656 94.0538 260.519 94.126 260.396 94.0823Z" fill="#8DC2C0"/>
<path d="M261.23 95.3485C261.107 95.2902 261.038 95.1446 261.093 95.0135L262.819 90.1837C262.873 90.0526 263.01 89.9797 263.133 90.0234C263.257 90.0817 263.325 90.2274 263.27 90.3578L261.545 95.1883C261.49 95.3194 261.354 95.3916 261.23 95.3339V95.3485Z" fill="#8DC2C0"/>
<path d="M260.258 94.5188C260.204 94.6499 260.067 94.7221 259.943 94.6644L255.398 92.8309C255.275 92.7727 255.206 92.6276 255.261 92.4965C255.316 92.3654 255.453 92.2926 255.576 92.3509L260.121 94.1844C260.245 94.242 260.313 94.3877 260.258 94.5188Z" fill="#8DC2C0"/>
<path d="M261.463 93.6166C261.408 93.7477 261.271 93.8199 261.148 93.7762L256.603 91.9434C256.48 91.8851 256.412 91.7394 256.466 91.609C256.521 91.4779 256.658 91.405 256.781 91.4487L261.326 93.2816C261.449 93.3399 261.518 93.4855 261.477 93.6166H261.463Z" fill="#8DC2C0"/>
<path d="M262.655 92.729C262.6 92.8601 262.464 92.933 262.34 92.8893L257.796 91.0558C257.672 90.9981 257.604 90.8525 257.645 90.7214C257.7 90.5903 257.836 90.5181 257.959 90.5757L262.505 92.4092C262.628 92.4675 262.696 92.6125 262.655 92.7436V92.729Z" fill="#8DC2C0"/>
<path d="M263.845 91.8414C263.791 91.9725 263.654 92.0453 263.531 91.9871L258.986 90.1542C258.863 90.0959 258.794 89.9503 258.835 89.8192C258.89 89.6887 259.027 89.6159 259.15 89.6741L263.695 91.507C263.818 91.5653 263.887 91.7109 263.832 91.8414H263.845Z" fill="#8DC2C0"/>
<path d="M241.313 86.4303L241.189 86.4157L242.271 74.2095L243.585 74.4128L241.313 86.4303Z" fill="#757E7F"/>
<path d="M244.612 74.2243C244.476 75.1844 243.64 75.8387 242.737 75.6936C241.833 75.548 241.217 74.6607 241.354 73.7005C241.491 72.7404 242.326 72.0855 243.23 72.2312C244.133 72.3762 244.749 73.2635 244.612 74.2243Z" fill="#234140"/>
<path d="M235.317 85.7898L235.207 85.8474L227.445 70.1502L228.65 69.5391L235.317 85.7898Z" fill="#757E7F"/>
<path d="M229.389 68.7826C229.786 69.6554 229.444 70.7029 228.622 71.1247C227.801 71.5465 226.815 71.183 226.418 70.3102C226.021 69.4375 226.363 68.39 227.185 67.9675C228.006 67.5457 228.992 67.9099 229.389 68.7826Z" fill="#8DC2C0"/>
<path d="M255.18 87.899L255.084 87.8262L259.342 79.6353L260.464 80.3921L255.18 87.899Z" fill="#757E7F"/>
<path d="M261.465 80.6683C260.972 81.4828 259.959 81.7158 259.192 81.1921C258.426 80.6683 258.207 79.5771 258.7 78.7772C259.192 77.9621 260.206 77.7296 260.972 78.2534C261.739 78.7772 261.958 79.8538 261.465 80.6683Z" fill="#8DC2C0"/>
<path d="M230.867 84.5967L230.757 84.6696L219.942 69.0592L221.188 68.1719L230.867 84.5967Z" fill="#8B9192"/>
<path d="M218.792 64.8548C218.601 64.8111 218.396 64.8548 218.231 64.9859C217.889 65.2329 217.807 65.7275 218.026 66.091L219.943 69.0734C220.202 69.4376 220.654 69.525 220.983 69.2773C221.312 69.0443 221.407 68.5788 221.202 68.2152C221.174 68.1715 219.272 65.1892 219.272 65.1892C219.162 65.015 218.984 64.8985 218.792 64.8548ZM218.628 65.5964C218.847 65.4368 219.381 65.8877 219.833 66.6002C220.285 67.3134 220.476 68.0119 220.271 68.1715C220.052 68.3318 219.518 67.8808 219.052 67.1677C218.601 66.4552 218.409 65.7566 218.614 65.5964H218.628Z" fill="#8B9192"/>
<path d="M243.872 86.8523L243.763 86.8086L247.815 69.6123L249.102 70.0195L243.872 86.8523Z" fill="#8B9192"/>
<path d="M250.129 69.9758C249.869 70.9068 248.965 71.4452 248.089 71.169C247.213 70.9068 246.72 69.9321 246.967 69.0011C247.213 68.0701 248.13 67.5464 249.007 67.8079C249.883 68.0847 250.375 69.0448 250.129 69.9758Z" fill="#57A19E"/>
<path d="M242.997 93.0783L242.915 93.0061L252.388 78.4141L253.456 79.2722L242.997 93.0783Z" fill="#757E7F"/>
<path d="M254.441 79.6211C253.893 80.3919 252.867 80.5521 252.141 79.9846C251.415 79.4026 251.265 78.312 251.799 77.5406C252.346 76.7698 253.373 76.6096 254.098 77.1771C254.824 77.7591 254.975 78.8497 254.441 79.6211Z" fill="#8DC2C0"/>
<path d="M223.556 87.3899L223.488 87.4773L216.574 81.6867L217.464 80.6392L223.556 87.3899Z" fill="#757E7F"/>
<path d="M217.889 79.6361C218.559 80.2903 218.614 81.3961 217.998 82.1093C217.382 82.8218 216.342 82.88 215.671 82.2258C215 81.5709 214.946 80.4651 215.562 79.752C216.177 79.0395 217.218 78.9812 217.889 79.6361Z" fill="#234140"/>
<path d="M230.21 91.2012L230.114 91.2595L224.665 83.9128L225.774 83.1123L230.21 91.2012Z" fill="#8B9192"/>
<path d="M226.403 82.24C226.91 83.0399 226.718 84.1311 225.965 84.6695C225.212 85.2078 224.186 85.0039 223.679 84.204C223.173 83.4034 223.364 82.3128 224.117 81.7745C224.87 81.2362 225.897 81.4395 226.403 82.24Z" fill="#234140"/>
<path d="M269.431 147.722C267.98 147.722 266.378 147.503 264.571 147.082C260.779 146.194 256.425 144.434 251.812 142.572C235.945 136.156 214.22 127.383 190.618 144.346C190.509 144.419 190.372 144.39 190.304 144.289C190.235 144.172 190.263 144.026 190.358 143.954C200.913 136.359 211.92 133.159 223.981 134.163C234.358 135.021 243.721 138.804 251.962 142.135C261.449 145.961 268.938 148.987 274.277 146.151C276.7 144.87 278.137 143.256 278.685 141.219C279.903 136.651 276.358 130.569 272.607 124.139C268.746 117.52 264.762 110.681 265.078 104.353C265.078 104.222 265.187 104.12 265.324 104.12C265.447 104.12 265.543 104.237 265.543 104.368C265.241 110.551 269.184 117.316 273.004 123.877C276.81 130.409 280.41 136.578 279.137 141.349C278.562 143.517 277.042 145.234 274.496 146.572C273.045 147.344 271.374 147.737 269.431 147.737V147.722Z" fill="#478482"/>
<path d="M235.439 94.2127L235.481 94.0962L261.19 102.578L260.711 104.091L235.439 94.2127Z" fill="#8B9192"/>
<path d="M266.268 105.852C266.501 105.779 266.68 105.634 266.747 105.43C266.885 105.008 266.515 104.513 265.94 104.295L261.19 102.579C260.573 102.389 260.04 102.564 259.903 102.957C259.78 103.364 260.108 103.844 260.642 104.063C260.697 104.092 265.461 105.793 265.461 105.793C265.748 105.895 266.036 105.91 266.268 105.837V105.852ZM265.748 105.066C265.666 105.328 264.681 105.211 263.558 104.804C262.422 104.397 261.573 103.859 261.669 103.597C261.751 103.335 262.737 103.451 263.873 103.859C264.995 104.266 265.844 104.804 265.762 105.066H265.748Z" fill="#8B9192"/>
<path d="M277.658 137.916C272.784 137.916 267.815 136.199 263.215 132.897C247.595 121.709 235.083 121.796 227.334 123.833C218.956 126.045 214.206 130.947 214.165 130.991C214.069 131.078 213.932 131.078 213.836 130.991C213.754 130.889 213.754 130.743 213.836 130.641C213.89 130.584 218.723 125.594 227.224 123.353C232.208 122.044 237.479 121.913 242.858 122.975C249.58 124.299 256.521 127.5 263.476 132.49C274.495 140.389 285.201 137.843 290.486 132.126C295.468 126.743 295.619 118.931 290.883 111.758C285.776 104.003 276.782 98.548 270.827 99.5664C268.157 100.032 266.323 101.793 265.515 104.687C265.474 104.819 265.351 104.891 265.228 104.848C265.104 104.804 265.036 104.673 265.077 104.542C265.939 101.457 267.897 99.5809 270.758 99.0863C276.864 98.0388 286.064 103.596 291.266 111.482C293.771 115.293 294.989 119.323 294.784 123.12C294.592 126.641 293.223 129.871 290.814 132.46C287.829 135.69 283.586 137.611 278.835 137.872C278.452 137.887 278.055 137.901 277.672 137.901L277.658 137.916Z" fill="#478482"/>
<path d="M197.202 153.627C196.08 153.948 194.957 154.311 193.89 154.791C193.438 154.995 192.986 155.257 192.658 155.635C192.343 156.014 192.165 156.494 192.192 157.003C192.261 158.08 193.109 158.836 194.054 159.069C194.519 159.185 195.04 159.185 195.478 158.952C195.875 158.734 196.19 158.385 196.381 157.949C196.833 156.901 196.381 155.664 195.533 155.039C195.382 154.923 195.19 155.17 195.341 155.286C196.012 155.781 196.45 156.712 196.203 157.585C196.094 157.978 195.847 158.341 195.533 158.574C195.177 158.836 194.739 158.88 194.314 158.807C193.451 158.661 192.617 158.051 192.507 157.076C192.452 156.625 192.589 156.203 192.876 155.868C193.164 155.519 193.575 155.301 193.972 155.112C195.04 154.617 196.176 154.253 197.298 153.933C197.49 153.875 197.381 153.584 197.189 153.627H197.202Z" fill="#234140"/>
<path d="M205.649 161.426C204.348 161.295 203.048 161.179 201.747 160.99C200.447 160.801 199.16 160.539 197.887 160.204C197.161 160.015 196.436 159.812 195.724 159.608C195.532 159.549 195.491 159.87 195.669 159.927C196.942 160.292 198.215 160.641 199.502 160.917C200.789 161.194 202.076 161.368 203.376 161.513C204.115 161.601 204.855 161.659 205.58 161.732C205.772 161.746 205.813 161.441 205.635 161.426H205.649Z" fill="#234140"/>
<path d="M193.069 179.684C193.069 179.684 192.973 179.583 192.932 179.525C192.384 178.812 192.494 177.575 193.233 175.873C193.863 174.433 194.945 172.628 196.464 170.519C199.832 165.82 204.212 161.077 205.923 159.273C207.06 158.08 208.114 157.003 208.908 156.262C209.291 155.898 209.607 155.621 209.825 155.447C210.127 155.2 210.304 155.112 210.441 155.229C210.51 155.287 210.524 155.404 210.469 155.491C210.428 155.534 210.373 155.563 210.318 155.563C209.812 155.796 206.102 159.419 202.105 164.031C199.216 167.362 194.219 173.487 193.137 177.138C192.85 178.128 192.864 178.855 193.206 179.306C193.411 179.568 193.685 179.699 194.041 179.699C195.876 179.699 199.668 176.353 205.02 170.054C209.086 165.267 212.632 160.437 212.659 160.379C212.714 160.292 212.824 160.277 212.906 160.35C212.988 160.408 213.002 160.524 212.933 160.611C212.892 160.655 209.346 165.515 205.267 170.301C199.777 176.775 195.998 180.048 194.028 180.063C193.63 180.063 193.302 179.946 193.056 179.684H193.069Z" fill="#8B9192"/>
<path d="M194.027 180.15C193.616 180.15 193.274 180.019 193 179.757C192.945 179.699 192.89 179.641 192.85 179.582C192.288 178.826 192.384 177.575 193.137 175.829C193.767 174.389 194.848 172.585 196.368 170.461C199.736 165.747 204.116 161.019 205.841 159.2C206.978 158.007 208.031 156.931 208.839 156.189C209.223 155.825 209.537 155.549 209.77 155.374C210.058 155.141 210.291 154.981 210.496 155.156C210.55 155.2 210.592 155.273 210.592 155.345C210.592 155.418 210.592 155.49 210.537 155.549C210.482 155.622 210.413 155.651 210.332 155.651C209.77 155.941 206.102 159.549 202.172 164.089C199.298 167.42 194.3 173.53 193.233 177.168C192.945 178.128 192.959 178.826 193.274 179.248C193.452 179.481 193.699 179.597 194.027 179.597C195.848 179.597 199.612 176.266 204.938 169.98C209.003 165.194 212.549 160.365 212.577 160.321C212.673 160.204 212.837 160.175 212.946 160.277C213.001 160.321 213.042 160.393 213.042 160.466C213.042 160.539 213.042 160.612 212.987 160.67C212.946 160.714 209.373 165.602 205.321 170.374C199.804 176.862 196.012 180.164 194.027 180.179V180.15ZM210.318 155.258C210.236 155.258 210.112 155.33 209.894 155.505C209.674 155.68 209.36 155.956 208.976 156.32C208.182 157.062 207.128 158.138 205.992 159.332C204.267 161.15 199.9 165.878 196.532 170.577C195.026 172.687 193.945 174.476 193.315 175.917C192.589 177.589 192.48 178.783 193 179.467C193.041 179.524 193.082 179.568 193.137 179.612C193.37 179.845 193.671 179.961 194.041 179.961C195.971 179.961 199.736 176.673 205.211 170.228C209.264 165.47 212.837 160.597 212.864 160.539C212.809 160.378 212.755 160.393 212.728 160.422C212.686 160.466 209.154 165.311 205.075 170.097C199.708 176.411 195.889 179.757 194.027 179.772C193.63 179.772 193.342 179.641 193.123 179.35C192.768 178.87 192.74 178.113 193.041 177.095C194.123 173.429 199.133 167.289 202.022 163.943C205.745 159.637 209.264 156.16 210.126 155.534C210.126 155.447 210.154 155.403 210.208 155.403C210.236 155.403 210.263 155.418 210.291 155.447C210.345 155.447 210.373 155.447 210.387 155.418C210.359 155.273 210.332 155.258 210.304 155.258H210.318Z" fill="#8B9192"/>
<path d="M193.055 179.524C192.37 178.841 192.329 177.691 192.959 176.95C193.603 176.207 194.684 176.164 195.382 176.848C196.08 177.531 196.121 178.68 195.478 179.423C194.835 180.15 193.753 180.208 193.055 179.524ZM195.149 177.138C194.602 176.6 193.739 176.629 193.233 177.211C192.727 177.793 192.754 178.71 193.301 179.248C193.849 179.786 194.711 179.757 195.218 179.175C195.724 178.593 195.697 177.677 195.149 177.138Z" fill="#8B9192"/>
<path d="M212.536 161.542C212.043 161.266 211.195 160.684 211.783 157.731C211.865 157.338 212.249 157.12 212.605 157.28C215.219 158.429 215.233 155.49 213.946 154.807C212.742 154.181 211.66 156.276 210.798 157.643C210.332 158.371 208.813 157.949 207.471 157.396L207.348 157.28L211.372 153.584C212.317 152.726 213.713 152.755 214.617 153.643L215.055 154.079C215.959 154.981 216.095 156.45 215.356 157.512L212.536 161.557V161.542Z" fill="#8B9192"/>
<path d="M192.109 156.843C192.109 156.756 192.123 156.654 192.15 156.552C192.397 155.374 193.656 154.472 195.901 153.861C197.791 153.351 200.419 153.032 203.691 152.93C210.988 152.682 219.119 153.512 222.282 153.875C224.363 154.108 226.266 154.384 227.635 154.617C228.292 154.733 228.812 154.85 229.182 154.937C229.674 155.068 229.908 155.17 229.908 155.417C229.908 155.548 229.798 155.665 229.674 155.665C229.592 155.665 229.524 155.621 229.483 155.548C228.853 155.185 222.31 154.181 214.588 153.672C209.017 153.308 199.009 152.959 194.628 154.806C193.438 155.301 192.753 155.927 192.602 156.669C192.507 157.105 192.602 157.512 192.917 157.891C194.437 159.855 200.775 161.208 211.221 161.804C219.161 162.255 226.717 162.081 226.8 162.081C226.923 162.081 227.033 162.183 227.033 162.313C227.033 162.444 226.937 162.561 226.813 162.561C226.731 162.561 219.161 162.721 211.207 162.284C200.474 161.688 194.204 160.305 192.575 158.196C192.246 157.774 192.096 157.323 192.123 156.843H192.109Z" fill="#478482"/>
<path d="M223.213 162.736C220.243 162.736 215.78 162.677 211.18 162.415C200.406 161.819 194.109 160.422 192.452 158.284C192.096 157.832 191.945 157.338 191.973 156.828C191.973 156.727 192 156.625 192.014 156.523C192.274 155.287 193.561 154.341 195.861 153.716C197.764 153.206 200.393 152.886 203.678 152.785C210.974 152.537 219.134 153.366 222.296 153.73C224.377 153.963 226.28 154.239 227.663 154.472C228.334 154.588 228.854 154.705 229.21 154.792C229.675 154.908 230.031 155.039 230.031 155.403C230.031 155.505 229.99 155.607 229.921 155.68C229.853 155.752 229.757 155.796 229.661 155.796C229.552 155.796 229.442 155.738 229.374 155.651C228.621 155.287 222.146 154.298 214.562 153.802C209.003 153.439 199.024 153.09 194.656 154.923C193.506 155.403 192.863 155.999 192.712 156.669C192.63 157.062 192.712 157.425 193 157.775C194.04 159.127 198.052 160.888 211.207 161.63C219.161 162.081 226.704 161.921 226.773 161.906C226.869 161.906 226.965 161.95 227.033 162.008C227.101 162.081 227.142 162.183 227.142 162.285C227.142 162.386 227.115 162.488 227.046 162.561C226.978 162.634 226.882 162.677 226.786 162.677C226.759 162.677 225.376 162.706 223.199 162.706L223.213 162.736ZM192.247 156.843C192.22 157.28 192.357 157.702 192.658 158.095C194.26 160.175 200.502 161.528 211.194 162.124C219.161 162.575 226.718 162.415 226.8 162.401C226.828 162.401 226.855 162.401 226.869 162.371C226.882 162.343 226.896 162.328 226.896 162.299C226.896 162.27 226.896 162.241 226.869 162.226C226.855 162.212 226.828 162.197 226.8 162.197C226.718 162.197 219.175 162.357 211.207 161.921C200.721 161.339 194.355 159.957 192.808 157.963C192.479 157.542 192.37 157.091 192.466 156.611C192.63 155.825 193.342 155.17 194.574 154.647C198.983 152.799 209.017 153.134 214.589 153.512C221.584 153.977 227.936 154.879 229.319 155.33C229.347 155.287 229.387 155.272 229.428 155.272C229.511 155.272 229.565 155.33 229.565 155.417C229.607 155.519 229.689 155.534 229.73 155.49C229.744 155.476 229.757 155.447 229.757 155.417C229.757 155.287 229.607 155.2 229.141 155.083C228.785 154.981 228.265 154.879 227.608 154.763C226.239 154.516 224.336 154.254 222.268 154.021C219.106 153.657 210.974 152.842 203.692 153.075C200.42 153.177 197.805 153.497 195.929 154.006C193.739 154.603 192.507 155.461 192.274 156.581C192.261 156.669 192.247 156.756 192.233 156.843H192.247Z" fill="#478482"/>
<path d="M192.246 156.697C192.328 155.388 193.396 154.384 194.628 154.472C195.86 154.559 196.805 155.693 196.722 157.003C196.64 158.312 195.573 159.316 194.34 159.229C193.109 159.142 192.164 158.007 192.246 156.697ZM196.257 156.988C196.326 155.941 195.573 155.039 194.601 154.966C193.615 154.893 192.766 155.693 192.698 156.726C192.629 157.774 193.382 158.676 194.354 158.749C195.34 158.821 196.188 158.021 196.257 156.988Z" fill="#478482"/>
<path d="M194.478 159.331C194.478 159.331 194.369 159.331 194.314 159.331C193.698 159.287 193.123 158.982 192.712 158.487C192.302 157.992 192.096 157.352 192.137 156.683C192.178 156.028 192.466 155.417 192.931 154.981C193.397 154.545 193.999 154.326 194.629 154.37C195.915 154.457 196.887 155.65 196.805 157.003C196.765 157.658 196.477 158.269 196.011 158.705C195.587 159.098 195.039 159.316 194.478 159.316V159.331ZM194.478 154.559C193.958 154.559 193.465 154.762 193.068 155.127C192.63 155.534 192.37 156.087 192.343 156.697C192.301 157.308 192.493 157.89 192.877 158.356C193.26 158.821 193.78 159.098 194.355 159.127C194.93 159.171 195.477 158.967 195.915 158.56C196.353 158.153 196.614 157.6 196.641 156.989C196.724 155.737 195.82 154.632 194.642 154.559C194.588 154.559 194.546 154.559 194.492 154.559H194.478ZM194.478 158.836C194.478 158.836 194.396 158.836 194.355 158.836C193.862 158.807 193.397 158.56 193.068 158.167C192.74 157.759 192.575 157.25 192.602 156.726C192.671 155.636 193.561 154.806 194.601 154.879C195.628 154.952 196.408 155.897 196.34 157.003C196.272 158.051 195.45 158.865 194.478 158.865V158.836ZM194.478 155.054C193.602 155.054 192.849 155.781 192.794 156.726C192.767 157.206 192.918 157.672 193.205 158.022C193.506 158.385 193.917 158.604 194.369 158.633C195.3 158.705 196.107 157.949 196.162 156.959C196.217 155.97 195.518 155.112 194.588 155.054C194.546 155.054 194.505 155.054 194.478 155.054Z" fill="#478482"/>
<path d="M232.235 155.068L225.459 153.788C225.349 153.715 225.171 153.817 225.24 153.963C225.349 154.195 225.445 154.428 225.527 154.675C225.596 154.908 225.637 155.141 225.692 155.374C225.746 155.607 225.856 155.81 225.979 155.999C226.116 156.217 226.211 156.436 226.321 156.668C226.499 157.061 226.745 157.381 227.115 157.571C227.17 157.6 227.224 157.614 227.279 157.644C227.457 157.759 227.649 157.803 227.854 157.789C228.922 157.687 230.236 157.483 231.304 157.585C231.633 157.629 231.961 157.716 232.263 157.891C232.988 158.312 233.139 159.2 232.974 160C232.933 160.189 232.878 160.364 232.823 160.553C232.098 161.659 230.565 162.081 229.785 159.723C229.785 159.491 229.744 159.258 229.634 159.04C229.443 158.676 229.086 158.531 228.717 158.618C227.923 158.778 227.266 159.36 226.718 159.956C226.376 160.335 226.047 160.727 225.718 161.121C225.651 161.207 225.692 161.309 225.76 161.353C225.417 162.008 225.486 162.532 225.555 162.91L231.756 162.619C233.385 162.546 234.7 161.178 234.795 159.462L234.85 158.633C234.959 156.901 233.823 155.374 232.222 155.068H232.235Z" fill="#386866"/>
<path d="M226.074 162.473L226.115 162.343C226.17 162.168 226.074 161.95 225.924 161.848C225.759 161.746 225.567 161.79 225.431 161.92L225.225 162.095C224.979 162.314 225.129 162.75 225.404 162.823C225.746 162.924 226.005 162.648 226.06 162.328C226.115 162.066 226.184 161.877 226.389 161.688C226.553 161.542 226.539 161.223 226.389 161.077C226.225 160.902 225.978 160.917 225.814 161.077C225.65 161.223 225.513 161.411 225.417 161.615C225.376 161.717 225.335 161.819 225.308 161.935C225.308 161.979 225.28 162.052 225.28 162.095C225.28 162.154 225.253 162.139 225.294 162.095C225.349 162.052 225.417 162.022 225.471 161.979C225.513 161.979 225.581 161.979 225.663 161.979C225.691 162.212 225.746 162.459 225.814 162.692C225.883 162.634 225.951 162.575 226.005 162.517C225.773 162.371 225.554 162.226 225.321 162.095L225.28 162.226C225.212 162.444 225.362 162.706 225.567 162.765C225.8 162.823 226.005 162.677 226.074 162.459V162.473Z" fill="#234140"/>
<path d="M231.153 156.669C230.304 156.363 229.442 156.13 228.579 155.941C227.785 155.767 226.841 155.519 226.458 154.676C226.416 154.603 226.348 154.574 226.293 154.588C226.252 154.472 226.115 154.399 226.047 154.53C225.965 154.69 225.965 154.835 226.033 155.01C226.115 155.214 226.238 155.417 226.362 155.607C226.595 156.014 226.854 156.421 227.169 156.756C227.758 157.367 228.565 157.469 229.346 157.381C229.839 157.323 230.332 157.222 230.825 157.178C230.907 157.178 230.947 157.12 230.947 157.061C231.03 157.032 231.112 157.003 231.181 156.945C231.276 156.886 231.249 156.712 231.153 156.669ZM230.181 156.814C230.181 156.814 230.126 156.727 230.071 156.712C230.085 156.698 230.099 156.669 230.099 156.64C230.263 156.683 230.442 156.741 230.605 156.8C230.468 156.8 230.318 156.8 230.181 156.8V156.814ZM227.251 155.854C227.087 155.781 226.909 155.709 226.745 155.621C226.649 155.519 226.595 155.417 226.54 155.315C226.745 155.534 226.992 155.708 227.265 155.839L227.251 155.854ZM227.689 156.8C227.799 156.843 227.895 156.872 227.991 156.901C228.114 156.959 228.237 157.018 228.36 157.047C228.127 157.003 227.881 156.93 227.676 156.8H227.689ZM228.949 157.09C228.949 157.09 229.086 157.076 229.154 157.061C229.182 157.061 229.223 157.061 229.25 157.061C229.154 157.061 229.045 157.076 228.949 157.076V157.09Z" fill="#316F6C"/>
<path d="M197.053 122.408L175.834 125.637L175.752 122.262L175.245 101.691C175.218 100.658 175.491 99.683 175.97 98.854C176.696 97.6171 177.914 96.7298 179.366 96.5113L185.978 95.5074C187.429 95.2896 188.825 95.7842 189.852 96.7443C190.537 97.3846 191.057 98.2428 191.303 99.2466L196.177 118.887L197.039 122.364V122.408H197.053Z" fill="#C6E0DF"/>
<path d="M189.851 96.7443C189.577 98.0971 186.771 99.5228 183.225 100.076C179.666 100.614 176.6 100.076 175.983 98.854C176.709 97.6171 177.927 96.7298 179.379 96.5113L185.991 95.5074C187.442 95.2896 188.838 95.7842 189.865 96.7443H189.851Z" fill="#71B2B0"/>
<path d="M179.831 105.036C179.872 105.53 179.516 105.996 179.037 106.069C178.558 106.141 178.147 105.792 178.133 105.283C178.106 104.789 178.462 104.338 178.927 104.265C179.393 104.192 179.803 104.526 179.831 105.021V105.036Z" fill="#71B2B0"/>
<path d="M177.326 103.145C177.353 103.611 176.983 104.062 176.531 104.12C176.066 104.193 175.696 103.858 175.683 103.392C175.683 102.927 176.025 102.505 176.476 102.432C176.928 102.359 177.312 102.68 177.326 103.145Z" fill="#71B2B0"/>
<path d="M181.98 102.432C182.035 102.897 181.706 103.334 181.241 103.407C180.775 103.48 180.378 103.144 180.337 102.679C180.296 102.213 180.625 101.792 181.076 101.719C181.528 101.646 181.925 101.966 181.98 102.417V102.432Z" fill="#71B2B0"/>
<path d="M180.213 110.026C180.254 110.593 179.884 111.132 179.364 111.204C178.858 111.277 178.42 110.87 178.378 110.302C178.351 109.735 178.72 109.226 179.227 109.153C179.72 109.08 180.158 109.459 180.199 110.026H180.213Z" fill="#71B2B0"/>
<path d="M177.53 107.83C177.557 108.368 177.174 108.863 176.681 108.935C176.188 109.008 175.777 108.63 175.764 108.092C175.764 107.568 176.133 107.073 176.612 107C177.091 106.928 177.502 107.292 177.516 107.816L177.53 107.83Z" fill="#71B2B0"/>
<path d="M182.5 107.088C182.554 107.611 182.212 108.121 181.72 108.193C181.227 108.266 180.789 107.888 180.747 107.364C180.706 106.84 181.048 106.36 181.528 106.287C182.007 106.214 182.445 106.578 182.5 107.102V107.088Z" fill="#71B2B0"/>
<path d="M177.762 112.994C177.79 113.605 177.379 114.172 176.859 114.259C176.325 114.332 175.887 113.896 175.887 113.285C175.887 112.674 176.284 112.135 176.79 112.048C177.297 111.976 177.735 112.383 177.762 112.994Z" fill="#71B2B0"/>
<path d="M183.074 112.179C183.143 112.79 182.773 113.358 182.239 113.431C181.705 113.517 181.24 113.081 181.185 112.47C181.13 111.874 181.5 111.321 182.02 111.248C182.54 111.175 183.006 111.583 183.074 112.179Z" fill="#71B2B0"/>
<path d="M184.677 104.295C184.746 104.789 184.417 105.255 183.952 105.327C183.472 105.4 183.034 105.051 182.979 104.556C182.925 104.062 183.254 103.625 183.719 103.552C184.185 103.48 184.623 103.814 184.691 104.295H184.677Z" fill="#71B2B0"/>
<path d="M182.021 102.418C182.076 102.884 181.747 103.32 181.282 103.393C180.817 103.466 180.42 103.131 180.378 102.665C180.337 102.2 180.666 101.778 181.117 101.72C181.569 101.647 181.967 101.967 182.021 102.418Z" fill="#71B2B0"/>
<path d="M186.677 101.72C186.759 102.185 186.458 102.607 185.992 102.68C185.527 102.752 185.102 102.432 185.02 101.967C184.952 101.516 185.253 101.094 185.705 101.021C186.156 100.948 186.581 101.254 186.663 101.72H186.677Z" fill="#71B2B0"/>
<path d="M185.403 109.241C185.485 109.808 185.143 110.332 184.636 110.405C184.13 110.477 183.651 110.084 183.582 109.517C183.513 108.964 183.856 108.455 184.362 108.368C184.855 108.295 185.32 108.673 185.403 109.226V109.241Z" fill="#71B2B0"/>
<path d="M182.541 107.073C182.595 107.597 182.253 108.106 181.761 108.179C181.268 108.252 180.83 107.874 180.788 107.35C180.747 106.826 181.09 106.346 181.569 106.273C182.048 106.201 182.486 106.564 182.541 107.088V107.073Z" fill="#71B2B0"/>
<path d="M187.51 106.316C187.606 106.84 187.291 107.335 186.798 107.408C186.305 107.48 185.84 107.117 185.758 106.579C185.676 106.055 186.004 105.589 186.483 105.516C186.962 105.444 187.428 105.793 187.524 106.316H187.51Z" fill="#71B2B0"/>
<path d="M183.116 112.18C183.185 112.791 182.815 113.344 182.281 113.431C181.747 113.518 181.282 113.082 181.227 112.47C181.172 111.874 181.542 111.321 182.062 111.249C182.569 111.176 183.048 111.583 183.116 112.18Z" fill="#71B2B0"/>
<path d="M188.428 111.365C188.537 111.962 188.195 112.529 187.675 112.601C187.155 112.674 186.648 112.253 186.552 111.641C186.456 111.045 186.798 110.507 187.319 110.434C187.839 110.361 188.332 110.769 188.441 111.351L188.428 111.365Z" fill="#71B2B0"/>
<path d="M180.364 115.599C180.433 116.21 180.063 116.777 179.529 116.85C178.995 116.937 178.53 116.501 178.475 115.89C178.42 115.293 178.79 114.74 179.31 114.668C179.83 114.595 180.296 115.003 180.364 115.599Z" fill="#71B2B0"/>
<path d="M185.676 114.799C185.785 115.395 185.443 115.962 184.922 116.035C184.389 116.108 183.896 115.686 183.8 115.075C183.704 114.478 184.046 113.94 184.567 113.868C185.073 113.795 185.58 114.202 185.689 114.784L185.676 114.799Z" fill="#71B2B0"/>
<path d="M191.481 113.911C191.549 114.522 191.18 115.075 190.646 115.162C190.112 115.249 189.646 114.813 189.591 114.202C189.536 113.605 189.906 113.052 190.426 112.98C190.933 112.907 191.412 113.315 191.481 113.911Z" fill="#71B2B0"/>
<path d="M189.467 103.567C189.577 104.062 189.276 104.513 188.797 104.585C188.317 104.658 187.852 104.309 187.77 103.829C187.674 103.349 187.975 102.898 188.44 102.825C188.906 102.753 189.357 103.087 189.467 103.567Z" fill="#71B2B0"/>
<path d="M186.663 101.719C186.745 102.185 186.443 102.606 185.978 102.679C185.512 102.752 185.088 102.432 185.006 101.966C184.937 101.515 185.239 101.093 185.691 101.02C186.142 100.948 186.567 101.254 186.649 101.719H186.663Z" fill="#71B2B0"/>
<path d="M191.317 101.006C191.426 101.457 191.152 101.894 190.687 101.966C190.221 102.039 189.77 101.719 189.66 101.268C189.55 100.817 189.838 100.395 190.29 100.337C190.742 100.264 191.193 100.57 191.317 101.021V101.006Z" fill="#71B2B0"/>
<path d="M190.537 108.455C190.66 109.008 190.345 109.532 189.838 109.619C189.332 109.692 188.825 109.299 188.716 108.732C188.606 108.179 188.921 107.67 189.428 107.597C189.921 107.524 190.427 107.902 190.537 108.455Z" fill="#71B2B0"/>
<path d="M187.511 106.316C187.607 106.84 187.292 107.335 186.799 107.408C186.306 107.48 185.841 107.117 185.759 106.579C185.676 106.055 186.005 105.589 186.484 105.516C186.963 105.444 187.429 105.793 187.525 106.316H187.511Z" fill="#71B2B0"/>
<path d="M192.48 105.56C192.617 106.084 192.316 106.564 191.823 106.637C191.33 106.709 190.838 106.345 190.714 105.822C190.591 105.313 190.892 104.832 191.372 104.76C191.851 104.687 192.344 105.036 192.48 105.545V105.56Z" fill="#71B2B0"/>
<path d="M188.428 111.365C188.537 111.962 188.195 112.529 187.675 112.601C187.141 112.674 186.648 112.253 186.552 111.641C186.456 111.045 186.798 110.507 187.319 110.434C187.825 110.361 188.332 110.769 188.441 111.351L188.428 111.365Z" fill="#71B2B0"/>
<path d="M193.739 110.565C193.889 111.161 193.588 111.714 193.055 111.787C192.534 111.86 191.987 111.437 191.85 110.842C191.712 110.259 192.028 109.721 192.534 109.648C193.055 109.575 193.588 109.968 193.725 110.565H193.739Z" fill="#71B2B0"/>
<path d="M186.689 126.379C183.691 126.83 180.788 126.874 178.543 126.51C175.025 125.928 174.094 124.444 173.944 123.309C173.834 122.538 174.341 121.825 175.066 121.709C175.778 121.607 175.299 123.207 179.447 123.789C181.377 124.065 183.814 123.964 186.319 123.585C188.824 123.207 191.124 122.407 192.959 121.738C196.19 120.559 195.915 118.537 196.614 118.436C197.339 118.319 198.01 118.858 198.12 119.628C198.27 120.763 197.777 122.451 194.547 124.065C192.48 125.098 189.7 125.914 186.689 126.379Z" fill="#71B2B0"/>
<path d="M178.639 98.0831C178.68 98.4029 178.366 98.7228 177.928 98.781C177.489 98.8539 177.106 98.6354 177.065 98.3155C177.024 97.9957 177.339 97.6752 177.777 97.6176C178.215 97.5448 178.598 97.7626 178.639 98.0831Z" fill="#C6E0DF"/>
<path d="M180.775 98.9556C180.816 99.2754 180.501 99.5953 180.063 99.6535C179.625 99.7264 179.241 99.5079 179.201 99.188C179.16 98.8682 179.474 98.5477 179.912 98.4894C180.35 98.4172 180.734 98.6351 180.775 98.9556Z" fill="#C6E0DF"/>
<path d="M181.103 97.1084C181.144 97.4282 180.829 97.7481 180.391 97.8063C179.952 97.8792 179.569 97.6607 179.528 97.3408C179.487 97.021 179.802 96.7005 180.24 96.6423C180.678 96.5701 181.061 96.7879 181.103 97.1084Z" fill="#C6E0DF"/>
<path d="M188.674 96.5546C188.715 96.875 188.4 97.1949 187.962 97.2531C187.524 97.326 187.14 97.1075 187.099 96.7876C187.059 96.4678 187.373 96.1473 187.811 96.0891C188.249 96.0169 188.633 96.2347 188.674 96.5546Z" fill="#C6E0DF"/>
<path d="M186.553 98.0831C186.593 98.4029 186.279 98.7228 185.841 98.781C185.403 98.8539 185.019 98.6354 184.978 98.3155C184.937 97.9957 185.252 97.6752 185.69 97.6176C186.128 97.5448 186.512 97.7626 186.553 98.0831Z" fill="#C6E0DF"/>
<path d="M183.718 98.7804C183.759 99.1009 183.444 99.4207 183.006 99.479C182.568 99.5518 182.184 99.3333 182.143 99.0135C182.102 98.6937 182.417 98.3732 182.855 98.3149C183.293 98.2573 183.677 98.4606 183.718 98.7804Z" fill="#C6E0DF"/>
<path d="M183.473 96.9039C183.514 97.2243 183.199 97.5442 182.76 97.6024C182.322 97.6753 181.939 97.4568 181.898 97.1369C181.857 96.8165 182.172 96.4966 182.61 96.4384C183.048 96.3655 183.432 96.584 183.473 96.9039Z" fill="#C6E0DF"/>
<path d="M185.923 96.3799C185.964 96.6998 185.649 97.0202 185.211 97.0785C184.773 97.1513 184.389 96.9328 184.348 96.613C184.307 96.2925 184.622 95.9727 185.061 95.9144C185.499 95.8416 185.882 96.0601 185.923 96.3799Z" fill="#C6E0DF"/>
<path d="M172.684 167.304C173.848 165.369 173.669 162.867 172.246 161.15C169.617 157.993 164.771 152.988 158.2 149.613C151.821 146.34 144.948 145.394 140.91 145.147C138.733 145.015 136.762 146.442 136.064 148.638C134.804 152.639 133.161 159.593 133.695 167.318C134.229 175.073 136.844 181.707 138.637 185.446C139.609 187.482 141.745 188.588 143.853 188.137C147.741 187.322 154.326 185.387 160.404 180.994C166.469 176.615 170.562 170.854 172.697 167.289L172.684 167.304Z" fill="#71B2B0"/>
<path d="M158.801 159.085C162.005 164.089 160.773 170.898 156.077 174.302C151.368 177.707 144.961 176.397 141.757 171.407C138.554 166.402 139.786 159.594 144.482 156.189C149.191 152.785 155.598 154.095 158.801 159.085Z" fill="#478482"/>
<path d="M143.155 186.798C131.409 187.046 119.663 187.279 107.904 187.526C96.1987 187.774 84.494 188.006 72.7757 188.254C66.1635 188.384 59.5513 188.53 52.9391 188.661C52.1724 188.676 51.8165 190.028 52.6926 190.014C64.4388 189.767 76.1846 189.534 87.944 189.287C99.6487 189.039 111.354 188.807 123.072 188.559C129.684 188.428 136.297 188.283 142.909 188.152C143.675 188.137 144.032 186.785 143.155 186.798Z" fill="#71B2B0"/>
<path d="M169.413 48.3559C169.016 47.7303 168.701 47.0029 168.208 46.45C167.661 45.839 167.223 45.7372 166.539 46.1445C164.676 47.2502 164.115 46.3046 162.267 45.7809C159.009 44.8643 154.929 44.0496 151.753 45.5772C151.124 45.8827 150.617 46.2901 150.056 46.7265C149.275 47.3375 147.468 45.9118 146.852 45.4898C142.732 42.6384 139.857 38.7831 137.543 34.2004C136.79 32.7018 136.092 31.1597 135.435 29.5885C134.928 28.381 134.627 27.028 134.011 25.8932C132.984 23.9874 128.001 24.1911 126.236 23.7692C123.854 23.1873 122.525 23.1727 120.116 22.6344C117.775 22.1252 118.446 22.5907 117.474 24.7584C116.721 26.4315 115.694 29.1666 118.022 30.1995C119.883 31.0288 122.019 31.2034 123.922 31.9745C129.521 34.2149 133.409 35.9316 136.585 41.5036C138.83 45.4317 142.704 50.4654 147.085 51.7166C147.167 51.7457 147.263 51.7602 147.359 51.7748C146.277 58.0451 150.986 62.1623 155.737 64.6646C161.076 67.4722 168.099 67.2398 171.604 61.4203C172.124 60.5474 172.452 59.66 172.617 58.7726C173.274 55.1355 171.302 51.3383 169.372 48.3559H169.413ZM167.537 58.0305C167.77 62.0896 163.65 63.5006 159.844 62.8461C159.844 62.8461 154.218 61.4785 150.535 55.5428C146.852 49.6216 152.492 46.9302 157.777 48.1813C163.061 49.4179 167.305 53.9716 167.537 58.0305Z" fill="#234140"/>
<path d="M124.456 32.7895L121.526 23.2458L121.868 23.013L67.6016 10.9233C67.9162 11.0542 89.7927 20.1033 108.903 27.6685C115.448 29.938 121.047 31.8002 124.469 32.775L124.456 32.7895Z" fill="#C1C1C1"/>
<path d="M169.058 50.0581C168.661 49.4325 168.345 48.7051 167.853 48.1522C167.305 47.5412 166.867 47.4394 166.183 47.8467C164.321 48.9524 163.76 48.0067 161.911 47.483C158.653 46.5664 154.573 45.7517 151.398 47.2793C150.768 47.5848 150.261 47.9922 149.7 48.4286C148.92 49.0397 147.113 47.6139 146.496 47.192C142.376 44.3405 139.501 40.4852 137.187 35.9025C136.435 34.404 135.736 32.8619 135.08 31.2907C134.573 30.0832 134.271 28.7301 133.656 27.5954C132.629 25.6895 131.068 24.6129 129.316 24.1765C126.934 23.5945 120.787 22.5034 116.995 21.936C116.365 23.6382 116.119 24.4675 115.147 26.6352C114.394 28.3083 115.352 30.8688 117.666 31.9017C119.527 32.7309 121.663 32.9055 123.566 33.6766C129.165 35.9171 133.053 37.6338 136.243 43.2058C138.488 47.1338 142.362 52.1676 146.743 53.4187C146.825 53.4478 146.921 53.4624 147.017 53.4769C145.936 59.7472 150.645 63.8642 155.395 66.3665C160.734 69.1747 167.757 68.9416 171.261 63.1225C171.782 62.2496 172.11 61.3621 172.275 60.4747C172.932 56.8376 170.961 53.0405 169.03 50.0581H169.058ZM167.182 59.7327C167.415 63.792 163.308 65.203 159.488 64.5482C159.488 64.5482 153.862 63.1807 150.179 57.2449C146.496 51.3238 152.137 48.6323 157.421 49.8835C162.705 51.1201 166.949 55.6737 167.182 59.7327Z" fill="#478482"/>
<path d="M68.4639 39.7728C68.4639 39.7728 69.7505 42.7116 84.3301 39.8164C98.9103 36.9213 121.293 34.419 121.293 34.419L121.471 24.0605L68.4639 39.7583V39.7728Z" fill="#AEADB8"/>
<path d="M68.4639 39.7726C68.4639 39.7726 69.9836 43.5987 84.5631 40.7036C99.1427 37.8085 121.539 34.055 121.539 34.055L121.703 24.9478L68.4639 39.7726Z" fill="#C1C1C1"/>
<path d="M182.09 8.26089C181.967 7.46074 175.533 9.32293 171.892 10.4432C170.221 10.9524 168.483 11.1997 166.744 11.1851L161.843 11.1124C151.863 12.2035 148.057 17.5282 146.661 20.6561C146.127 21.8636 144.758 22.3437 143.649 21.7327L140.159 19.7978C138.529 18.8958 136.613 18.7211 134.86 19.3468L114.818 26.0536L117.173 34.9426L132.013 33.124L137.434 28.5122C138.57 27.552 140.104 27.2756 141.459 27.8139C141.514 27.843 141.569 27.8576 141.637 27.8866C142.445 28.2067 143.293 28.5122 144.197 28.8177C150.166 30.8691 157.928 32.804 157.928 32.804C157.928 32.804 175.423 37.2412 183.09 27.0574C183.268 26.8246 183.432 26.5918 183.596 26.3445C188.223 19.3758 183.5 13.2946 178.284 13.5419C177.888 13.3383 178.23 12.7854 178.846 12.1162C180.023 10.8214 182.227 9.03197 182.118 8.29002L182.09 8.26089ZM170.865 27.3193C166.757 26.7227 162.596 26.7082 158.462 27.0138C156.942 27.1301 155.518 27.101 154.355 26.7082C151.945 25.9081 150.618 23.6967 150.618 23.6967C150.618 23.6967 148.276 19.6959 153.78 16.9899C159.297 14.284 171.221 12.4363 179.982 17.6155C187.648 22.14 179.859 28.6141 170.878 27.2901L170.865 27.3193Z" fill="#234140"/>
<path d="M123.797 30.2873C124.317 32.0622 126.097 33.0369 127.767 32.4841C129.438 31.9313 130.355 30.0399 129.835 28.2651C129.314 26.4902 127.535 25.5154 125.864 26.0682C124.194 26.6211 123.264 28.5124 123.797 30.2873Z" fill="#478482"/>
<path d="M127.753 32.4402C128.26 32.2657 128.548 31.6837 128.383 31.1455L127.097 26.7809C126.932 26.2426 126.384 25.9371 125.878 26.1117C125.371 26.2863 125.084 26.8682 125.249 27.4065L126.535 31.771C126.7 32.3238 127.247 32.6149 127.753 32.4402Z" fill="#234140"/>
</g>
</g>
<defs>
<clipPath id="clip0_26_497">
<rect width="295" height="190" fill="white"/>
</clipPath>
</defs>
</svg>
